<svg width="696" height="379" viewBox="0 0 696 379" fill="none" xmlns="http://www.w3.org/2000/svg">
<path d="M125.707 309.205V129.705" stroke="white"/>
<circle cx="125.707" cy="126.205" r="125" stroke="#FFE6DB" stroke-opacity="0.5"/>
<circle cx="125.707" cy="127.705" r="22" fill="white"/>
<path d="M26.9125 355.432H28.5233L33.0499 362.681H33.1842L37.7108 355.432H39.3216L33.8106 364.09V370.705H32.4235V364.09L26.9125 355.432ZM44.497 370.944C43.5077 370.944 42.6327 370.693 41.872 370.191C41.1163 369.688 40.5247 368.995 40.0972 368.11C39.6696 367.22 39.4558 366.193 39.4558 365.03C39.4558 363.857 39.6696 362.825 40.0972 361.935C40.5247 361.04 41.1163 360.344 41.872 359.847C42.6327 359.345 43.5077 359.094 44.497 359.094C45.4864 359.094 46.3589 359.345 47.1146 359.847C47.8703 360.349 48.4619 361.045 48.8894 361.935C49.322 362.825 49.5382 363.857 49.5382 365.03C49.5382 366.193 49.3244 367.22 48.8969 368.11C48.4693 368.995 47.8752 369.688 47.1146 370.191C46.3589 370.693 45.4864 370.944 44.497 370.944ZM44.497 369.728C45.2925 369.728 45.9661 369.514 46.518 369.087C47.0698 368.659 47.4874 368.09 47.7708 367.379C48.0592 366.668 48.2033 365.885 48.2033 365.03C48.2033 364.175 48.0592 363.389 47.7708 362.673C47.4874 361.958 47.0698 361.383 46.518 360.951C45.9661 360.518 45.2925 360.302 44.497 360.302C43.7065 360.302 43.0329 360.518 42.4761 360.951C41.9242 361.383 41.5041 361.958 41.2158 362.673C40.9324 363.389 40.7907 364.175 40.7907 365.03C40.7907 365.885 40.9324 366.668 41.2158 367.379C41.5041 368.09 41.9242 368.659 42.4761 369.087C43.0279 369.514 43.7016 369.728 44.497 369.728ZM59.7306 366.328V359.251H61.058V370.705H59.7306V368.803H59.6262C59.3577 369.39 58.9327 369.88 58.351 370.273C57.7693 370.66 57.0584 370.854 56.2182 370.854C55.4873 370.854 54.8386 370.695 54.2718 370.377C53.705 370.054 53.2601 369.581 52.9369 368.96C52.6138 368.339 52.4522 367.575 52.4522 366.671V359.251H53.7796V366.589C53.7796 367.483 54.0431 368.204 54.5701 368.751C55.0971 369.293 55.7732 369.564 56.5985 369.564C57.1155 369.564 57.6127 369.44 58.09 369.191C58.5672 368.943 58.96 368.58 59.2682 368.102C59.5765 367.62 59.7306 367.029 59.7306 366.328ZM64.5723 370.705V359.251H65.8624V361.01H65.9594C66.1881 360.434 66.5858 359.969 67.1526 359.616C67.7243 359.258 68.3706 359.079 69.0915 359.079C69.2009 359.079 69.3227 359.081 69.4569 359.086C69.5911 359.091 69.703 359.096 69.7925 359.101V360.451C69.7328 360.441 69.6284 360.426 69.4793 360.406C69.3301 360.387 69.1685 360.377 68.9945 360.377C68.3979 360.377 67.866 360.503 67.3987 360.757C66.9363 361.006 66.5709 361.351 66.3024 361.794C66.034 362.236 65.8997 362.741 65.8997 363.307V370.705H64.5723ZM82.0878 370.944C81.1482 370.944 80.3254 370.695 79.6195 370.198C78.9135 369.701 78.3616 369.007 77.9639 368.117C77.5712 367.227 77.3748 366.191 77.3748 365.008C77.3748 363.829 77.5712 362.798 77.9639 361.913C78.3616 361.023 78.916 360.332 79.6269 359.84C80.3378 359.343 81.1656 359.094 82.1102 359.094C82.8062 359.094 83.3854 359.218 83.8478 359.467C84.3101 359.71 84.6805 360.014 84.9589 360.377C85.2373 360.74 85.4536 361.093 85.6077 361.436H85.7271V355.432H87.0619V370.705H85.7643V368.58H85.6077C85.4536 368.928 85.2349 369.286 84.9515 369.654C84.6681 370.017 84.2927 370.322 83.8254 370.571C83.3631 370.819 82.7839 370.944 82.0878 370.944ZM82.2445 369.728C82.9852 369.728 83.6166 369.527 84.1386 369.124C84.6606 368.716 85.0584 368.157 85.3318 367.446C85.6102 366.73 85.7494 365.91 85.7494 364.985C85.7494 364.07 85.6127 363.263 85.3393 362.562C85.0658 361.856 84.6681 361.304 84.1461 360.906C83.6241 360.503 82.9902 360.302 82.2445 360.302C81.4788 360.302 80.8325 360.511 80.3055 360.928C79.7835 361.341 79.3858 361.9 79.1123 362.606C78.8439 363.312 78.7097 364.105 78.7097 364.985C78.7097 365.875 78.8464 366.678 79.1198 367.394C79.3932 368.11 79.791 368.679 80.313 369.102C80.84 369.519 81.4838 369.728 82.2445 369.728ZM94.042 370.966C93.351 370.966 92.7196 370.832 92.1479 370.563C91.5761 370.29 91.1212 369.897 90.7832 369.385C90.4451 368.868 90.2761 368.242 90.2761 367.506C90.2761 366.939 90.3829 366.462 90.5967 366.074C90.8105 365.686 91.1138 365.368 91.5065 365.119C91.8993 364.871 92.3641 364.675 92.9011 364.53C93.438 364.386 94.0296 364.274 94.6759 364.195C95.3172 364.115 95.8592 364.046 96.3016 363.986C96.7491 363.926 97.0896 363.832 97.3233 363.703C97.557 363.573 97.6738 363.365 97.6738 363.076V362.808C97.6738 362.027 97.4401 361.413 96.9728 360.966C96.5104 360.513 95.8442 360.287 94.9742 360.287C94.1489 360.287 93.4753 360.469 92.9533 360.831C92.4362 361.194 92.0733 361.622 91.8645 362.114L90.6042 361.659C90.8627 361.033 91.2207 360.533 91.678 360.16C92.1354 359.782 92.6475 359.512 93.2143 359.347C93.781 359.178 94.3552 359.094 94.9369 359.094C95.3744 359.094 95.8293 359.151 96.3016 359.265C96.7789 359.38 97.2214 359.579 97.629 359.862C98.0367 360.14 98.3673 360.531 98.6209 361.033C98.8744 361.53 99.0012 362.161 99.0012 362.927V370.705H97.6738V368.893H97.5918C97.4327 369.231 97.1965 369.559 96.8833 369.877C96.5701 370.195 96.1773 370.456 95.705 370.66C95.2327 370.864 94.6784 370.966 94.042 370.966ZM94.221 369.751C94.927 369.751 95.5385 369.594 96.0555 369.281C96.5726 368.968 96.9703 368.552 97.2487 368.035C97.5321 367.513 97.6738 366.939 97.6738 366.313V364.657C97.5744 364.752 97.4078 364.836 97.1741 364.911C96.9454 364.985 96.6795 365.052 96.3762 365.112C96.0779 365.167 95.7796 365.214 95.4813 365.254C95.183 365.294 94.9146 365.328 94.6759 365.358C94.0296 365.438 93.4778 365.562 93.0204 365.731C92.563 365.9 92.2125 366.134 91.9689 366.432C91.7253 366.725 91.6035 367.103 91.6035 367.566C91.6035 368.262 91.8521 368.801 92.3492 369.184C92.8464 369.562 93.4703 369.751 94.221 369.751ZM107.044 359.251V360.406H101.578V359.251H107.044ZM103.285 356.506H104.62V367.715C104.62 368.192 104.702 368.567 104.866 368.841C105.03 369.109 105.244 369.301 105.508 369.415C105.771 369.524 106.052 369.579 106.35 369.579C106.524 369.579 106.674 369.569 106.798 369.549C106.922 369.524 107.032 369.499 107.126 369.475L107.409 370.675C107.28 370.725 107.121 370.77 106.932 370.809C106.743 370.854 106.51 370.877 106.231 370.877C105.744 370.877 105.274 370.77 104.822 370.556C104.374 370.342 104.006 370.024 103.718 369.601C103.43 369.179 103.285 368.654 103.285 368.028V356.506ZM113.258 370.966C112.567 370.966 111.935 370.832 111.364 370.563C110.792 370.29 110.337 369.897 109.999 369.385C109.661 368.868 109.492 368.242 109.492 367.506C109.492 366.939 109.599 366.462 109.813 366.074C110.026 365.686 110.33 365.368 110.722 365.119C111.115 364.871 111.58 364.675 112.117 364.53C112.654 364.386 113.245 364.274 113.892 364.195C114.533 364.115 115.075 364.046 115.517 363.986C115.965 363.926 116.305 363.832 116.539 363.703C116.773 363.573 116.89 363.365 116.89 363.076V362.808C116.89 362.027 116.656 361.413 116.189 360.966C115.726 360.513 115.06 360.287 114.19 360.287C113.365 360.287 112.691 360.469 112.169 360.831C111.652 361.194 111.289 361.622 111.08 362.114L109.82 361.659C110.079 361.033 110.436 360.533 110.894 360.16C111.351 359.782 111.863 359.512 112.43 359.347C112.997 359.178 113.571 359.094 114.153 359.094C114.59 359.094 115.045 359.151 115.517 359.265C115.995 359.38 116.437 359.579 116.845 359.862C117.253 360.14 117.583 360.531 117.837 361.033C118.09 361.53 118.217 362.161 118.217 362.927V370.705H116.89V368.893H116.808C116.648 369.231 116.412 369.559 116.099 369.877C115.786 370.195 115.393 370.456 114.921 370.66C114.449 370.864 113.894 370.966 113.258 370.966ZM113.437 369.751C114.143 369.751 114.754 369.594 115.271 369.281C115.788 368.968 116.186 368.552 116.465 368.035C116.748 367.513 116.89 366.939 116.89 366.313V364.657C116.79 364.752 116.624 364.836 116.39 364.911C116.161 364.985 115.895 365.052 115.592 365.112C115.294 365.167 114.995 365.214 114.697 365.254C114.399 365.294 114.13 365.328 113.892 365.358C113.245 365.438 112.694 365.562 112.236 365.731C111.779 365.9 111.428 366.134 111.185 366.432C110.941 366.725 110.819 367.103 110.819 367.566C110.819 368.262 111.068 368.801 111.565 369.184C112.062 369.562 112.686 369.751 113.437 369.751ZM130.854 370.966C130.163 370.966 129.531 370.832 128.959 370.563C128.388 370.29 127.933 369.897 127.595 369.385C127.257 368.868 127.088 368.242 127.088 367.506C127.088 366.939 127.194 366.462 127.408 366.074C127.622 365.686 127.925 365.368 128.318 365.119C128.711 364.871 129.176 364.675 129.713 364.53C130.25 364.386 130.841 364.274 131.487 364.195C132.129 364.115 132.671 364.046 133.113 363.986C133.561 363.926 133.901 363.832 134.135 363.703C134.368 363.573 134.485 363.365 134.485 363.076V362.808C134.485 362.027 134.252 361.413 133.784 360.966C133.322 360.513 132.656 360.287 131.786 360.287C130.96 360.287 130.287 360.469 129.765 360.831C129.248 361.194 128.885 361.622 128.676 362.114L127.416 361.659C127.674 361.033 128.032 360.533 128.49 360.16C128.947 359.782 129.459 359.512 130.026 359.347C130.593 359.178 131.167 359.094 131.748 359.094C132.186 359.094 132.641 359.151 133.113 359.265C133.59 359.38 134.033 359.579 134.441 359.862C134.848 360.14 135.179 360.531 135.432 361.033C135.686 361.53 135.813 362.161 135.813 362.927V370.705H134.485V368.893H134.403C134.244 369.231 134.008 369.559 133.695 369.877C133.382 370.195 132.989 370.456 132.517 370.66C132.044 370.864 131.49 370.966 130.854 370.966ZM131.033 369.751C131.739 369.751 132.35 369.594 132.867 369.281C133.384 368.968 133.782 368.552 134.06 368.035C134.344 367.513 134.485 366.939 134.485 366.313V364.657C134.386 364.752 134.219 364.836 133.986 364.911C133.757 364.985 133.491 365.052 133.188 365.112C132.889 365.167 132.591 365.214 132.293 365.254C131.995 365.294 131.726 365.328 131.487 365.358C130.841 365.438 130.289 365.562 129.832 365.731C129.375 365.9 129.024 366.134 128.78 366.432C128.537 366.725 128.415 367.103 128.415 367.566C128.415 368.262 128.664 368.801 129.161 369.184C129.658 369.562 130.282 369.751 131.033 369.751ZM147.04 361.764L145.824 362.107C145.705 361.764 145.536 361.453 145.317 361.175C145.098 360.896 144.813 360.675 144.46 360.511C144.112 360.347 143.679 360.265 143.162 360.265C142.386 360.265 141.75 360.449 141.253 360.817C140.756 361.184 140.507 361.659 140.507 362.241C140.507 362.733 140.676 363.133 141.014 363.442C141.357 363.745 141.884 363.986 142.595 364.165L144.325 364.59C145.285 364.824 146.003 365.194 146.481 365.701C146.963 366.208 147.204 366.845 147.204 367.61C147.204 368.257 147.025 368.831 146.667 369.333C146.309 369.835 145.809 370.23 145.168 370.519C144.532 370.802 143.793 370.944 142.953 370.944C141.835 370.944 140.912 370.693 140.186 370.191C139.461 369.683 138.996 368.953 138.792 367.998L140.067 367.685C140.231 368.366 140.552 368.881 141.029 369.229C141.511 369.577 142.145 369.751 142.931 369.751C143.811 369.751 144.514 369.554 145.041 369.161C145.568 368.764 145.832 368.267 145.832 367.67C145.832 367.208 145.678 366.82 145.369 366.507C145.061 366.188 144.594 365.955 143.967 365.806L142.096 365.358C141.101 365.119 140.365 364.742 139.888 364.225C139.411 363.708 139.172 363.066 139.172 362.301C139.172 361.669 139.344 361.115 139.687 360.638C140.03 360.155 140.502 359.778 141.104 359.504C141.705 359.231 142.391 359.094 143.162 359.094C144.211 359.094 145.049 359.333 145.675 359.81C146.307 360.282 146.761 360.933 147.04 361.764ZM160.469 370.944C159.479 370.944 158.604 370.693 157.844 370.191C157.088 369.688 156.496 368.995 156.069 368.11C155.641 367.22 155.428 366.193 155.428 365.03C155.428 363.857 155.641 362.825 156.069 361.935C156.496 361.04 157.088 360.344 157.844 359.847C158.604 359.345 159.479 359.094 160.469 359.094C161.458 359.094 162.331 359.345 163.086 359.847C163.842 360.349 164.434 361.045 164.861 361.935C165.294 362.825 165.51 363.857 165.51 365.03C165.51 366.193 165.296 367.22 164.869 368.11C164.441 368.995 163.847 369.688 163.086 370.191C162.331 370.693 161.458 370.944 160.469 370.944ZM160.469 369.728C161.264 369.728 161.938 369.514 162.49 369.087C163.042 368.659 163.459 368.09 163.742 367.379C164.031 366.668 164.175 365.885 164.175 365.03C164.175 364.175 164.031 363.389 163.742 362.673C163.459 361.958 163.042 361.383 162.49 360.951C161.938 360.518 161.264 360.302 160.469 360.302C159.678 360.302 159.005 360.518 158.448 360.951C157.896 361.383 157.476 361.958 157.187 362.673C156.904 363.389 156.762 364.175 156.762 365.03C156.762 365.885 156.904 366.668 157.187 367.379C157.476 368.09 157.896 368.659 158.448 369.087C159 369.514 159.673 369.728 160.469 369.728ZM173.137 359.251V360.406H167.507V359.251H173.137ZM169.267 370.705V357.573C169.267 356.956 169.408 356.437 169.692 356.014C169.98 355.591 170.355 355.271 170.818 355.052C171.28 354.833 171.77 354.724 172.287 354.724C172.635 354.724 172.923 354.754 173.152 354.813C173.386 354.868 173.569 354.923 173.704 354.977L173.316 356.141C173.216 356.111 173.095 356.076 172.951 356.036C172.806 355.997 172.625 355.977 172.406 355.977C171.829 355.977 171.384 356.138 171.071 356.461C170.758 356.785 170.601 357.247 170.601 357.849L170.594 370.705H169.267ZM183.02 363.546V370.705H181.692V359.251H182.983V361.048H183.102C183.37 360.461 183.788 359.991 184.355 359.638C184.926 359.28 185.632 359.101 186.473 359.101C187.243 359.101 187.919 359.263 188.501 359.586C189.088 359.904 189.543 360.374 189.866 360.996C190.194 361.617 190.358 362.38 190.358 363.285V370.705H189.03V363.367C189.03 362.427 188.767 361.684 188.24 361.137C187.718 360.59 187.017 360.317 186.137 360.317C185.535 360.317 185.001 360.446 184.534 360.705C184.066 360.963 183.696 361.336 183.423 361.823C183.154 362.306 183.02 362.88 183.02 363.546ZM198.306 370.944C197.316 370.944 196.441 370.693 195.681 370.191C194.925 369.688 194.333 368.995 193.906 368.11C193.478 367.22 193.264 366.193 193.264 365.03C193.264 363.857 193.478 362.825 193.906 361.935C194.333 361.04 194.925 360.344 195.681 359.847C196.441 359.345 197.316 359.094 198.306 359.094C199.295 359.094 200.167 359.345 200.923 359.847C201.679 360.349 202.27 361.045 202.698 361.935C203.131 362.825 203.347 363.857 203.347 365.03C203.347 366.193 203.133 367.22 202.705 368.11C202.278 368.995 201.684 369.688 200.923 370.191C200.167 370.693 199.295 370.944 198.306 370.944ZM198.306 369.728C199.101 369.728 199.775 369.514 200.327 369.087C200.878 368.659 201.296 368.09 201.579 367.379C201.868 366.668 202.012 365.885 202.012 365.03C202.012 364.175 201.868 363.389 201.579 362.673C201.296 361.958 200.878 361.383 200.327 360.951C199.775 360.518 199.101 360.302 198.306 360.302C197.515 360.302 196.841 360.518 196.285 360.951C195.733 361.383 195.313 361.958 195.024 362.673C194.741 363.389 194.599 364.175 194.599 365.03C194.599 365.885 194.741 366.668 195.024 367.379C195.313 368.09 195.733 368.659 196.285 369.087C196.837 369.514 197.51 369.728 198.306 369.728ZM208.414 370.705L204.954 359.251H206.356L209.07 368.699H209.167L211.874 359.251H213.284L215.968 368.677H216.073L218.787 359.251H220.189L216.729 370.705H215.357L212.642 361.316H212.501L209.786 370.705H208.414ZM222.27 370.817C221.977 370.817 221.723 370.713 221.509 370.504C221.3 370.29 221.196 370.036 221.196 369.743C221.196 369.445 221.3 369.191 221.509 368.982C221.723 368.774 221.977 368.669 222.27 368.669C222.568 368.669 222.822 368.774 223.031 368.982C223.239 369.191 223.344 369.445 223.344 369.743C223.344 369.937 223.294 370.116 223.195 370.28C223.1 370.444 222.971 370.576 222.807 370.675C222.648 370.77 222.469 370.817 222.27 370.817Z" fill="white"/>
<path d="M570.41 324.705L570.41 174.705" stroke="#FFE6DB"/>
<circle cx="570.41" cy="126.205" r="125.5" fill="#FFE6DB"/>
<path d="M580.981 121.762C582.275 112.03 575.806 108.901 572.7 108.693L563.089 107.599C564.1 106.672 567.096 103.743 573.07 103.965C579.044 104.188 583.347 109.619 584.382 112.099C587.339 118.982 585.565 123.361 584.899 125.169C584.735 125.615 584.308 125.934 583.864 125.864C583.273 125.656 580.981 124.057 580.759 123.639C580.46 123.077 580.856 122.702 580.981 121.762Z" fill="#242C57"/>
<path d="M566.194 140.788C566.194 139.418 565.069 138.308 563.681 138.308C562.292 138.308 561.167 139.418 561.167 140.788V145.979C561.167 147.349 562.292 148.458 563.681 148.458C565.069 148.458 566.194 147.349 566.194 145.979V140.788Z" fill="#242C57"/>
<path d="M566.194 120.905C566.194 119.535 565.069 118.425 563.681 118.425C562.292 118.425 561.167 119.535 561.167 120.905V132.631C561.167 134 562.292 135.11 563.681 135.11C565.069 135.11 566.194 134 566.194 132.631V120.905Z" fill="#242C57"/>
<path d="M553.213 143.731C551.889 143.731 550.816 144.789 550.816 146.095C550.816 147.4 551.889 148.458 553.213 148.458H563.798C565.121 148.458 566.194 147.4 566.194 146.095C566.194 144.789 565.121 143.731 563.798 143.731H553.213Z" fill="#242C57"/>
<path d="M563.564 130.383C562.24 130.383 561.167 131.441 561.167 132.747C561.167 134.052 562.24 135.11 563.564 135.11H574.148C575.472 135.11 576.545 134.052 576.545 132.747C576.545 131.441 575.472 130.383 574.148 130.383H563.564Z" fill="#242C57"/>
<path d="M574.949 143.731C573.626 143.731 572.553 144.789 572.553 146.095C572.553 147.4 573.626 148.458 574.949 148.458H587.604C588.928 148.458 590.001 147.4 590.001 146.095C590.001 144.789 588.928 143.731 587.604 143.731H574.949Z" fill="#242C57"/>
<path d="M553.213 103.965C551.889 103.965 550.816 105.023 550.816 106.329C550.816 107.634 551.889 108.693 553.213 108.693H572.818C574.141 108.693 575.214 107.634 575.214 106.329C575.214 105.023 574.141 103.965 572.818 103.965H553.213Z" fill="#242C57"/>
<path d="M550.816 145.562C550.816 146.931 551.942 148.041 553.33 148.041C554.718 148.041 555.844 146.931 555.844 145.562V106.445C555.844 105.075 554.718 103.965 553.33 103.965C551.942 103.965 550.816 105.075 550.816 106.445V145.562Z" fill="#242C57"/>
<path d="M589.922 145.414C590.085 146.8 589.04 148.021 587.633 148.173C586.169 148.33 584.865 147.272 584.661 145.834C582.81 132.82 577.204 127.751 563.583 123.151C562.295 122.716 561.568 121.354 561.972 120.072C562.354 118.864 563.613 118.138 564.856 118.451C580.944 122.503 588.311 131.714 589.922 145.414Z" fill="#242C57"/>
<path d="M461.722 370.705H457.248V355.432H461.991C463.447 355.432 464.693 355.736 465.727 356.342C466.766 356.949 467.561 357.819 468.113 358.952C468.665 360.086 468.941 361.445 468.941 363.031C468.941 364.632 468.657 366.007 468.091 367.155C467.529 368.299 466.709 369.176 465.63 369.788C464.556 370.399 463.253 370.705 461.722 370.705ZM458.642 369.452H461.64C462.953 369.452 464.051 369.194 464.936 368.677C465.821 368.16 466.485 367.421 466.927 366.462C467.37 365.502 467.591 364.359 467.591 363.031C467.586 361.714 467.367 360.58 466.935 359.631C466.507 358.681 465.871 357.953 465.026 357.446C464.186 356.939 463.146 356.685 461.909 356.685H458.642V369.452ZM475.244 370.966C474.553 370.966 473.922 370.832 473.35 370.563C472.778 370.29 472.323 369.897 471.985 369.385C471.647 368.868 471.478 368.242 471.478 367.506C471.478 366.939 471.585 366.462 471.799 366.074C472.013 365.686 472.316 365.368 472.709 365.119C473.101 364.871 473.566 364.675 474.103 364.53C474.64 364.386 475.232 364.274 475.878 364.195C476.519 364.115 477.061 364.046 477.504 363.986C477.951 363.926 478.292 363.832 478.525 363.703C478.759 363.573 478.876 363.365 478.876 363.076V362.808C478.876 362.027 478.642 361.413 478.175 360.966C477.713 360.513 477.046 360.287 476.176 360.287C475.351 360.287 474.677 360.469 474.155 360.831C473.638 361.194 473.275 361.622 473.067 362.114L471.806 361.659C472.065 361.033 472.423 360.533 472.88 360.16C473.338 359.782 473.85 359.512 474.416 359.347C474.983 359.178 475.557 359.094 476.139 359.094C476.577 359.094 477.031 359.151 477.504 359.265C477.981 359.38 478.424 359.579 478.831 359.862C479.239 360.14 479.569 360.531 479.823 361.033C480.077 361.53 480.203 362.161 480.203 362.927V370.705H478.876V368.893H478.794C478.635 369.231 478.399 369.559 478.085 369.877C477.772 370.195 477.379 370.456 476.907 370.66C476.435 370.864 475.881 370.966 475.244 370.966ZM475.423 369.751C476.129 369.751 476.741 369.594 477.258 369.281C477.775 368.968 478.172 368.552 478.451 368.035C478.734 367.513 478.876 366.939 478.876 366.313V364.657C478.777 364.752 478.61 364.836 478.376 364.911C478.148 364.985 477.882 365.052 477.578 365.112C477.28 365.167 476.982 365.214 476.683 365.254C476.385 365.294 476.117 365.328 475.878 365.358C475.232 365.438 474.68 365.562 474.223 365.731C473.765 365.9 473.415 366.134 473.171 366.432C472.927 366.725 472.806 367.103 472.806 367.566C472.806 368.262 473.054 368.801 473.551 369.184C474.049 369.562 474.672 369.751 475.423 369.751ZM488.246 359.251V360.406H482.78V359.251H488.246ZM484.488 356.506H485.822V367.715C485.822 368.192 485.905 368.567 486.069 368.841C486.233 369.109 486.446 369.301 486.71 369.415C486.973 369.524 487.254 369.579 487.553 369.579C487.727 369.579 487.876 369.569 488 369.549C488.124 369.524 488.234 369.499 488.328 369.475L488.612 370.675C488.482 370.725 488.323 370.77 488.134 370.809C487.945 370.854 487.712 370.877 487.433 370.877C486.946 370.877 486.476 370.77 486.024 370.556C485.576 370.342 485.208 370.024 484.92 369.601C484.632 369.179 484.488 368.654 484.488 368.028V356.506ZM494.46 370.966C493.769 370.966 493.138 370.832 492.566 370.563C491.994 370.29 491.539 369.897 491.201 369.385C490.863 368.868 490.694 368.242 490.694 367.506C490.694 366.939 490.801 366.462 491.015 366.074C491.228 365.686 491.532 365.368 491.924 365.119C492.317 364.871 492.782 364.675 493.319 364.53C493.856 364.386 494.448 364.274 495.094 364.195C495.735 364.115 496.277 364.046 496.72 363.986C497.167 363.926 497.508 363.832 497.741 363.703C497.975 363.573 498.092 363.365 498.092 363.076V362.808C498.092 362.027 497.858 361.413 497.391 360.966C496.928 360.513 496.262 360.287 495.392 360.287C494.567 360.287 493.893 360.469 493.371 360.831C492.854 361.194 492.491 361.622 492.282 362.114L491.022 361.659C491.281 361.033 491.639 360.533 492.096 360.16C492.553 359.782 493.065 359.512 493.632 359.347C494.199 359.178 494.773 359.094 495.355 359.094C495.792 359.094 496.247 359.151 496.72 359.265C497.197 359.38 497.639 359.579 498.047 359.862C498.455 360.14 498.785 360.531 499.039 361.033C499.292 361.53 499.419 362.161 499.419 362.927V370.705H498.092V368.893H498.01C497.851 369.231 497.614 369.559 497.301 369.877C496.988 370.195 496.595 370.456 496.123 370.66C495.651 370.864 495.096 370.966 494.46 370.966ZM494.639 369.751C495.345 369.751 495.956 369.594 496.474 369.281C496.991 368.968 497.388 368.552 497.667 368.035C497.95 367.513 498.092 366.939 498.092 366.313V364.657C497.992 364.752 497.826 364.836 497.592 364.911C497.363 364.985 497.097 365.052 496.794 365.112C496.496 365.167 496.198 365.214 495.899 365.254C495.601 365.294 495.333 365.328 495.094 365.358C494.448 365.438 493.896 365.562 493.438 365.731C492.981 365.9 492.63 366.134 492.387 366.432C492.143 366.725 492.021 367.103 492.021 367.566C492.021 368.262 492.27 368.801 492.767 369.184C493.264 369.562 493.888 369.751 494.639 369.751ZM509.155 370.705H507.693L513.249 355.432H514.74L520.296 370.705H518.834L514.047 357.244H513.942L509.155 370.705ZM510.206 364.851H517.783V366.104H510.206V364.851ZM530.069 359.251L525.885 370.705H524.469L520.285 359.251H521.724L525.125 368.953H525.229L528.63 359.251H530.069ZM535.517 370.966C534.826 370.966 534.194 370.832 533.622 370.563C533.051 370.29 532.596 369.897 532.258 369.385C531.92 368.868 531.751 368.242 531.751 367.506C531.751 366.939 531.858 366.462 532.071 366.074C532.285 365.686 532.588 365.368 532.981 365.119C533.374 364.871 533.839 364.675 534.376 364.53C534.913 364.386 535.504 364.274 536.151 364.195C536.792 364.115 537.334 364.046 537.776 363.986C538.224 363.926 538.564 363.832 538.798 363.703C539.032 363.573 539.148 363.365 539.148 363.076V362.808C539.148 362.027 538.915 361.413 538.447 360.966C537.985 360.513 537.319 360.287 536.449 360.287C535.624 360.287 534.95 360.469 534.428 360.831C533.911 361.194 533.548 361.622 533.339 362.114L532.079 361.659C532.337 361.033 532.695 360.533 533.153 360.16C533.61 359.782 534.122 359.512 534.689 359.347C535.256 359.178 535.83 359.094 536.412 359.094C536.849 359.094 537.304 359.151 537.776 359.265C538.254 359.38 538.696 359.579 539.104 359.862C539.511 360.14 539.842 360.531 540.095 361.033C540.349 361.53 540.476 362.161 540.476 362.927V370.705H539.148V368.893H539.066C538.907 369.231 538.671 369.559 538.358 369.877C538.045 370.195 537.652 370.456 537.18 370.66C536.707 370.864 536.153 370.966 535.517 370.966ZM535.696 369.751C536.402 369.751 537.013 369.594 537.53 369.281C538.047 368.968 538.445 368.552 538.723 368.035C539.007 367.513 539.148 366.939 539.148 366.313V364.657C539.049 364.752 538.882 364.836 538.649 364.911C538.42 364.985 538.154 365.052 537.851 365.112C537.553 365.167 537.254 365.214 536.956 365.254C536.658 365.294 536.389 365.328 536.151 365.358C535.504 365.438 534.952 365.562 534.495 365.731C534.038 365.9 533.687 366.134 533.443 366.432C533.2 366.725 533.078 367.103 533.078 367.566C533.078 368.262 533.327 368.801 533.824 369.184C534.321 369.562 534.945 369.751 535.696 369.751ZM544.022 370.705V359.251H545.357V370.705H544.022ZM544.7 357.282C544.427 357.282 544.193 357.19 543.999 357.006C543.806 356.817 543.709 356.591 543.709 356.327C543.709 356.064 543.806 355.84 543.999 355.656C544.193 355.467 544.427 355.373 544.7 355.373C544.974 355.373 545.208 355.467 545.401 355.656C545.595 355.84 545.692 356.064 545.692 356.327C545.692 356.591 545.595 356.817 545.401 357.006C545.208 357.19 544.974 357.282 544.7 357.282ZM550.195 355.432V370.705H548.867V355.432H550.195ZM556.906 370.966C556.215 370.966 555.584 370.832 555.012 370.563C554.44 370.29 553.985 369.897 553.647 369.385C553.309 368.868 553.14 368.242 553.14 367.506C553.14 366.939 553.247 366.462 553.461 366.074C553.675 365.686 553.978 365.368 554.371 365.119C554.764 364.871 555.228 364.675 555.765 364.53C556.302 364.386 556.894 364.274 557.54 364.195C558.182 364.115 558.723 364.046 559.166 363.986C559.613 363.926 559.954 363.832 560.188 363.703C560.421 363.573 560.538 363.365 560.538 363.076V362.808C560.538 362.027 560.304 361.413 559.837 360.966C559.375 360.513 558.708 360.287 557.838 360.287C557.013 360.287 556.34 360.469 555.818 360.831C555.3 361.194 554.938 361.622 554.729 362.114L553.468 361.659C553.727 361.033 554.085 360.533 554.542 360.16C555 359.782 555.512 359.512 556.079 359.347C556.645 359.178 557.22 359.094 557.801 359.094C558.239 359.094 558.694 359.151 559.166 359.265C559.643 359.38 560.086 359.579 560.493 359.862C560.901 360.14 561.232 360.531 561.485 361.033C561.739 361.53 561.865 362.161 561.865 362.927V370.705H560.538V368.893H560.456C560.297 369.231 560.061 369.559 559.748 369.877C559.434 370.195 559.042 370.456 558.569 370.66C558.097 370.864 557.543 370.966 556.906 370.966ZM557.085 369.751C557.791 369.751 558.403 369.594 558.92 369.281C559.437 368.968 559.835 368.552 560.113 368.035C560.396 367.513 560.538 366.939 560.538 366.313V364.657C560.439 364.752 560.272 364.836 560.038 364.911C559.81 364.985 559.544 365.052 559.24 365.112C558.942 365.167 558.644 365.214 558.346 365.254C558.047 365.294 557.779 365.328 557.54 365.358C556.894 365.438 556.342 365.562 555.885 365.731C555.427 365.9 555.077 366.134 554.833 366.432C554.59 366.725 554.468 367.103 554.468 367.566C554.468 368.262 554.716 368.801 555.213 369.184C555.711 369.562 556.335 369.751 557.085 369.751ZM565.672 370.705V355.432H567.007V361.436H567.127C567.276 361.093 567.49 360.74 567.768 360.377C568.051 360.014 568.422 359.71 568.879 359.467C569.341 359.218 569.923 359.094 570.624 359.094C571.564 359.094 572.389 359.343 573.1 359.84C573.811 360.332 574.365 361.023 574.763 361.913C575.161 362.798 575.36 363.829 575.36 365.008C575.36 366.191 575.161 367.227 574.763 368.117C574.37 369.007 573.818 369.701 573.107 370.198C572.402 370.695 571.581 370.944 570.647 370.944C569.951 370.944 569.369 370.819 568.902 370.571C568.439 370.322 568.066 370.017 567.783 369.654C567.5 369.286 567.281 368.928 567.127 368.58H566.963V370.705H565.672ZM566.985 364.985C566.985 365.91 567.122 366.73 567.395 367.446C567.674 368.157 568.071 368.716 568.588 369.124C569.11 369.527 569.742 369.728 570.482 369.728C571.243 369.728 571.887 369.519 572.414 369.102C572.941 368.679 573.341 368.11 573.615 367.394C573.888 366.678 574.025 365.875 574.025 364.985C574.025 364.105 573.888 363.312 573.615 362.606C573.346 361.9 572.948 361.341 572.421 360.928C571.894 360.511 571.248 360.302 570.482 360.302C569.737 360.302 569.103 360.503 568.581 360.906C568.064 361.304 567.669 361.856 567.395 362.562C567.122 363.263 566.985 364.07 566.985 364.985ZM579.603 355.432V370.705H578.275V355.432H579.603ZM587.746 370.944C586.677 370.944 585.753 370.695 584.972 370.198C584.192 369.696 583.588 369.002 583.16 368.117C582.737 367.227 582.526 366.203 582.526 365.045C582.526 363.892 582.737 362.867 583.16 361.972C583.588 361.073 584.177 360.369 584.927 359.862C585.683 359.35 586.556 359.094 587.545 359.094C588.166 359.094 588.765 359.208 589.342 359.437C589.919 359.661 590.436 360.006 590.893 360.474C591.356 360.936 591.721 361.52 591.99 362.226C592.258 362.927 592.392 363.757 592.392 364.717V365.373H583.443V364.202H591.035C591.035 363.466 590.886 362.805 590.588 362.219C590.294 361.627 589.884 361.16 589.357 360.817C588.835 360.474 588.231 360.302 587.545 360.302C586.819 360.302 586.18 360.496 585.628 360.884C585.077 361.271 584.644 361.784 584.331 362.42C584.023 363.056 583.866 363.752 583.861 364.508V365.209C583.861 366.119 584.018 366.914 584.331 367.595C584.649 368.271 585.099 368.796 585.681 369.169C586.262 369.542 586.951 369.728 587.746 369.728C588.288 369.728 588.763 369.644 589.171 369.475C589.583 369.306 589.929 369.079 590.207 368.796C590.491 368.508 590.704 368.192 590.849 367.849L592.109 368.259C591.935 368.741 591.649 369.186 591.251 369.594C590.859 370.002 590.366 370.33 589.775 370.578C589.188 370.822 588.512 370.944 587.746 370.944ZM603.767 370.705L600.306 359.251H601.708L604.423 368.699H604.52L607.227 359.251H608.636L611.321 368.677H611.425L614.14 359.251H615.542L612.082 370.705H610.709L607.995 361.316H607.853L605.139 370.705H603.767ZM618.137 370.705V359.251H619.472V370.705H618.137ZM618.816 357.282C618.542 357.282 618.309 357.19 618.115 357.006C617.921 356.817 617.824 356.591 617.824 356.327C617.824 356.064 617.921 355.84 618.115 355.656C618.309 355.467 618.542 355.373 618.816 355.373C619.089 355.373 619.323 355.467 619.517 355.656C619.711 355.84 619.807 356.064 619.807 356.327C619.807 356.591 619.711 356.817 619.517 357.006C619.323 357.19 619.089 357.282 618.816 357.282ZM627.494 359.251V360.406H622.028V359.251H627.494ZM623.736 356.506H625.071V367.715C625.071 368.192 625.153 368.567 625.317 368.841C625.481 369.109 625.694 369.301 625.958 369.415C626.221 369.524 626.502 369.579 626.801 369.579C626.975 369.579 627.124 369.569 627.248 369.549C627.372 369.524 627.482 369.499 627.576 369.475L627.86 370.675C627.73 370.725 627.571 370.77 627.382 370.809C627.193 370.854 626.96 370.877 626.681 370.877C626.194 370.877 625.724 370.77 625.272 370.556C624.824 370.342 624.457 370.024 624.168 369.601C623.88 369.179 623.736 368.654 623.736 368.028V356.506ZM632.082 363.546V370.705H630.755V355.432H632.082V361.048H632.202C632.47 360.456 632.885 359.984 633.447 359.631C634.014 359.278 634.73 359.101 635.595 359.101C636.37 359.101 637.051 359.26 637.638 359.579C638.225 359.897 638.682 360.367 639.01 360.988C639.338 361.61 639.502 362.375 639.502 363.285V370.705H638.168V363.367C638.168 362.422 637.904 361.679 637.377 361.137C636.855 360.59 636.149 360.317 635.259 360.317C634.648 360.317 634.103 360.446 633.626 360.705C633.149 360.963 632.771 361.336 632.492 361.823C632.219 362.306 632.082 362.88 632.082 363.546ZM649.18 370.705V355.432H654.11C655.193 355.432 656.098 355.629 656.824 356.021C657.555 356.409 658.104 356.949 658.472 357.64C658.845 358.326 659.031 359.114 659.031 360.004C659.031 360.894 658.845 361.679 658.472 362.36C658.104 363.041 657.557 363.573 656.832 363.956C656.106 364.339 655.206 364.53 654.132 364.53H649.933V363.255H654.095C654.89 363.255 655.551 363.123 656.078 362.86C656.61 362.596 657.006 362.221 657.264 361.734C657.528 361.247 657.659 360.67 657.659 360.004C657.659 359.338 657.528 358.756 657.264 358.259C657.001 357.757 656.603 357.369 656.071 357.095C655.544 356.822 654.878 356.685 654.072 356.685H650.575V370.705H649.18ZM655.914 363.814L659.673 370.705H658.062L654.341 363.814H655.914ZM662.167 370.705V359.251H663.502V370.705H662.167ZM662.846 357.282C662.572 357.282 662.339 357.19 662.145 357.006C661.951 356.817 661.854 356.591 661.854 356.327C661.854 356.064 661.951 355.84 662.145 355.656C662.339 355.467 662.572 355.373 662.846 355.373C663.119 355.373 663.353 355.467 663.547 355.656C663.741 355.84 663.838 356.064 663.838 356.327C663.838 356.591 663.741 356.817 663.547 357.006C663.353 357.19 663.119 357.282 662.846 357.282ZM671.524 359.251V360.406H666.058V359.251H671.524ZM667.766 356.506H669.101V367.715C669.101 368.192 669.183 368.567 669.347 368.841C669.511 369.109 669.725 369.301 669.988 369.415C670.252 369.524 670.533 369.579 670.831 369.579C671.005 369.579 671.154 369.569 671.278 369.549C671.403 369.524 671.512 369.499 671.606 369.475L671.89 370.675C671.761 370.725 671.602 370.77 671.413 370.809C671.224 370.854 670.99 370.877 670.712 370.877C670.224 370.877 669.755 370.77 669.302 370.556C668.855 370.342 668.487 370.024 668.198 369.601C667.91 369.179 667.766 368.654 667.766 368.028V356.506ZM677.738 370.966C677.047 370.966 676.416 370.832 675.844 370.563C675.272 370.29 674.818 369.897 674.479 369.385C674.141 368.868 673.972 368.242 673.972 367.506C673.972 366.939 674.079 366.462 674.293 366.074C674.507 365.686 674.81 365.368 675.203 365.119C675.596 364.871 676.06 364.675 676.597 364.53C677.134 364.386 677.726 364.274 678.372 364.195C679.014 364.115 679.555 364.046 679.998 363.986C680.445 363.926 680.786 363.832 681.02 363.703C681.253 363.573 681.37 363.365 681.37 363.076V362.808C681.37 362.027 681.136 361.413 680.669 360.966C680.207 360.513 679.541 360.287 678.67 360.287C677.845 360.287 677.172 360.469 676.65 360.831C676.133 361.194 675.77 361.622 675.561 362.114L674.3 361.659C674.559 361.033 674.917 360.533 675.374 360.16C675.832 359.782 676.344 359.512 676.911 359.347C677.477 359.178 678.052 359.094 678.633 359.094C679.071 359.094 679.526 359.151 679.998 359.265C680.475 359.38 680.918 359.579 681.325 359.862C681.733 360.14 682.064 360.531 682.317 361.033C682.571 361.53 682.697 362.161 682.697 362.927V370.705H681.37V368.893H681.288C681.129 369.231 680.893 369.559 680.58 369.877C680.266 370.195 679.874 370.456 679.401 370.66C678.929 370.864 678.375 370.966 677.738 370.966ZM677.917 369.751C678.623 369.751 679.235 369.594 679.752 369.281C680.269 368.968 680.667 368.552 680.945 368.035C681.228 367.513 681.37 366.939 681.37 366.313V364.657C681.271 364.752 681.104 364.836 680.87 364.911C680.642 364.985 680.376 365.052 680.072 365.112C679.774 365.167 679.476 365.214 679.178 365.254C678.879 365.294 678.611 365.328 678.372 365.358C677.726 365.438 677.174 365.562 676.717 365.731C676.259 365.9 675.909 366.134 675.665 366.432C675.422 366.725 675.3 367.103 675.3 367.566C675.3 368.262 675.548 368.801 676.045 369.184C676.543 369.562 677.167 369.751 677.917 369.751Z" fill="white"/>
</svg>
