<svg width="32" height="32" viewBox="0 0 32 32" fill="none" xmlns="http://www.w3.org/2000/svg">
<path fill-rule="evenodd" clip-rule="evenodd" d="M24 12C24.7364 12 25.3333 12.597 25.3333 13.3333V26.6667C25.3333 27.403 24.7364 28 24 28C23.2636 28 22.6667 27.403 22.6667 26.6667V13.3333C22.6667 12.597 23.2636 12 24 12Z" fill="#FFD5C3"/>
<path fill-rule="evenodd" clip-rule="evenodd" d="M16 4C16.7364 4 17.3333 4.59695 17.3333 5.33333V26.6667C17.3333 27.403 16.7364 28 16 28C15.2636 28 14.6667 27.403 14.6667 26.6667V5.33333C14.6667 4.59695 15.2636 4 16 4Z" fill="#FFD5C3"/>
<path fill-rule="evenodd" clip-rule="evenodd" d="M7.99999 17.334C8.73637 17.334 9.33332 17.9309 9.33332 18.6673V26.6673C9.33332 27.4037 8.73637 28.0007 7.99999 28.0007C7.26361 28.0007 6.66666 27.4037 6.66666 26.6673V18.6673C6.66666 17.9309 7.26361 17.334 7.99999 17.334Z" fill="#FFD5C3"/>
</svg>
