<svg width="24" height="24" viewBox="0 0 24 24" fill="none" xmlns="http://www.w3.org/2000/svg">
<path fill-rule="evenodd" clip-rule="evenodd" d="M12 3C7.02944 3 3 7.02944 3 12C3 16.9706 7.02944 21 12 21C16.9706 21 21 16.9706 21 12C21 7.02944 16.9706 3 12 3ZM1 12C1 5.92487 5.92487 1 12 1C18.0751 1 23 5.92487 23 12C23 18.0751 18.0751 23 12 23C5.92487 23 1 18.0751 1 12Z" fill="white"/>
<path fill-rule="evenodd" clip-rule="evenodd" d="M13.8087 7.13418C14.287 6.858 14.8986 7.02182 15.1747 7.50009L20.9147 17.4401C21.1909 17.9184 21.0271 18.53 20.5488 18.8061C20.0706 19.0823 19.459 18.9185 19.1828 18.4402L13.4428 8.50024C13.1666 8.02197 13.3304 7.41037 13.8087 7.13418Z" fill="white"/>
<path fill-rule="evenodd" clip-rule="evenodd" d="M8.69141 8C8.69141 7.44772 9.13912 7 9.69141 7H21.1714C21.7237 7 22.1714 7.44772 22.1714 8C22.1714 8.55228 21.7237 9 21.1714 9H9.69141C9.13912 9 8.69141 8.55228 8.69141 8Z" fill="white"/>
<path fill-rule="evenodd" clip-rule="evenodd" d="M13.6191 1.19375C14.0974 1.46994 14.2612 2.08154 13.9851 2.55981L8.24506 12.4998C7.96887 12.9781 7.35727 13.1419 6.879 12.8657C6.40073 12.5895 6.23691 11.9779 6.51309 11.4997L12.2531 1.55966C12.5293 1.08139 13.1409 0.917571 13.6191 1.19375Z" fill="white"/>
<path fill-rule="evenodd" clip-rule="evenodd" d="M3.44931 5.19375C3.92758 4.91757 4.53918 5.08139 4.81537 5.55966L10.5554 15.4997C10.8316 15.9779 10.6677 16.5895 10.1895 16.8657C9.71119 17.1419 9.09959 16.9781 8.8234 16.4998L3.0834 6.55981C2.80722 6.08154 2.97104 5.46994 3.44931 5.19375Z" fill="white"/>
<path fill-rule="evenodd" clip-rule="evenodd" d="M1.82812 16C1.82812 15.4477 2.27584 15 2.82812 15H14.3081C14.8604 15 15.3081 15.4477 15.3081 16C15.3081 16.5523 14.8604 17 14.3081 17H2.82812C2.27584 17 1.82812 16.5523 1.82812 16Z" fill="white"/>
<path fill-rule="evenodd" clip-rule="evenodd" d="M17.1191 11.1342C17.5974 11.4104 17.7612 12.022 17.4851 12.5002L11.7451 22.4402C11.4689 22.9185 10.8573 23.0823 10.379 22.8061C9.90073 22.53 9.73691 21.9184 10.0131 21.4401L15.7531 11.5001C16.0293 11.0218 16.6409 10.858 17.1191 11.1342Z" fill="white"/>
</svg>
