<svg width="65" height="65" viewBox="0 0 65 65" fill="none" xmlns="http://www.w3.org/2000/svg">
<path fill-rule="evenodd" clip-rule="evenodd" d="M4.23862 41.6709C6.7391 39.1704 10.1305 37.7656 13.6667 37.7656H32.3334C35.8696 37.7656 39.261 39.1704 41.7615 41.6709C44.2619 44.1714 45.6667 47.5627 45.6667 51.099V56.4323C45.6667 57.9051 44.4728 59.099 43 59.099C41.5273 59.099 40.3334 57.9051 40.3334 56.4323V51.099C40.3334 48.9772 39.4905 46.9424 37.9902 45.4421C36.4899 43.9418 34.4551 43.099 32.3334 43.099H13.6667C11.545 43.099 9.51014 43.9418 8.00985 45.4421C6.50956 46.9424 5.66671 48.9772 5.66671 51.099V56.4323C5.66671 57.9051 4.4728 59.099 3.00004 59.099C1.52728 59.099 0.333374 57.9051 0.333374 56.4323V51.099C0.333374 47.5627 1.73813 44.1714 4.23862 41.6709Z" fill="#037B55"/>
<path fill-rule="evenodd" clip-rule="evenodd" d="M23.0001 11.099C18.5818 11.099 15.0001 14.6807 15.0001 19.099C15.0001 23.5172 18.5818 27.099 23.0001 27.099C27.4184 27.099 31.0001 23.5172 31.0001 19.099C31.0001 14.6807 27.4184 11.099 23.0001 11.099ZM9.66675 19.099C9.66675 11.7352 15.6363 5.76562 23.0001 5.76562C30.3639 5.76562 36.3334 11.7352 36.3334 19.099C36.3334 26.4628 30.3639 32.4323 23.0001 32.4323C15.6363 32.4323 9.66675 26.4628 9.66675 19.099Z" fill="#037B55"/>
<path fill-rule="evenodd" clip-rule="evenodd" d="M63.5523 22.5467C64.5937 23.5881 64.5937 25.2765 63.5523 26.3179L52.8856 36.9846C51.8442 38.026 50.1558 38.026 49.1144 36.9846L43.781 31.6512C42.7397 30.6098 42.7397 28.9214 43.781 27.88C44.8224 26.8386 46.5109 26.8386 47.5523 27.88L51 31.3277L59.781 22.5467C60.8224 21.5053 62.5109 21.5053 63.5523 22.5467Z" fill="#037B55"/>
</svg>
