<svg width="40" height="41" viewBox="0 0 40 41" fill="none" xmlns="http://www.w3.org/2000/svg">
<path d="M15.5815 28.4277H12.2643V17.7454H15.5815V28.4277ZM13.9211 16.2882C12.8604 16.2882 12 15.4096 12 14.3488C12 13.2878 12.8601 12.4277 13.9211 12.4277C14.9821 12.4277 15.8422 13.2878 15.8422 14.3488C15.8422 15.4096 14.9815 16.2882 13.9211 16.2882ZM27.9968 28.4277H24.6867V23.2276C24.6867 21.9883 24.6617 20.399 22.962 20.399C21.2373 20.399 20.9731 21.7454 20.9731 23.1383V28.4277H17.6594V17.7454H20.8409V19.2025H20.8873C21.3302 18.3632 22.412 17.4775 24.026 17.4775C27.3832 17.4775 28.0004 19.6883 28.0004 22.5597V28.4277H27.9968Z" fill="white"/>
<rect x="0.5" y="0.927734" width="39.0004" height="39" rx="19.5" stroke="white"/>
</svg>
