<svg width="56" height="56" viewBox="0 0 56 56" fill="none" xmlns="http://www.w3.org/2000/svg">
<rect width="56" height="56" rx="12" fill="#FF6322" fill-opacity="0.16"/>
<path d="M36 40C38.2091 40 40 38.2091 40 36C40 33.7909 38.2091 32 36 32C33.7909 32 32 33.7909 32 36C32 38.2091 33.7909 40 36 40Z" stroke="#FF6322" stroke-width="2" stroke-linecap="round" stroke-linejoin="round"/>
<path d="M20 24C22.2091 24 24 22.2091 24 20C24 17.7909 22.2091 16 20 16C17.7909 16 16 17.7909 16 20C16 22.2091 17.7909 24 20 24Z" stroke="#FF6322" stroke-width="2" stroke-linecap="round" stroke-linejoin="round"/>
<path d="M29.334 20H33.334C34.0412 20 34.7195 20.281 35.2196 20.781C35.7197 21.2811 36.0007 21.9594 36.0007 22.6667V32" stroke="#FF6322" stroke-width="2" stroke-linecap="round" stroke-linejoin="round"/>
<path d="M20 24V40" stroke="#FF6322" stroke-width="2" stroke-linecap="round" stroke-linejoin="round"/>
</svg>
