<svg width="25" height="28" viewBox="0 0 25 28" fill="none" xmlns="http://www.w3.org/2000/svg">
<path d="M24.2868 7.23889C22.7268 7.23889 21.2843 6.72066 20.1303 5.84982C18.8053 4.85076 17.849 3.38155 17.5124 1.69329C17.4269 1.27657 17.3842 0.843825 17.3789 0.400391H12.9178V12.5868L12.9125 19.2597C12.9125 21.0441 11.7478 22.5561 10.1397 23.0903C9.66953 23.2453 9.16733 23.32 8.64376 23.288C7.97059 23.2506 7.34551 23.0476 6.79523 22.7217C5.63055 22.0271 4.84519 20.7663 4.82382 19.3185C4.79176 17.0639 6.61358 15.2207 8.86815 15.2207C9.31158 15.2207 9.73898 15.2955 10.1397 15.4237V12.0953V10.9039C9.71761 10.8398 9.29021 10.8077 8.85212 10.8077C6.38385 10.8077 4.07586 11.8335 2.425 13.682C1.18018 15.0764 0.432223 16.8609 0.314686 18.7308C0.165094 21.183 1.06265 23.5177 2.80432 25.238C3.06077 25.4891 3.3279 25.7242 3.61105 25.9433C5.10163 27.0919 6.92879 27.717 8.85212 27.717C9.28487 27.717 9.71761 27.6849 10.1397 27.6208C11.9348 27.3537 13.591 26.5309 14.8999 25.238C16.508 23.6513 17.3949 21.541 17.4056 19.2971L17.3842 9.32784C18.1482 9.92086 18.987 10.407 19.8899 10.7864C21.2896 11.3794 22.7749 11.6732 24.2975 11.6732V8.43563V7.23355C24.3028 7.23889 24.2868 7.23889 24.2868 7.23889Z" fill="white"/>
</svg>
