<svg xmlns="http://www.w3.org/2000/svg" width="48" height="57" viewBox="0 0 48 57" fill="none">
  <g clip-path="url(#clip0_2332_21740)">
    <path d="M36.8111 22.9064C38.3901 10.4765 30.4954 6.48119 26.7059 6.21484L14.9766 4.81839C16.2096 3.63459 19.8668 -0.106661 27.157 0.177452C34.4472 0.461565 39.6984 7.39864 40.9615 10.5653C44.5705 19.355 42.4051 24.9485 41.5931 27.2569C41.3928 27.8264 40.8713 28.2335 40.3299 28.1447C39.6081 27.8784 36.8111 25.8363 36.5405 25.3036C36.1752 24.5848 36.6588 24.1057 36.8111 22.9064Z" fill="#1A0B5C"/>
    <path d="M18.7682 47.0558C18.7682 45.3886 17.3947 44.0371 15.7005 44.0371C14.0063 44.0371 12.6328 45.3886 12.6328 47.0558V53.981C12.6328 55.6482 14.0063 56.9997 15.7005 56.9997C17.3947 56.9997 18.7682 55.6482 18.7682 53.981V47.0558Z" fill="#1A0B5C"/>
    <path d="M18.7682 21.6632C18.7682 19.996 17.3947 18.6445 15.7005 18.6445C14.0063 18.6445 12.6328 19.996 12.6328 21.6632V36.9343C12.6328 38.6014 14.0063 39.9529 15.7005 39.9529C17.3947 39.9529 18.7682 38.6014 18.7682 36.9343V21.6632Z" fill="#1A0B5C"/>
    <path d="M3.06767 50.9626C1.37344 50.9626 0 52.3141 0 53.9813C0 55.6485 1.37344 57 3.06767 57H15.6992C17.3935 57 18.7669 55.6485 18.7669 53.9813C18.7669 52.3141 17.3935 50.9626 15.6992 50.9626H3.06767Z" fill="#1A0B5C"/>
    <path d="M15.7005 33.9157C14.0063 33.9157 12.6328 35.2673 12.6328 36.9344C12.6328 38.6016 14.0063 39.9531 15.7005 39.9531H28.3321C30.0263 39.9531 31.3997 38.6016 31.3997 36.9344C31.3997 35.2673 30.0263 33.9157 28.3321 33.9157H15.7005Z" fill="#1A0B5C"/>
    <path d="M29.5911 50.9626C27.8969 50.9626 26.5234 52.3141 26.5234 53.9813C26.5234 55.6485 27.8969 57 29.5911 57H44.749C46.4432 57 47.8167 55.6485 47.8167 53.9813C47.8167 52.3141 46.4432 50.9626 44.749 50.9626H29.5911Z" fill="#1A0B5C"/>
    <path d="M3.06767 0.177461C1.37344 0.177461 0 1.52898 0 3.19615C0 4.86333 1.37344 6.21484 3.06767 6.21484H26.7068C28.401 6.21484 29.7744 4.86333 29.7744 3.19615C29.7744 1.52898 28.401 0.177461 26.7068 0.177461H3.06767Z" fill="#1A0B5C"/>
    <path d="M-0.00252628 53.4481C-0.00252628 55.1153 1.37092 56.4668 3.06514 56.4668C4.75937 56.4668 6.13281 55.1153 6.13281 53.4481V3.19577C6.13281 1.52859 4.75937 0.177074 3.06514 0.177074C1.37092 0.177074 -0.00252628 1.52859 -0.00252628 3.19577V53.4481Z" fill="#1A0B5C"/>
    <path d="M47.7416 53.2831C47.9255 54.9618 46.6623 56.4394 44.9576 56.631C43.1609 56.833 41.555 55.5347 41.3185 53.7705C39.0792 37.0725 32.254 30.5786 15.6195 24.693C14.0136 24.1248 13.1062 22.4285 13.5919 20.8186C14.0665 19.2454 15.7094 18.2973 17.319 18.7263C36.8878 23.9432 45.8218 35.748 47.7416 53.2831Z" fill="#1A0B5C"/>
  </g>
  <defs>
    <clipPath id="clip0_2332_21740">
      <rect width="48" height="57" fill="white"/>
    </clipPath>
  </defs>
</svg>