<svg width="85" height="74" viewBox="0 0 85 74" fill="none" xmlns="http://www.w3.org/2000/svg">
<path d="M77.86 7.44047C75.817 5.39648 73.3912 3.77505 70.7214 2.6688C68.0516 1.56255 65.1899 0.993164 62.3 0.993164C59.41 0.993164 56.5484 1.56255 53.8786 2.6688C51.2087 3.77505 48.783 5.39648 46.74 7.44047L42.5 11.6805L38.26 7.44047C34.1332 3.3137 28.5361 0.995303 22.7 0.995303C16.8639 0.995303 11.2668 3.3137 7.13999 7.44047C3.01322 11.5672 0.694824 17.1643 0.694824 23.0005C0.694824 28.8366 3.01322 34.4337 7.13999 38.5605L11.38 42.8005L42.5 73.9205L73.62 42.8005L77.86 38.5605C79.904 36.5174 81.5254 34.0917 82.6316 31.4219C83.7379 28.7521 84.3073 25.8904 84.3073 23.0005C84.3073 20.1105 83.7379 17.2489 82.6316 14.579C81.5254 11.9092 79.904 9.48349 77.86 7.44047V7.44047Z" fill="#FF5549"/>
</svg>
