<svg width="32" height="32" viewBox="0 0 32 32" fill="none" xmlns="http://www.w3.org/2000/svg">
<path fill-rule="evenodd" clip-rule="evenodd" d="M26.6666 7.99935C28.1394 7.99935 29.3333 6.80544 29.3333 5.33268C29.3333 3.85992 28.1394 2.66602 26.6666 2.66602C25.6796 2.66602 24.8178 3.20228 24.3567 3.99935H18.6666C16.4575 3.99935 14.6666 5.79021 14.6666 7.99935V9.33268C14.6666 10.0691 15.2636 10.666 16 10.666C16.7363 10.666 17.3333 10.0691 17.3333 9.33268V7.99935C17.3333 7.26297 17.9302 6.66602 18.6666 6.66602H24.3567C24.8178 7.46308 25.6796 7.99935 26.6666 7.99935ZM7.64321 17.3327C7.18213 18.1298 6.32033 18.666 5.33329 18.666C3.86053 18.666 2.66663 17.4721 2.66663 15.9993C2.66663 14.5266 3.86053 13.3327 5.33329 13.3327C6.32034 13.3327 7.18213 13.8689 7.64321 14.666H13.69C14.1511 13.8689 15.0129 13.3327 16 13.3327C16.987 13.3327 17.8488 13.8689 18.3099 14.666H24.3567C24.8178 13.8689 25.6796 13.3327 26.6666 13.3327C28.1394 13.3327 29.3333 14.5266 29.3333 15.9993C29.3333 17.4721 28.1394 18.666 26.6666 18.666C25.6796 18.666 24.8178 18.1298 24.3567 17.3327H18.3099C17.8488 18.1298 16.987 18.666 16 18.666C15.0129 18.666 14.1511 18.1298 13.69 17.3327H7.64321ZM7.64321 27.9993C7.18213 28.7964 6.32034 29.3327 5.33329 29.3327C3.86053 29.3327 2.66663 28.1388 2.66663 26.666C2.66663 25.1933 3.86053 23.9993 5.33329 23.9993C6.32034 23.9993 7.18213 24.5356 7.64321 25.3327H13.3333C14.0697 25.3327 14.6666 24.7357 14.6666 23.9993V22.666C14.6666 21.9296 15.2636 21.3327 16 21.3327C16.7363 21.3327 17.3333 21.9296 17.3333 22.666V23.9993C17.3333 26.2085 15.5424 27.9993 13.3333 27.9993H7.64321Z" fill="#FFD5C3"/>
</svg>
