<svg width="40" height="40" viewBox="0 0 40 40" fill="none" xmlns="http://www.w3.org/2000/svg">
<path fill-rule="evenodd" clip-rule="evenodd" d="M3.33334 5.00065C3.33334 4.08018 4.07954 3.33398 5.00001 3.33398H16.6667C17.5872 3.33398 18.3333 4.08018 18.3333 5.00065V20.0006C18.3333 20.9211 17.5872 21.6673 16.6667 21.6673H5.00001C4.07954 21.6673 3.33334 20.9211 3.33334 20.0006V5.00065ZM6.66668 6.66732V18.334H15V6.66732H6.66668Z" fill="#FFD5C3"/>
<path fill-rule="evenodd" clip-rule="evenodd" d="M21.6667 5.00065C21.6667 4.08018 22.4128 3.33398 23.3333 3.33398H35C35.9205 3.33398 36.6667 4.08018 36.6667 5.00065V13.334C36.6667 14.2545 35.9205 15.0007 35 15.0007H23.3333C22.4128 15.0007 21.6667 14.2545 21.6667 13.334V5.00065ZM25 6.66732V11.6673H33.3333V6.66732H25Z" fill="#FFD5C3"/>
<path fill-rule="evenodd" clip-rule="evenodd" d="M21.6667 20.0007C21.6667 19.0802 22.4128 18.334 23.3333 18.334H35C35.9205 18.334 36.6667 19.0802 36.6667 20.0007V35.0007C36.6667 35.9211 35.9205 36.6673 35 36.6673H23.3333C22.4128 36.6673 21.6667 35.9211 21.6667 35.0007V20.0007ZM25 21.6673V33.334H33.3333V21.6673H25Z" fill="#FFD5C3"/>
<path fill-rule="evenodd" clip-rule="evenodd" d="M3.33334 26.6667C3.33334 25.7462 4.07954 25 5.00001 25H16.6667C17.5872 25 18.3333 25.7462 18.3333 26.6667V35C18.3333 35.9205 17.5872 36.6667 16.6667 36.6667H5.00001C4.07954 36.6667 3.33334 35.9205 3.33334 35V26.6667ZM6.66668 28.3333V33.3333H15V28.3333H6.66668Z" fill="#FFD5C3"/>
</svg>
