<svg width="64" height="65" viewBox="0 0 64 65" fill="none" xmlns="http://www.w3.org/2000/svg">
<path fill-rule="evenodd" clip-rule="evenodd" d="M41.768 10.4951C37.0406 8.38867 31.759 7.86684 26.7108 9.00741C21.6627 10.148 17.1184 12.8898 13.7558 16.824C10.3933 20.7582 8.39251 25.674 8.05199 30.8382C7.71146 36.0024 9.0494 41.1383 11.8663 45.48C14.6831 49.8217 18.828 53.1365 23.6827 54.9301C28.5374 56.7236 33.8418 56.8998 38.8048 55.4324C43.7678 53.965 48.1236 50.9326 51.2224 46.7874C54.3212 42.6423 55.997 37.6065 56 32.4311V29.9793C56 28.5065 57.1939 27.3126 58.6666 27.3126C60.1394 27.3126 61.3333 28.5065 61.3333 29.9793V32.4326C61.3297 38.7581 59.2814 44.9145 55.494 49.9808C51.7066 55.0471 46.3829 58.7534 40.317 60.5469C34.2511 62.3404 27.7679 62.125 21.8344 59.9329C15.9009 57.7408 10.8349 53.6893 7.39211 48.3828C3.94927 43.0763 2.31401 36.7991 2.73021 30.4873C3.14641 24.1755 5.59177 18.1673 9.70158 13.3589C13.8114 8.55038 19.3655 5.19923 25.5354 3.8052C31.7054 2.41118 38.1607 3.04896 43.9386 5.62344C45.2839 6.22286 45.8885 7.79932 45.2891 9.14458C44.6897 10.4898 43.1132 11.0945 41.768 10.4951Z" fill="#037B55"/>
<path fill-rule="evenodd" clip-rule="evenodd" d="M60.5514 9.21272C61.5933 10.2536 61.5941 11.942 60.5533 12.984L33.8866 39.6773C33.3866 40.1778 32.7082 40.4591 32.0007 40.4593C31.2932 40.4595 30.6147 40.1785 30.1144 39.6782L22.1144 31.6782C21.073 30.6368 21.073 28.9484 22.1144 27.907C23.1558 26.8656 24.8443 26.8656 25.8857 27.907L31.9991 34.0204L56.7801 9.21461C57.821 8.17269 59.5095 8.17185 60.5514 9.21272Z" fill="#037B55"/>
</svg>
