<svg width="24" height="25" viewBox="0 0 24 25" fill="none" xmlns="http://www.w3.org/2000/svg">
<path fill-rule="evenodd" clip-rule="evenodd" d="M3 12.2139C3 11.6616 3.44772 11.2139 4 11.2139H20C20.5523 11.2139 21 11.6616 21 12.2139C21 12.7662 20.5523 13.2139 20 13.2139H4C3.44772 13.2139 3 12.7662 3 12.2139Z" fill="#1A1B1F"/>
<path fill-rule="evenodd" clip-rule="evenodd" d="M3 6.21387C3 5.66158 3.44772 5.21387 4 5.21387H20C20.5523 5.21387 21 5.66158 21 6.21387C21 6.76615 20.5523 7.21387 20 7.21387H4C3.44772 7.21387 3 6.76615 3 6.21387Z" fill="#1A1B1F"/>
<path fill-rule="evenodd" clip-rule="evenodd" d="M3 18.2139C3 17.6616 3.44772 17.2139 4 17.2139H20C20.5523 17.2139 21 17.6616 21 18.2139C21 18.7662 20.5523 19.2139 20 19.2139H4C3.44772 19.2139 3 18.7662 3 18.2139Z" fill="#1A1B1F"/>
</svg>
