<svg width="56" height="56" viewBox="0 0 56 56" fill="none" xmlns="http://www.w3.org/2000/svg">
<rect width="56" height="56" rx="12" fill="#2DA882" fill-opacity="0.16"/>
<path fill-rule="evenodd" clip-rule="evenodd" d="M27.5318 13.4182C27.8337 13.305 28.1663 13.305 28.4682 13.4182L39.1348 17.4182C39.6552 17.6134 40 18.1109 40 18.6667V28C40 32.5953 36.9577 36.2671 34.2113 38.6701C32.8102 39.8961 31.4153 40.8545 30.3733 41.5057C29.851 41.8321 29.4138 42.0836 29.1041 42.2551C28.9492 42.3408 28.8259 42.4067 28.7396 42.452C28.6964 42.4747 28.6624 42.4922 28.6383 42.5046L28.6097 42.5192L28.601 42.5235L28.5982 42.525C28.5977 42.5252 28.5963 42.5259 28 41.3333C27.4037 42.5259 27.4033 42.5257 27.4029 42.5255L27.399 42.5235L27.3903 42.5192L27.3617 42.5046C27.3376 42.4922 27.3036 42.4747 27.2604 42.452C27.1741 42.4067 27.0508 42.3408 26.8959 42.2551C26.5862 42.0836 26.149 41.8321 25.6267 41.5057C24.5847 40.8545 23.1898 39.8961 21.7887 38.6701C19.0423 36.2671 16 32.5953 16 28V18.6667C16 18.1109 16.3448 17.6134 16.8652 17.4182L27.5318 13.4182ZM28 41.3333L27.4029 42.5255C27.7783 42.7132 28.2209 42.7136 28.5963 42.5259L28 41.3333ZM28 39.817C28.2555 39.6722 28.5823 39.4804 28.96 39.2443C29.9181 38.6456 31.1898 37.7705 32.4553 36.6632C35.0423 34.3996 37.3333 31.4048 37.3333 28V19.5907L28 16.0907L18.6667 19.5907V28C18.6667 31.4048 20.9577 34.3996 23.5447 36.6632C24.8102 37.7705 26.0819 38.6456 27.04 39.2443C27.4177 39.4804 27.7445 39.6722 28 39.817Z" fill="#2DA882"/>
<path fill-rule="evenodd" clip-rule="evenodd" d="M32.9422 24.3905C33.4629 24.9112 33.4629 25.7554 32.9422 26.2761L27.6088 31.6095C27.0881 32.1302 26.2439 32.1302 25.7232 31.6095L23.0565 28.9428C22.5358 28.4221 22.5358 27.5779 23.0565 27.0572C23.5772 26.5365 24.4215 26.5365 24.9422 27.0572L26.666 28.781L31.0565 24.3905C31.5772 23.8698 32.4215 23.8698 32.9422 24.3905Z" fill="#2DA882"/>
</svg>
