<svg width="80" height="88" viewBox="0 0 80 70" fill="none" xmlns="http://www.w3.org/2000/svg">
    <g clip-path="url(#clip0_8204_49682)" filter="url(#filter0_ddd_8204_49682)">
        <path
            d="M50.938 29.2881C52.2649 19.1761 45.6299 15.9259 42.4452 15.7092L32.5875 14.5731C33.6238 13.6101 36.6974 10.5665 42.8243 10.7976C48.9512 11.0288 53.3644 16.6722 54.426 19.2484C57.4593 26.399 55.6392 30.9493 54.9569 32.8273C54.7884 33.2907 54.3503 33.6217 53.8953 33.5496C53.2887 33.333 50.938 31.6717 50.7104 31.2383C50.4036 30.6536 50.81 30.2638 50.938 29.2881Z"
            fill="white" />
        <path
            d="M35.7723 49.0543C35.7723 47.6317 34.618 46.4785 33.1941 46.4785C31.7703 46.4785 30.616 47.6317 30.616 49.0543V54.4481C30.616 55.8707 31.7703 57.0239 33.1941 57.0239C34.618 57.0239 35.7723 55.8707 35.7723 54.4481V49.0543Z"
            fill="white" />
        <path
            d="M35.7723 28.3961C35.7723 26.9735 34.618 25.8203 33.1941 25.8203C31.7703 25.8203 30.616 26.9735 30.616 28.3961V40.5793C30.616 42.0019 31.7703 43.1551 33.1941 43.1551C34.618 43.1551 35.7723 42.0019 35.7723 40.5793V28.3961Z"
            fill="white" />
        <path
            d="M22.458 52.1119C21.1005 52.1119 20 53.2114 20 54.5677C20 55.924 21.1005 57.0234 22.458 57.0234H33.3142C34.6718 57.0234 35.7723 55.924 35.7723 54.5677C35.7723 53.2114 34.6718 52.1119 33.3142 52.1119H22.458Z"
            fill="white" />
        <path
            d="M33.074 38.2447C31.7165 38.2447 30.616 39.3442 30.616 40.7005C30.616 42.0568 31.7165 43.1562 33.074 43.1562H43.9302C45.2878 43.1562 46.3883 42.0568 46.3883 40.7005C46.3883 39.3442 45.2878 38.2447 43.9302 38.2447H33.074Z"
            fill="white" />
        <path
            d="M44.7515 52.1119C43.394 52.1119 42.2935 53.2114 42.2935 54.5677C42.2935 55.924 43.394 57.0234 44.7515 57.0234H57.7309C59.0885 57.0234 60.189 55.924 60.189 54.5677C60.189 53.2114 59.0885 52.1119 57.7309 52.1119H44.7515Z"
            fill="white" />
        <path
            d="M22.458 10.7975C21.1005 10.7975 20 11.8969 20 13.2532C20 14.6095 21.1005 15.709 22.458 15.709L42.5653 15.709C43.9228 15.709 45.0233 14.6095 45.0233 13.2532C45.0233 11.8969 43.9228 10.7975 42.5653 10.7975L22.458 10.7975Z"
            fill="white" />
        <path
            d="M20.0001 54.0141C20.0001 55.4366 21.1543 56.5898 22.5782 56.5898C24.0021 56.5898 25.1564 55.4366 25.1564 54.0141L25.1564 13.3729C25.1564 11.9503 24.0021 10.7971 22.5782 10.7971C21.1543 10.7971 20.0001 11.9503 20.0001 13.3729L20.0001 54.0141Z"
            fill="white" />
        <path
            d="M60.1081 53.8598C60.2754 55.3003 59.2034 56.569 57.7605 56.7261C56.2594 56.8894 54.9217 55.7909 54.7119 54.2969C52.8143 40.7754 47.0643 35.5091 33.094 30.7298C31.773 30.2779 31.0268 28.8626 31.4419 27.5307C31.8329 26.2761 33.1248 25.5219 34.3992 25.847C50.9005 30.0565 58.4561 39.6267 60.1081 53.8598Z"
            fill="white" />
    </g>
    <defs>
        <filter id="filter0_ddd_8204_49682" x="0" y="0.785156" width="80" height="86.4277" filterUnits="userSpaceOnUse"
            color-interpolation-filters="sRGB">
            <feFlood flood-opacity="0" result="BackgroundImageFix" />
            <feColorMatrix in="SourceAlpha" type="matrix" values="0 0 0 0 0 0 0 0 0 0 0 0 0 0 0 0 0 0 127 0"
                result="hardAlpha" />
            <feOffset />
            <feGaussianBlur stdDeviation="0.5" />
            <feColorMatrix type="matrix" values="0 0 0 0 0 0 0 0 0 0 0 0 0 0 0 0 0 0 0.04 0" />
            <feBlend mode="normal" in2="BackgroundImageFix" result="effect1_dropShadow_8204_49682" />
            <feColorMatrix in="SourceAlpha" type="matrix" values="0 0 0 0 0 0 0 0 0 0 0 0 0 0 0 0 0 0 127 0"
                result="hardAlpha" />
            <feOffset dy="2" />
            <feGaussianBlur stdDeviation="3" />
            <feColorMatrix type="matrix" values="0 0 0 0 0 0 0 0 0 0 0 0 0 0 0 0 0 0 0.04 0" />
            <feBlend mode="normal" in2="effect1_dropShadow_8204_49682" result="effect2_dropShadow_8204_49682" />
            <feColorMatrix in="SourceAlpha" type="matrix" values="0 0 0 0 0 0 0 0 0 0 0 0 0 0 0 0 0 0 127 0"
                result="hardAlpha" />
            <feOffset dy="10" />
            <feGaussianBlur stdDeviation="10" />
            <feColorMatrix type="matrix" values="0 0 0 0 0 0 0 0 0 0 0 0 0 0 0 0 0 0 0.04 0" />
            <feBlend mode="normal" in2="effect2_dropShadow_8204_49682" result="effect3_dropShadow_8204_49682" />
            <feBlend mode="normal" in="SourceGraphic" in2="effect3_dropShadow_8204_49682" result="shape" />
        </filter>
        <clipPath id="clip0_8204_49682">
            <rect width="40" height="46.428" fill="white" transform="translate(20 10.7852)" />
        </clipPath>
    </defs>
</svg>