<svg width="80" height="87" viewBox="0 0 80 87" fill="none" xmlns="http://www.w3.org/2000/svg">
<g clip-path="url(#clip0_409_5726)" filter="url(#filter0_ddd_409_5726)">
<path d="M50.9379 28.5029C52.2648 18.391 45.6298 15.1407 42.4451 14.924L32.5874 13.788C33.6237 12.8249 36.6973 9.78135 42.8241 10.0125C48.951 10.2436 53.3643 15.887 54.4259 18.4632C57.4591 25.6138 55.6391 30.1642 54.9568 32.0421C54.7883 32.5055 54.3502 32.8366 53.8952 32.7644C53.2886 32.5478 50.9379 30.8866 50.7103 30.4531C50.4035 29.8684 50.8099 29.4786 50.9379 28.5029Z" fill="white"/>
<path d="M35.7721 48.2691C35.7721 46.8466 34.6178 45.6934 33.1939 45.6934C31.77 45.6934 30.6157 46.8466 30.6157 48.2691V53.6629C30.6157 55.0855 31.77 56.2387 33.1939 56.2387C34.6178 56.2387 35.7721 55.0855 35.7721 53.6629V48.2691Z" fill="white"/>
<path d="M35.7721 27.6119C35.7721 26.1893 34.6178 25.0361 33.1939 25.0361C31.77 25.0361 30.6157 26.1893 30.6157 27.6119V39.7951C30.6157 41.2177 31.77 42.3709 33.1939 42.3709C34.6178 42.3709 35.7721 41.2177 35.7721 39.7951V27.6119Z" fill="white"/>
<path d="M22.458 51.3268C21.1005 51.3268 20 52.4262 20 53.7825C20 55.1388 21.1005 56.2383 22.458 56.2383H33.3142C34.6718 56.2383 35.7723 55.1388 35.7723 53.7825C35.7723 52.4262 34.6718 51.3268 33.3142 51.3268H22.458Z" fill="white"/>
<path d="M33.0738 37.4595C31.7162 37.4595 30.6157 38.559 30.6157 39.9153C30.6157 41.2716 31.7162 42.3711 33.0738 42.3711H43.93C45.2875 42.3711 46.388 41.2716 46.388 39.9153C46.388 38.559 45.2875 37.4595 43.93 37.4595H33.0738Z" fill="white"/>
<path d="M44.7515 51.3268C43.394 51.3268 42.2935 52.4262 42.2935 53.7825C42.2935 55.1388 43.394 56.2383 44.7515 56.2383H57.7309C59.0885 56.2383 60.189 55.1388 60.189 53.7825C60.189 52.4262 59.0885 51.3268 57.7309 51.3268H44.7515Z" fill="white"/>
<path d="M22.458 10.0123C21.1005 10.0123 20 11.1118 20 12.4681C20 13.8243 21.1005 14.9238 22.458 14.9238L42.5653 14.9238C43.9228 14.9238 45.0233 13.8243 45.0233 12.4681C45.0233 11.1118 43.9228 10.0123 42.5653 10.0123L22.458 10.0123Z" fill="white"/>
<path d="M19.9999 53.2299C19.9999 54.6525 21.1542 55.8057 22.5781 55.8057C24.002 55.8057 25.1562 54.6525 25.1562 53.2299L25.1562 12.5887C25.1562 11.1662 24.002 10.013 22.5781 10.013C21.1542 10.013 19.9999 11.1662 19.9999 12.5887L19.9999 53.2299Z" fill="white"/>
<path d="M60.1083 53.0756C60.2755 54.5161 59.2035 55.7848 57.7607 55.9419C56.2595 56.1052 54.9218 55.0067 54.712 53.5127C52.8144 39.9912 47.0645 34.7249 33.0941 29.9456C31.7732 29.4937 31.0269 28.0784 31.442 26.7465C31.8331 25.4919 33.125 24.7378 34.3993 25.0629C50.9006 29.2723 58.4563 38.8425 60.1083 53.0756Z" fill="white"/>
</g>
<defs>
<filter id="filter0_ddd_409_5726" x="0" y="0" width="80" height="86.4277" filterUnits="userSpaceOnUse" color-interpolation-filters="sRGB">
<feFlood flood-opacity="0" result="BackgroundImageFix"/>
<feColorMatrix in="SourceAlpha" type="matrix" values="0 0 0 0 0 0 0 0 0 0 0 0 0 0 0 0 0 0 127 0" result="hardAlpha"/>
<feOffset/>
<feGaussianBlur stdDeviation="0.5"/>
<feColorMatrix type="matrix" values="0 0 0 0 0 0 0 0 0 0 0 0 0 0 0 0 0 0 0.04 0"/>
<feBlend mode="normal" in2="BackgroundImageFix" result="effect1_dropShadow_409_5726"/>
<feColorMatrix in="SourceAlpha" type="matrix" values="0 0 0 0 0 0 0 0 0 0 0 0 0 0 0 0 0 0 127 0" result="hardAlpha"/>
<feOffset dy="2"/>
<feGaussianBlur stdDeviation="3"/>
<feColorMatrix type="matrix" values="0 0 0 0 0 0 0 0 0 0 0 0 0 0 0 0 0 0 0.04 0"/>
<feBlend mode="normal" in2="effect1_dropShadow_409_5726" result="effect2_dropShadow_409_5726"/>
<feColorMatrix in="SourceAlpha" type="matrix" values="0 0 0 0 0 0 0 0 0 0 0 0 0 0 0 0 0 0 127 0" result="hardAlpha"/>
<feOffset dy="10"/>
<feGaussianBlur stdDeviation="10"/>
<feColorMatrix type="matrix" values="0 0 0 0 0 0 0 0 0 0 0 0 0 0 0 0 0 0 0.04 0"/>
<feBlend mode="normal" in2="effect2_dropShadow_409_5726" result="effect3_dropShadow_409_5726"/>
<feBlend mode="normal" in="SourceGraphic" in2="effect3_dropShadow_409_5726" result="shape"/>
</filter>
<clipPath id="clip0_409_5726">
<rect width="40" height="46.428" fill="white" transform="translate(20 10)"/>
</clipPath>
</defs>
</svg>
