<svg width="55" height="40" viewBox="0 0 55 40" fill="none" xmlns="http://www.w3.org/2000/svg">
<g clip-path="url(#clip0_8204_49893)">
<path d="M54.3669 17.0518V15.5139C53.6054 15.2636 52.7926 15.1246 51.9476 15.1246C51.092 15.1246 50.2685 15.2679 49.4984 15.5246V17.0711C50.2514 16.7502 51.0771 16.5663 51.9476 16.5663C52.8033 16.5663 53.6204 16.7395 54.3669 17.0518ZM54.3669 19.2379V18.3203C53.6439 17.9353 52.8204 17.715 51.9476 17.715C51.0599 17.715 50.2279 17.9417 49.4984 18.3374V19.2551C50.1979 18.7802 51.0407 18.5021 51.9476 18.5021C52.8418 18.5043 53.6738 18.7759 54.3669 19.2379ZM51.9476 14.4658C51.0963 14.4658 50.2749 14.5941 49.4984 14.8315V12.4123C49.4984 11.5866 49.3295 10.9791 48.9936 10.5898C48.6578 10.2005 48.0867 10.0059 47.2803 10.0059C46.2813 10.0059 45.5754 10.3224 45.1626 10.9556V22.1342H40.307V0.00585938H45.1626V8.21762C46.2 6.91067 47.5241 6.25827 49.1391 6.25827C50.8567 6.25827 52.1551 6.76736 53.0279 7.78554C53.9027 8.80372 54.3476 10.3075 54.3669 12.2946V14.8208C53.599 14.592 52.7883 14.4658 51.9476 14.4658ZM32.9872 18.6797C33.6696 18.6797 34.1958 18.4957 34.5722 18.1256C34.9466 17.7556 35.1284 17.2401 35.1198 16.577H39.6717C39.6717 18.2861 39.0599 19.6893 37.8343 20.7823C36.6107 21.8775 35.0321 22.4251 33.1027 22.4251C30.8353 22.4251 29.0492 21.7149 27.7423 20.2925C26.4353 18.87 25.7829 16.9021 25.7829 14.3866V14.1855C25.7829 12.6112 26.0738 11.2208 26.6557 10.0144C27.2375 8.81014 28.0738 7.8818 29.169 7.23367C30.2642 6.58554 31.5605 6.2604 33.0578 6.2604C35.0835 6.2604 36.692 6.82297 37.8835 7.94597C39.0749 9.06896 39.6696 10.592 39.6696 12.5128H35.1177C35.1177 11.7064 34.9209 11.0861 34.5273 10.654C34.1337 10.2219 33.6054 10.0059 32.9423 10.0059C31.6845 10.0059 30.9487 10.808 30.7391 12.4123C30.6706 12.9214 30.6386 13.623 30.6386 14.515C30.6386 16.0807 30.8246 17.1652 31.2011 17.7706C31.5754 18.3759 32.1701 18.6797 32.9872 18.6797ZM18.0439 10.0059C16.6214 10.0059 15.7765 10.947 15.5091 12.8294H20.4075V12.4551C20.4268 11.6764 20.23 11.0754 19.8172 10.6476C19.4022 10.2198 18.8118 10.0059 18.0439 10.0059ZM18.5915 22.4251C16.2 22.4251 14.2642 21.7128 12.7861 20.2861C11.3059 18.8593 10.568 17.0048 10.568 14.7182V14.316C10.568 12.7224 10.8632 11.3149 11.4535 10.0957C12.0439 8.87645 12.9059 7.93313 14.0396 7.26575C15.1733 6.59837 16.5188 6.26468 18.0738 6.26468C20.2642 6.26468 21.9926 6.9449 23.2589 8.30319C24.5273 9.66147 25.1605 11.5567 25.1605 13.9866V15.8732H15.5091C15.6824 16.7481 16.061 17.4347 16.6471 17.9331C17.2332 18.4337 17.9904 18.6818 18.923 18.6818C20.4589 18.6818 21.661 18.1449 22.5252 17.069L24.7434 19.6914C24.138 20.5256 23.2803 21.1909 22.1722 21.6871C21.0621 22.177 19.8685 22.4251 18.5915 22.4251ZM7.75727 2.67538V6.55131H10.322V9.9203H7.75727V17.0518C7.75727 17.6379 7.86422 18.0465 8.07385 18.2754C8.28561 18.5064 8.70272 18.6219 9.32732 18.6219C9.80861 18.6219 10.2107 18.5941 10.538 18.5363V22.008C9.66315 22.2861 8.75192 22.4251 7.80005 22.4251C6.12946 22.4251 4.89524 22.0315 4.09738 21.2444C3.29952 20.4572 2.90166 19.2615 2.90166 17.6572V9.9203H0.91449V6.54917H2.90166V2.67324H7.75727V2.67538Z" fill="#001C48"/>
<path d="M54.3412 22.8742C54.3412 21.5523 53.2674 20.4785 51.9455 20.4785C50.6236 20.4785 49.5498 21.5523 49.5498 22.8742C49.5498 24.194 50.6236 25.27 51.9455 25.27C53.2674 25.2678 54.3412 24.194 54.3412 22.8742ZM54.3904 27.4154V26.4956C53.6931 26.9684 52.8524 27.2443 51.9476 27.2443C51.0385 27.2443 50.1958 26.9662 49.4942 26.4892V27.409C50.2236 27.8069 51.0578 28.0336 51.9476 28.0336C52.8311 28.0315 53.6631 27.8069 54.3904 27.4154ZM54.3904 30.2261V28.6881C53.6375 29.0047 52.8139 29.1823 51.9476 29.1823C51.077 29.1823 50.2492 28.9983 49.4942 28.6753V30.224C50.2664 30.4828 51.0899 30.624 51.9476 30.624C52.8011 30.6218 53.6204 30.4828 54.3904 30.2261ZM49.4942 30.9149V34.6261C49.0214 35.424 48.2278 35.824 47.1113 35.824C45.8107 35.824 45.1605 35.1545 45.1605 33.8176V23.6657H40.2942V33.6956C40.2942 35.563 40.7348 37.0903 41.6161 38.0849C42.4974 39.0817 43.7936 39.5801 45.5091 39.5801C47.261 39.5801 48.6535 38.9213 49.6824 37.6015L49.8257 39.2914H54.3904V30.9192C53.6161 31.1545 52.7968 31.2828 51.9476 31.2828C51.0942 31.2807 50.2706 31.1523 49.4942 30.9149ZM32.4161 27.1309C30.9915 27.1309 30.1444 28.0742 29.8749 29.9609H34.7861V29.5844C34.8054 28.8036 34.6086 28.2004 34.1936 27.7726C33.7787 27.3448 33.1861 27.1309 32.4161 27.1309ZM32.9658 39.5801C30.568 39.5801 28.6278 38.8657 27.1455 37.4347C25.6631 36.0058 24.9209 34.1448 24.9209 31.8539V31.4496C24.9209 29.8518 25.2161 28.4422 25.8086 27.2186C26.4011 25.9972 27.2653 25.0496 28.4011 24.3801C29.5369 23.7106 30.8845 23.3234 32.446 23.3234C34.6407 23.3234 36.3733 24.0571 37.646 25.4197C38.9166 26.7823 39.5519 28.6817 39.5519 31.1159V33.0069H29.8749C30.0482 33.8839 30.4289 34.5726 31.015 35.071C31.6033 35.5716 32.3626 35.8218 33.2974 35.8218C34.8375 35.8218 36.0418 35.2828 36.9081 34.2047L39.1327 36.8336C38.5252 37.6721 37.6674 38.3395 36.5551 38.8336C35.4428 39.332 34.2471 39.5801 32.9658 39.5801Z" fill="#ED1C24"/>
</g>
<defs>
<clipPath id="clip0_8204_49893">
<rect width="53.4759" height="40" fill="white" transform="translate(0.91449)"/>
</clipPath>
</defs>
</svg>
