<svg width="40" height="41" viewBox="0 0 40 41" fill="none" xmlns="http://www.w3.org/2000/svg">
<path d="M26.3554 17.1683C26.3655 17.3104 26.3655 17.4525 26.3655 17.5947C26.3655 21.9297 23.066 26.9246 17.0356 26.9246C15.1777 26.9246 13.4518 26.3865 12 25.4526C12.264 25.483 12.5178 25.4932 12.7919 25.4932C14.3249 25.4932 15.736 24.9754 16.863 24.0922C15.4213 24.0617 14.2132 23.1175 13.7969 21.818C14 21.8485 14.203 21.8688 14.4163 21.8688C14.7107 21.8688 15.0051 21.8282 15.2792 21.7571C13.7767 21.4525 12.6497 20.1327 12.6497 18.5388V18.4982C13.0863 18.7419 13.5939 18.8942 14.1319 18.9145C13.2487 18.3256 12.67 17.3205 12.67 16.1835C12.67 15.5744 12.8324 15.016 13.1167 14.5287C14.7309 16.5185 17.1574 17.818 19.8782 17.9601C19.8274 17.7165 19.7969 17.4627 19.7969 17.2089C19.7969 15.4018 21.2589 13.9297 23.0761 13.9297C24.0203 13.9297 24.8731 14.3256 25.4721 14.9652C26.2132 14.8231 26.9238 14.549 27.5533 14.1733C27.3096 14.9348 26.7919 15.5744 26.1117 15.9804C26.7716 15.9094 27.4112 15.7266 28 15.4728C27.5534 16.1226 26.995 16.7012 26.3554 17.1683Z" fill="white"/>
<rect x="0.5" y="0.927734" width="39" height="39" rx="19.5" stroke="white"/>
</svg>
