<svg width="40" height="40" viewBox="0 0 40 40" fill="none" xmlns="http://www.w3.org/2000/svg">
<path fill-rule="evenodd" clip-rule="evenodd" d="M22.3303 1.80394C23.009 2.09855 23.4122 2.80534 23.3204 3.5395L21.8879 14.9994H34.9999C35.6466 14.9994 36.235 15.3735 36.5093 15.9592C36.7836 16.5448 36.6943 17.2363 36.2803 17.7331L19.6136 37.7331C19.14 38.3015 18.3483 38.4896 17.6696 38.1949C16.9909 37.9003 16.5877 37.1935 16.6795 36.4594L18.112 24.9994H4.99994C4.35324 24.9994 3.76492 24.6253 3.49062 24.0397C3.21632 23.4541 3.30557 22.7626 3.71957 22.2658L20.3862 2.2658C20.8599 1.69741 21.6516 1.50933 22.3303 1.80394ZM8.55834 21.6661H19.9999C20.478 21.6661 20.933 21.8714 21.2494 22.2298C21.5658 22.5882 21.713 23.0651 21.6537 23.5395L20.6922 31.232L31.4415 18.3328H19.9999C19.5219 18.3328 19.0669 18.1275 18.7505 17.7691C18.4341 17.4107 18.2868 16.9337 18.3461 16.4594L19.3077 8.76687L8.55834 21.6661Z" fill="#FFD5C3"/>
</svg>
