<svg width="24" height="24" viewBox="0 0 24 24" fill="none" xmlns="http://www.w3.org/2000/svg">
<path fill-rule="evenodd" clip-rule="evenodd" d="M12.9499 2.31381C12.7949 2.82944 12.7815 3.37742 12.9113 3.90023C13.0427 4.42955 13.3159 4.91304 13.7016 5.29869C14.0872 5.68434 14.5707 5.95756 15.1 6.08898C15.6293 6.22039 16.1845 6.20502 16.7057 6.04452C17.0598 5.9355 17.4451 6.03117 17.7071 6.29314C17.9691 6.55511 18.0648 6.94045 17.9557 7.29452C17.7952 7.81577 17.7799 8.3709 17.9113 8.90023C18.0427 9.42955 18.3159 9.91304 18.7016 10.2987C19.0872 10.6843 19.5707 10.9576 20.1 11.089C20.6293 11.2204 21.1845 11.205 21.7057 11.0445C22.0091 10.9511 22.3387 11.0073 22.594 11.1958C22.8493 11.3843 23 11.6829 23 12.0002C23 14.1758 22.3549 16.3026 21.1462 18.1115C19.9375 19.9205 18.2195 21.3304 16.2095 22.1629C14.1995 22.9955 11.9878 23.2133 9.85401 22.7889C7.72022 22.3644 5.76021 21.3168 4.22183 19.7784C2.68345 18.24 1.6358 16.28 1.21137 14.1462C0.786929 12.0124 1.00477 9.80071 1.83733 7.79073C2.66989 5.78074 4.07979 4.06277 5.88873 2.85408C7.6909 1.64991 9.80849 1.00508 11.9756 1.00027C12.0328 0.998878 12.0908 1.00243 12.1488 1.01124C12.2657 1.02868 12.376 1.06636 12.4761 1.12061C12.6077 1.19168 12.7189 1.29005 12.8045 1.40617C12.8903 1.52216 12.9516 1.65736 12.9808 1.80414C13.0032 1.91569 13.0067 2.03222 12.989 2.1491C12.9806 2.20569 12.9674 2.26073 12.9499 2.31381ZM10.8239 3.07741C9.46088 3.25707 8.15164 3.74743 6.99987 4.51702C5.51983 5.50595 4.36628 6.91156 3.68509 8.55609C3.0039 10.2006 2.82567 12.0102 3.17294 13.7561C3.5202 15.5019 4.37737 17.1055 5.63604 18.3642C6.89472 19.6229 8.49836 20.48 10.2442 20.8273C11.99 21.1746 13.7996 20.9963 15.4442 20.3152C17.0887 19.634 18.4943 18.4804 19.4832 17.0004C20.2528 15.8486 20.7432 14.5394 20.9228 13.1764C20.4854 13.1851 20.0467 13.1364 19.6181 13.0301C18.7359 12.811 17.9301 12.3557 17.2873 11.7129C16.6446 11.0701 16.1892 10.2643 15.9702 9.38213C15.8719 8.98621 15.8229 8.58162 15.8229 8.17737C15.4186 8.17737 15.014 8.12835 14.6181 8.03005C13.7359 7.81103 12.9301 7.35565 12.2873 6.7129C11.6446 6.07015 11.1892 5.26434 10.9702 4.38213C10.8638 3.95358 10.8151 3.51487 10.8239 3.07741Z" fill="#503658"/>
<path fill-rule="evenodd" clip-rule="evenodd" d="M8.5 7.50024C9.05228 7.50024 9.5 7.94796 9.5 8.50024V8.51024C9.5 9.06253 9.05228 9.51024 8.5 9.51024C7.94772 9.51024 7.5 9.06253 7.5 8.51024V8.50024C7.5 7.94796 7.94772 7.50024 8.5 7.50024Z" fill="#503658"/>
<path fill-rule="evenodd" clip-rule="evenodd" d="M16 14.5002C16.5523 14.5002 17 14.948 17 15.5002V15.5102C17 16.0625 16.5523 16.5102 16 16.5102C15.4477 16.5102 15 16.0625 15 15.5102V15.5002C15 14.948 15.4477 14.5002 16 14.5002Z" fill="#503658"/>
<path fill-rule="evenodd" clip-rule="evenodd" d="M12 11.0002C12.5523 11.0002 13 11.448 13 12.0002V12.0102C13 12.5625 12.5523 13.0102 12 13.0102C11.4477 13.0102 11 12.5625 11 12.0102V12.0002C11 11.448 11.4477 11.0002 12 11.0002Z" fill="#503658"/>
<path fill-rule="evenodd" clip-rule="evenodd" d="M11 16.0002C11.5523 16.0002 12 16.448 12 17.0002V17.0102C12 17.5625 11.5523 18.0102 11 18.0102C10.4477 18.0102 10 17.5625 10 17.0102V17.0002C10 16.448 10.4477 16.0002 11 16.0002Z" fill="#503658"/>
<path fill-rule="evenodd" clip-rule="evenodd" d="M7 13.0002C7.55228 13.0002 8 13.448 8 14.0002V14.0102C8 14.5625 7.55228 15.0102 7 15.0102C6.44772 15.0102 6 14.5625 6 14.0102V14.0002C6 13.448 6.44772 13.0002 7 13.0002Z" fill="#503658"/>
</svg>
