<svg width="24" height="25" viewBox="0 0 24 25" fill="none" xmlns="http://www.w3.org/2000/svg">
<path d="M15.6377 3.67847H8.3623C5.40551 3.67847 3 6.08398 3 9.04076V16.3162C3 19.273 5.40551 21.6785 8.3623 21.6785H15.6377C18.5945 21.6785 21 19.273 21 16.3162V9.04076C21 6.08398 18.5945 3.67847 15.6377 3.67847ZM19.1892 16.3162C19.1892 18.2776 17.5991 19.8677 15.6377 19.8677H8.3623C6.40088 19.8677 4.8108 18.2776 4.8108 16.3162V9.04076C4.8108 7.07931 6.40088 5.48927 8.3623 5.48927H15.6377C17.5991 5.48927 19.1892 7.07931 19.1892 9.04076V16.3162Z" fill="#FFEBE0"/>
<path d="M12 8.02295C9.43297 8.02295 7.34454 10.1114 7.34454 12.6784C7.34454 15.2453 9.43297 17.3338 12 17.3338C14.567 17.3338 16.6554 15.2454 16.6554 12.6784C16.6554 10.1113 14.567 8.02295 12 8.02295ZM12 15.523C10.4289 15.523 9.15534 14.2495 9.15534 12.6784C9.15534 11.1073 10.429 9.83375 12 9.83375C13.571 9.83375 14.8446 11.1073 14.8446 12.6784C14.8446 14.2494 13.571 15.523 12 15.523Z" fill="#FFEBE0"/>
<path d="M16.6644 9.17346C17.2805 9.17346 17.7799 8.67402 17.7799 8.05792C17.7799 7.44183 17.2805 6.94238 16.6644 6.94238C16.0483 6.94238 15.5488 7.44183 15.5488 8.05792C15.5488 8.67402 16.0483 9.17346 16.6644 9.17346Z" fill="#FFEBE0"/>
</svg>
