<svg width="24" height="24" viewBox="0 0 24 24" fill="none" xmlns="http://www.w3.org/2000/svg">
<path d="M19 11.0002H5C3.89543 11.0002 3 11.8957 3 13.0002V20.0002C3 21.1048 3.89543 22.0002 5 22.0002H19C20.1046 22.0002 21 21.1048 21 20.0002V13.0002C21 11.8957 20.1046 11.0002 19 11.0002Z" stroke="#503658" stroke-width="2" stroke-linecap="round" stroke-linejoin="round"/>
<path d="M7 11.0002V7.00024C7 5.67416 7.52678 4.40239 8.46447 3.46471C9.40215 2.52703 10.6739 2.00024 12 2.00024C13.3261 2.00024 14.5979 2.52703 15.5355 3.46471C16.4732 4.40239 17 5.67416 17 7.00024V11.0002" stroke="#503658" stroke-width="2" stroke-linecap="round" stroke-linejoin="round"/>
</svg>
