<svg width="500" height="500" viewBox="0 0 500 500" fill="none" xmlns="http://www.w3.org/2000/svg">
<g filter="url(#filter0_d_22072_4245)">
<path d="M357.067 213.412C368.478 126.292 311.417 98.2896 284.029 96.4229L199.252 86.6352C208.165 78.3382 234.598 52.1162 287.288 54.1075C339.98 56.0988 377.934 104.72 387.063 126.915C413.15 188.521 397.497 227.724 391.629 243.904C390.18 247.896 386.412 250.748 382.5 250.127C377.283 248.261 357.067 233.948 355.109 230.214C352.471 225.176 355.966 221.818 357.067 213.412Z" fill="#543A5B"/>
<path d="M226.641 383.707C226.641 371.451 216.715 361.516 204.469 361.516C192.224 361.516 182.297 371.451 182.297 383.707V430.177C182.297 442.434 192.224 452.369 204.469 452.369C216.715 452.369 226.641 442.434 226.641 430.177V383.707Z" fill="#543A5B"/>
<path d="M226.641 205.735C226.641 193.478 216.715 183.543 204.469 183.543C192.224 183.543 182.297 193.478 182.297 205.735V310.699C182.297 322.955 192.224 332.891 204.469 332.891C216.715 332.891 226.641 322.955 226.641 310.699V205.735Z" fill="#543A5B"/>
<path d="M112.139 410.052C100.464 410.052 91 419.525 91 431.21C91 442.895 100.464 452.367 112.139 452.367H205.502C217.177 452.367 226.642 442.895 226.642 431.21C226.642 419.525 217.177 410.052 205.502 410.052H112.139Z" fill="#543A5B"/>
<path d="M203.436 290.575C191.761 290.575 182.297 300.048 182.297 311.733C182.297 323.418 191.761 332.891 203.436 332.891H296.799C308.474 332.891 317.939 323.418 317.939 311.733C317.939 300.048 308.474 290.575 296.799 290.575H203.436Z" fill="#543A5B"/>
<path d="M303.863 410.052C292.188 410.052 282.724 419.525 282.724 431.21C282.724 442.895 292.188 452.367 303.863 452.367H415.486C427.161 452.367 436.626 442.895 436.626 431.21C436.626 419.525 427.161 410.052 415.486 410.052H303.863Z" fill="#543A5B"/>
<path d="M112.139 54.1067C100.464 54.1067 91 63.5793 91 75.2643C91 86.9493 100.464 96.4219 112.139 96.4219L285.061 96.4219C296.736 96.4219 306.201 86.9493 306.201 75.2643C306.201 63.5793 296.736 54.1067 285.061 54.1067L112.139 54.1067Z" fill="#543A5B"/>
<path d="M90.9999 426.443C90.9999 438.699 100.927 448.635 113.172 448.635C125.417 448.635 135.344 438.699 135.344 426.443L135.344 76.2995C135.344 64.0434 125.417 54.1079 113.172 54.1079C100.927 54.1079 90.9999 64.0434 90.9999 76.2995L90.9999 426.443Z" fill="#543A5B"/>
<path d="M435.93 425.116C437.368 437.526 428.149 448.457 415.74 449.81C402.83 451.217 391.326 441.753 389.522 428.882C373.202 312.387 323.753 267.016 203.608 225.839C192.248 221.946 185.83 209.753 189.4 198.278C192.763 187.468 203.873 180.971 214.833 183.772C356.744 220.039 421.722 302.491 435.93 425.116Z" fill="#543A5B"/>
</g>
<defs>
<filter id="filter0_d_22072_4245" x="87" y="54" width="353.625" height="406.369" filterUnits="userSpaceOnUse" color-interpolation-filters="sRGB">
<feFlood flood-opacity="0" result="BackgroundImageFix"/>
<feColorMatrix in="SourceAlpha" type="matrix" values="0 0 0 0 0 0 0 0 0 0 0 0 0 0 0 0 0 0 127 0" result="hardAlpha"/>
<feOffset dy="4"/>
<feGaussianBlur stdDeviation="2"/>
<feComposite in2="hardAlpha" operator="out"/>
<feColorMatrix type="matrix" values="0 0 0 0 0 0 0 0 0 0 0 0 0 0 0 0 0 0 0.25 0"/>
<feBlend mode="normal" in2="BackgroundImageFix" result="effect1_dropShadow_22072_4245"/>
<feBlend mode="normal" in="SourceGraphic" in2="effect1_dropShadow_22072_4245" result="shape"/>
</filter>
</defs>
</svg>
