<svg width="24" height="24" viewBox="0 0 24 24" fill="none" xmlns="http://www.w3.org/2000/svg">
<g clip-path="url(#clip0_432_2543)">
<path d="M15.0504 5.00024C16.0272 5.19081 16.9248 5.6685 17.6285 6.37218C18.3322 7.07586 18.8099 7.97351 19.0004 8.95024M15.0504 1.00024C17.0797 1.22568 18.972 2.13442 20.4167 3.57725C21.8613 5.02008 22.7724 6.91125 23.0004 8.94024M22.0004 16.9202V19.9202C22.0016 20.1987 21.9445 20.4744 21.8329 20.7296C21.7214 20.9848 21.5577 21.2138 21.3525 21.4021C21.1473 21.5904 20.905 21.7337 20.6412 21.823C20.3773 21.9122 20.0978 21.9453 19.8204 21.9202C16.7433 21.5859 13.7874 20.5344 11.1904 18.8502C8.77425 17.3149 6.72576 15.2664 5.19042 12.8502C3.5004 10.2414 2.44866 7.27124 2.12042 4.18024C2.09543 3.90371 2.1283 3.625 2.21692 3.36187C2.30555 3.09873 2.44799 2.85693 2.63519 2.65187C2.82238 2.4468 3.05023 2.28295 3.30421 2.17077C3.5582 2.05858 3.83276 2.00051 4.11042 2.00024H7.11042C7.59573 1.99547 8.06621 2.16732 8.43418 2.48378C8.80215 2.80023 9.0425 3.23969 9.11042 3.72024C9.23704 4.68031 9.47187 5.62297 9.81042 6.53024C9.94497 6.88817 9.97408 7.27716 9.89433 7.65112C9.81457 8.02509 9.62928 8.36836 9.36042 8.64024L8.09042 9.91024C9.51398 12.4138 11.5869 14.4867 14.0904 15.9102L15.3604 14.6402C15.6323 14.3714 15.9756 14.1861 16.3495 14.1063C16.7235 14.0266 17.1125 14.0557 17.4704 14.1902C18.3777 14.5288 19.3204 14.7636 20.2804 14.8902C20.7662 14.9588 21.2098 15.2034 21.527 15.5777C21.8441 15.952 22.0126 16.4298 22.0004 16.9202Z" stroke="#503658" stroke-width="2" stroke-linecap="round" stroke-linejoin="round"/>
</g>
<defs>
<clipPath id="clip0_432_2543">
<rect width="24" height="24" fill="white" transform="translate(0 0.000244141)"/>
</clipPath>
</defs>
</svg>
