<svg width="32" height="32" viewBox="0 0 32 32" fill="none" xmlns="http://www.w3.org/2000/svg">
<path fill-rule="evenodd" clip-rule="evenodd" d="M15.5318 1.41839C15.8337 1.3052 16.1663 1.3052 16.4682 1.41839L27.1348 5.41839C27.6552 5.61354 28 6.11104 28 6.66683V16.0002C28 20.5954 24.9577 24.2672 22.2113 26.6703C20.8102 27.8963 19.4153 28.8546 18.3733 29.5058C17.851 29.8323 17.4138 30.0838 17.1041 30.2552C16.9492 30.341 16.8259 30.4069 16.7396 30.4522C16.6964 30.4748 16.6624 30.4924 16.6383 30.5047L16.6097 30.5193L16.601 30.5237L16.5982 30.5251C16.5977 30.5253 16.5963 30.5261 16 29.3335C15.4037 30.5261 15.4033 30.5259 15.4029 30.5257L15.399 30.5237L15.3903 30.5193L15.3617 30.5047C15.3376 30.4924 15.3036 30.4748 15.2604 30.4522C15.1741 30.4069 15.0508 30.341 14.8959 30.2552C14.5862 30.0838 14.149 29.8323 13.6267 29.5058C12.5847 28.8546 11.1898 27.8963 9.78866 26.6703C7.04233 24.2672 4 20.5954 4 16.0002V6.66683C4 6.11104 4.34476 5.61354 4.86517 5.41839L15.5318 1.41839ZM16 29.3335L15.4029 30.5257C15.7783 30.7133 16.2209 30.7137 16.5963 30.5261L16 29.3335ZM16 27.8172C16.2555 27.6723 16.5823 27.4806 16.96 27.2445C17.9181 26.6457 19.1898 25.7707 20.4553 24.6634C23.0423 22.3998 25.3333 19.4049 25.3333 16.0002V7.59083L16 4.09083L6.66667 7.59083V16.0002C6.66667 19.4049 8.95767 22.3998 11.5447 24.6634C12.8102 25.7707 14.0819 26.6457 15.04 27.2445C15.4177 27.4806 15.7445 27.6723 16 27.8172Z" fill="#2DA882"/>
<path fill-rule="evenodd" clip-rule="evenodd" d="M20.9428 12.3908C21.4635 12.9115 21.4635 13.7557 20.9428 14.2764L15.6095 19.6097C15.0888 20.1304 14.2445 20.1304 13.7238 19.6097L11.0572 16.9431C10.5365 16.4224 10.5365 15.5781 11.0572 15.0574C11.5779 14.5367 12.4221 14.5367 12.9428 15.0574L14.6667 16.7813L19.0572 12.3908C19.5779 11.8701 20.4221 11.8701 20.9428 12.3908Z" fill="#2DA882"/>
</svg>
