<svg width="24" height="25" viewBox="0 0 24 25" fill="none" xmlns="http://www.w3.org/2000/svg">
<path d="M18.3554 9.41948C18.3655 9.56161 18.3655 9.70377 18.3655 9.84589C18.3655 14.1809 15.066 19.1759 9.03555 19.1759C7.17767 19.1759 5.45179 18.6378 4 17.7038C4.26397 17.7342 4.51775 17.7444 4.79188 17.7444C6.32485 17.7444 7.73605 17.2266 8.86296 16.3434C7.42133 16.3129 6.2132 15.3688 5.79694 14.0693C6.00001 14.0997 6.20304 14.12 6.41626 14.12C6.71067 14.12 7.00511 14.0794 7.2792 14.0083C5.77666 13.7038 4.64972 12.384 4.64972 10.7901V10.7495C5.08625 10.9931 5.59391 11.1454 6.13195 11.1657C5.24869 10.5768 4.67003 9.57177 4.67003 8.4347C4.67003 7.82557 4.83244 7.26719 5.11672 6.77988C6.73095 8.76973 9.15736 10.0692 11.8782 10.2114C11.8274 9.9677 11.7969 9.71392 11.7969 9.46011C11.7969 7.65298 13.2589 6.18091 15.0761 6.18091C16.0203 6.18091 16.8731 6.57685 17.4721 7.21644C18.2132 7.07432 18.9238 6.80019 19.5533 6.42457C19.3096 7.18601 18.7919 7.8256 18.1117 8.23167C18.7716 8.16063 19.4112 7.97785 20 7.72407C19.5534 8.37379 18.995 8.95245 18.3554 9.41948Z" fill="#FFEBE0"/>
</svg>
