<svg width="24" height="24" viewBox="0 0 24 24" fill="none" xmlns="http://www.w3.org/2000/svg">
<path d="M16 21.0002V19.0002C16 17.9394 15.5786 16.922 14.8284 16.1718C14.0783 15.4217 13.0609 15.0002 12 15.0002H5C3.93913 15.0002 2.92172 15.4217 2.17157 16.1718C1.42143 16.922 1 17.9394 1 19.0002V21.0002" stroke="#503658" stroke-width="2" stroke-linecap="round" stroke-linejoin="round"/>
<path d="M8.5 11.0002C10.7091 11.0002 12.5 9.20938 12.5 7.00024C12.5 4.79111 10.7091 3.00024 8.5 3.00024C6.29086 3.00024 4.5 4.79111 4.5 7.00024C4.5 9.20938 6.29086 11.0002 8.5 11.0002Z" stroke="#503658" stroke-width="2" stroke-linecap="round" stroke-linejoin="round"/>
<path d="M17 11.0002L19 13.0002L23 9.00024" stroke="#503658" stroke-width="2" stroke-linecap="round" stroke-linejoin="round"/>
</svg>
