<svg width="22" height="22" viewBox="0 0 22 22" fill="none" xmlns="http://www.w3.org/2000/svg">
<g clip-path="url(#clip0_346_1545)">
<path fill-rule="evenodd" clip-rule="evenodd" d="M11.0013 2.75008C6.44495 2.75008 2.7513 6.44373 2.7513 11.0001C2.7513 15.5565 6.44495 19.2501 11.0013 19.2501C15.5577 19.2501 19.2513 15.5565 19.2513 11.0001C19.2513 6.44373 15.5577 2.75008 11.0013 2.75008ZM0.917969 11.0001C0.917969 5.43121 5.43243 0.916748 11.0013 0.916748C16.5701 0.916748 21.0846 5.43121 21.0846 11.0001C21.0846 16.5689 16.5701 21.0834 11.0013 21.0834C5.43243 21.0834 0.917969 16.5689 0.917969 11.0001Z" fill="#503658"/>
<path fill-rule="evenodd" clip-rule="evenodd" d="M12.6576 6.53975C13.0961 6.28658 13.6567 6.43675 13.9098 6.87517L19.1715 15.9868C19.4247 16.4253 19.2745 16.9859 18.8361 17.239C18.3977 17.4922 17.8371 17.342 17.5839 16.9036L12.3222 7.79197C12.0691 7.35356 12.2192 6.79292 12.6576 6.53975Z" fill="#503658"/>
<path fill-rule="evenodd" clip-rule="evenodd" d="M7.96875 7.33341C7.96875 6.82716 8.37915 6.41675 8.88542 6.41675H19.4087C19.915 6.41675 20.3254 6.82716 20.3254 7.33341C20.3254 7.83967 19.915 8.25008 19.4087 8.25008H8.88542C8.37915 8.25008 7.96875 7.83967 7.96875 7.33341Z" fill="#503658"/>
<path fill-rule="evenodd" clip-rule="evenodd" d="M12.4845 1.09419C12.9229 1.34737 13.0731 1.908 12.82 2.34641L7.5583 11.4581C7.30512 11.8965 6.74449 12.0467 6.30607 11.7935C5.86766 11.5403 5.71749 10.9797 5.97066 10.5413L11.2323 1.42961C11.4855 0.991195 12.0461 0.841028 12.4845 1.09419Z" fill="#503658"/>
<path fill-rule="evenodd" clip-rule="evenodd" d="M3.16154 4.76094C3.59996 4.50778 4.16059 4.65794 4.41377 5.09636L9.67546 14.2081C9.92864 14.6464 9.7784 15.207 9.34005 15.4602C8.9016 15.7134 8.34097 15.5633 8.08779 15.1248L2.82613 6.01316C2.57296 5.57475 2.72313 5.01411 3.16154 4.76094Z" fill="#503658"/>
<path fill-rule="evenodd" clip-rule="evenodd" d="M1.67578 14.6667C1.67578 14.1604 2.08619 13.75 2.59245 13.75H13.1158C13.622 13.75 14.0324 14.1604 14.0324 14.6667C14.0324 15.1729 13.622 15.5833 13.1158 15.5833H2.59245C2.08619 15.5833 1.67578 15.1729 1.67578 14.6667Z" fill="#503658"/>
<path fill-rule="evenodd" clip-rule="evenodd" d="M15.6915 10.2063C16.13 10.4595 16.2801 11.0201 16.027 11.4584L10.7654 20.5701C10.5122 21.0085 9.95154 21.1587 9.5131 20.9055C9.07469 20.6524 8.92452 20.0918 9.17769 19.6533L14.4394 10.5417C14.6925 10.1032 15.2532 9.95309 15.6915 10.2063Z" fill="#503658"/>
</g>
<defs>
<clipPath id="clip0_346_1545">
<rect width="22" height="22" fill="white"/>
</clipPath>
</defs>
</svg>
