<svg width="88" height="95" viewBox="0 0 88 95" fill="none" xmlns="http://www.w3.org/2000/svg">
<g clip-path="url(#clip0_217_341)" filter="url(#filter0_ddd_217_341)">
<path d="M57.126 31.9191C58.7183 19.9402 50.7564 16.0898 46.9347 15.8331L35.1055 14.4873C36.3491 13.3465 40.0373 9.74098 47.3896 10.0148C54.7418 10.2886 60.0378 16.974 61.3117 20.0258C64.9516 28.4966 62.7675 33.8871 61.9487 36.1117C61.7466 36.6608 61.2208 37.0529 60.6748 36.9674C59.9469 36.7108 57.126 34.7429 56.8529 34.2294C56.4847 33.5367 56.9724 33.075 57.126 31.9191Z" fill="#FFD5C3"/>
<path d="M38.9269 55.3348C38.9269 53.6496 37.5417 52.2834 35.8331 52.2834C34.1244 52.2834 32.7393 53.6496 32.7393 55.3348V61.7245C32.7393 63.4097 34.1244 64.7758 35.8331 64.7758C37.5417 64.7758 38.9269 63.4097 38.9269 61.7245V55.3348Z" fill="#FFD5C3"/>
<path d="M38.9269 30.8634C38.9269 29.1781 37.5417 27.812 35.8331 27.812C34.1244 27.812 32.7393 29.1781 32.7393 30.8634V45.296C32.7393 46.9812 34.1244 48.3473 35.8331 48.3473C37.5417 48.3473 38.9269 46.9812 38.9269 45.296V30.8634Z" fill="#FFD5C3"/>
<path d="M22.9496 58.9573C21.3206 58.9573 20 60.2598 20 61.8665C20 63.4732 21.3206 64.7756 22.9496 64.7756H35.9771C37.6061 64.7756 38.9267 63.4732 38.9267 61.8665C38.9267 60.2598 37.6061 58.9573 35.9771 58.9573H22.9496Z" fill="#FFD5C3"/>
<path d="M35.6889 42.5293C34.0599 42.5293 32.7393 43.8318 32.7393 45.4385C32.7393 47.0452 34.0599 48.3477 35.6889 48.3477H48.7164C50.3454 48.3477 51.666 47.0452 51.666 45.4385C51.666 43.8318 50.3454 42.5293 48.7164 42.5293H35.6889Z" fill="#FFD5C3"/>
<path d="M49.7016 58.9573C48.0726 58.9573 46.752 60.2598 46.752 61.8665C46.752 63.4732 48.0726 64.7756 49.7016 64.7756H65.2769C66.906 64.7756 68.2266 63.4732 68.2266 61.8665C68.2266 60.2598 66.906 58.9573 65.2769 58.9573H49.7016Z" fill="#FFD5C3"/>
<path d="M22.9496 10.0149C21.3206 10.0149 20 11.3174 20 12.9241C20 14.5308 21.3206 15.8333 22.9496 15.8333L47.0783 15.8333C48.7074 15.8333 50.028 14.5308 50.028 12.9241C50.028 11.3174 48.7074 10.0149 47.0783 10.0149L22.9496 10.0149Z" fill="#FFD5C3"/>
<path d="M19.9999 61.2111C19.9999 62.8963 21.3851 64.2625 23.0937 64.2625C24.8024 64.2625 26.1875 62.8963 26.1875 61.2111L26.1875 13.0664C26.1875 11.3811 24.8024 10.015 23.0937 10.015C21.3851 10.015 19.9999 11.3811 19.9999 13.0664L19.9999 61.2111Z" fill="#FFD5C3"/>
<path d="M68.1301 61.0284C68.3308 62.7349 67.0444 64.2378 65.313 64.4239C63.5116 64.6174 61.9063 63.316 61.6546 61.5462C59.3775 45.5282 52.4775 39.2897 35.7132 33.6279C34.128 33.0925 33.2325 31.416 33.7306 29.8382C34.1999 28.3519 35.7501 27.4585 37.2794 27.8437C57.0809 32.8303 66.1477 44.1675 68.1301 61.0284Z" fill="#FFD5C3"/>
</g>
<defs>
<filter id="filter0_ddd_217_341" x="0" y="0" width="88" height="95" filterUnits="userSpaceOnUse" color-interpolation-filters="sRGB">
<feFlood flood-opacity="0" result="BackgroundImageFix"/>
<feColorMatrix in="SourceAlpha" type="matrix" values="0 0 0 0 0 0 0 0 0 0 0 0 0 0 0 0 0 0 127 0" result="hardAlpha"/>
<feOffset/>
<feGaussianBlur stdDeviation="0.5"/>
<feColorMatrix type="matrix" values="0 0 0 0 0 0 0 0 0 0 0 0 0 0 0 0 0 0 0.04 0"/>
<feBlend mode="normal" in2="BackgroundImageFix" result="effect1_dropShadow_217_341"/>
<feColorMatrix in="SourceAlpha" type="matrix" values="0 0 0 0 0 0 0 0 0 0 0 0 0 0 0 0 0 0 127 0" result="hardAlpha"/>
<feOffset dy="2"/>
<feGaussianBlur stdDeviation="3"/>
<feColorMatrix type="matrix" values="0 0 0 0 0 0 0 0 0 0 0 0 0 0 0 0 0 0 0.04 0"/>
<feBlend mode="normal" in2="effect1_dropShadow_217_341" result="effect2_dropShadow_217_341"/>
<feColorMatrix in="SourceAlpha" type="matrix" values="0 0 0 0 0 0 0 0 0 0 0 0 0 0 0 0 0 0 127 0" result="hardAlpha"/>
<feOffset dy="10"/>
<feGaussianBlur stdDeviation="10"/>
<feColorMatrix type="matrix" values="0 0 0 0 0 0 0 0 0 0 0 0 0 0 0 0 0 0 0.04 0"/>
<feBlend mode="normal" in2="effect2_dropShadow_217_341" result="effect3_dropShadow_217_341"/>
<feBlend mode="normal" in="SourceGraphic" in2="effect3_dropShadow_217_341" result="shape"/>
</filter>
<clipPath id="clip0_217_341">
<rect width="48" height="55" fill="white" transform="translate(20 10)"/>
</clipPath>
</defs>
</svg>
