
<svg width="1813" height="1211" viewBox="0 0 1813 1211" fill="none" xmlns="http://www.w3.org/2000/svg">
<g clip-path="url(#clip0_19827_11392)">
<rect width="1941" height="1490" fill="#020308"/>
<rect width="1941" height="1490" fill="url(#paint0_radial_19827_11392)" fill-opacity="0.12"/>
<path d="M596.294 39.3242H470.453V165.165H596.294V39.3242Z" fill="url(#paint1_linear_19827_11392)" fill-opacity="0.02"/>
<path d="M473.599 775.496H347.758V901.337H473.599V775.496Z" fill="url(#paint2_linear_19827_11392)" fill-opacity="0.02"/>
<path d="M1700.55 162.02H1574.71V287.861H1700.55V162.02Z" fill="url(#paint3_linear_19827_11392)" fill-opacity="0.02"/>
<path d="M103.937 -204.492H-18.7578V-81.7969M103.937 -204.492V-81.7969M103.937 -204.492H226.633M103.937 -81.7969H-18.7578M103.937 -81.7969H226.633M103.937 -81.7969V40.8983M-18.7578 -81.7969V40.8983M226.633 -204.492V-81.7969M226.633 -204.492H349.328M226.633 -81.7969H349.328M226.633 -81.7969V40.8983M349.328 -204.492V-81.7969M349.328 -204.492H472.023M349.328 -81.7969H472.023M349.328 -81.7969V40.8983M472.023 -204.492V-81.7969M472.023 -204.492H594.718M472.023 -81.7969H594.718M472.023 -81.7969V40.8983M594.718 -204.492V-81.7969M594.718 -204.492H717.414M594.718 -81.7969H717.414M594.718 -81.7969V40.8983M717.414 -204.492V-81.7969M717.414 -204.492H840.109M717.414 -81.7969H840.109M717.414 -81.7969V40.8983M840.109 -204.492V-81.7969M840.109 -204.492H962.804M840.109 -81.7969H962.804M840.109 -81.7969V40.8983M962.804 -204.492V-81.7969M962.804 -204.492H1085.5M962.804 -81.7969H1085.5M962.804 -81.7969V40.8983M1085.5 -204.492V-81.7969M1085.5 -204.492H1208.19M1085.5 -81.7969H1208.19M1085.5 -81.7969V40.8983M1208.19 -204.492V-81.7969M1208.19 -204.492H1330.89M1208.19 -81.7969H1330.89M1208.19 -81.7969V40.8983M1330.89 -204.492V-81.7969M1330.89 -204.492H1453.59M1330.89 -81.7969H1453.59M1330.89 -81.7969V40.8983M1453.59 -204.492V-81.7969M1453.59 -204.492H1576.28M1453.59 -81.7969H1576.28M1453.59 -81.7969V40.8983M1576.28 -204.492V-81.7969M1576.28 -204.492H1698.98M1576.28 -81.7969H1698.98M1576.28 -81.7969V40.8983M1698.98 -204.492V-81.7969M1698.98 -204.492H1821.67M1698.98 -81.7969H1821.67M1698.98 -81.7969V40.8983M1821.67 -204.492V-81.7969M1821.67 -204.492H1944.37M1821.67 -81.7969H1944.37M1821.67 -81.7969V40.8983M1944.37 -204.492V-81.7969M1944.37 -204.492H2067.06V-81.7969M1944.37 -81.7969H2067.06M1944.37 -81.7969V40.8983M2067.06 -81.7969V40.8983M103.937 40.8983H-18.7578M103.937 40.8983H226.633M103.937 40.8983V163.594M-18.7578 40.8983V163.594M226.633 40.8983H349.328M226.633 40.8983V163.594M349.328 40.8983H472.023M349.328 40.8983V163.594M472.023 40.8983H594.718M472.023 40.8983V163.594M594.718 40.8983H717.414M594.718 40.8983V163.594M717.414 40.8983H840.109M717.414 40.8983V163.594M840.109 40.8983H962.804M840.109 40.8983V163.594M962.804 40.8983H1085.5M962.804 40.8983V163.594M1085.5 40.8983H1208.19M1085.5 40.8983V163.594M1208.19 40.8983H1330.89M1208.19 40.8983V163.594M1330.89 40.8983H1453.59M1330.89 40.8983V163.594M1453.59 40.8983H1576.28M1453.59 40.8983V163.594M1576.28 40.8983H1698.98M1576.28 40.8983V163.594M1698.98 40.8983H1821.67M1698.98 40.8983V163.594M1821.67 40.8983H1944.37M1821.67 40.8983V163.594M1944.37 40.8983H2067.06M1944.37 40.8983V163.594M2067.06 40.8983V163.594M103.937 163.594H-18.7578M103.937 163.594H226.633M103.937 163.594V286.289M-18.7578 163.594V286.289M226.633 163.594H349.328M226.633 163.594V286.289M349.328 163.594H472.023M349.328 163.594V286.289M472.023 163.594H594.718M472.023 163.594V286.289M594.718 163.594H717.414M594.718 163.594V286.289M717.414 163.594H840.109M717.414 163.594V286.289M840.109 163.594H962.804M840.109 163.594V286.289M962.804 163.594H1085.5M962.804 163.594V286.289M1085.5 163.594H1208.19M1085.5 163.594V286.289M1208.19 163.594H1330.89M1208.19 163.594V286.289M1330.89 163.594H1453.59M1330.89 163.594V286.289M1453.59 163.594H1576.28M1453.59 163.594V286.289M1576.28 163.594H1698.98M1576.28 163.594V286.289M1698.98 163.594H1821.67M1698.98 163.594V286.289M1821.67 163.594H1944.37M1821.67 163.594V286.289M1944.37 163.594H2067.06M1944.37 163.594V286.289M2067.06 163.594V286.289M103.937 286.289H-18.7578M103.937 286.289H226.633M103.937 286.289V408.984M-18.7578 286.289V408.984M226.633 286.289H349.328M226.633 286.289V408.984M349.328 286.289H472.023M349.328 286.289V408.984M472.023 286.289H594.718M472.023 286.289V408.984M594.718 286.289H717.414M594.718 286.289V408.984M717.414 286.289H840.109M717.414 286.289V408.984M840.109 286.289H962.804M840.109 286.289V408.984M962.804 286.289H1085.5M962.804 286.289V408.984M1085.5 286.289H1208.19M1085.5 286.289V408.984M1208.19 286.289H1330.89M1208.19 286.289V408.984M1330.89 286.289H1453.59M1330.89 286.289V408.984M1453.59 286.289H1576.28M1453.59 286.289V408.984M1576.28 286.289H1698.98M1576.28 286.289V408.984M1698.98 286.289H1821.67M1698.98 286.289V408.984M1821.67 286.289H1944.37M1821.67 286.289V408.984M1944.37 286.289H2067.06M1944.37 286.289V408.984M2067.06 286.289V408.984M103.937 408.984H-18.7578M103.937 408.984H226.633M103.937 408.984V531.679M-18.7578 408.984V531.679M226.633 408.984H349.328M226.633 408.984V531.679M349.328 408.984H472.023M349.328 408.984V531.679M472.023 408.984H594.718M472.023 408.984V531.679M594.718 408.984H717.414M594.718 408.984V531.679M717.414 408.984H840.109M717.414 408.984V531.679M840.109 408.984H962.804M840.109 408.984V531.679M962.804 408.984H1085.5M962.804 408.984V531.679M1085.5 408.984H1208.19M1085.5 408.984V531.679M1208.19 408.984H1330.89M1208.19 408.984V531.679M1330.89 408.984H1453.59M1330.89 408.984V531.679M1453.59 408.984H1576.28M1453.59 408.984V531.679M1576.28 408.984H1698.98M1576.28 408.984V531.679M1698.98 408.984H1821.67M1698.98 408.984V531.679M1821.67 408.984H1944.37M1821.67 408.984V531.679M1944.37 408.984H2067.06M1944.37 408.984V531.679M2067.06 408.984V531.679M103.937 531.679H-18.7578M103.937 531.679H226.633M103.937 531.679V654.375M-18.7578 531.679V654.375M226.633 531.679H349.328M226.633 531.679V654.375M349.328 531.679H472.023M349.328 531.679V654.375M472.023 531.679H594.718M472.023 531.679V654.375M594.718 531.679H717.414M594.718 531.679V654.375M717.414 531.679H840.109M717.414 531.679V654.375M840.109 531.679H962.804M840.109 531.679V654.375M962.804 531.679H1085.5M962.804 531.679V654.375M1085.5 531.679H1208.19M1085.5 531.679V654.375M1208.19 531.679H1330.89M1208.19 531.679V654.375M1330.89 531.679H1453.59M1330.89 531.679V654.375M1453.59 531.679H1576.28M1453.59 531.679V654.375M1576.28 531.679H1698.98M1576.28 531.679V654.375M1698.98 531.679H1821.67M1698.98 531.679V654.375M1821.67 531.679H1944.37M1821.67 531.679V654.375M1944.37 531.679H2067.06M1944.37 531.679V654.375M2067.06 531.679V654.375M103.937 654.375H-18.7578M103.937 654.375H226.633M103.937 654.375V777.07M-18.7578 654.375V777.07M226.633 654.375H349.328M226.633 654.375V777.07M349.328 654.375H472.023M349.328 654.375V777.07M472.023 654.375H594.718M472.023 654.375V777.07M594.718 654.375H717.414M594.718 654.375V777.07M717.414 654.375H840.109M717.414 654.375V777.07M840.109 654.375H962.804M840.109 654.375V777.07M962.804 654.375H1085.5M962.804 654.375V777.07M1085.5 654.375H1208.19M1085.5 654.375V777.07M1208.19 654.375H1330.89M1208.19 654.375V777.07M1330.89 654.375H1453.59M1330.89 654.375V777.07M1453.59 654.375H1576.28M1453.59 654.375V777.07M1576.28 654.375H1698.98M1576.28 654.375V777.07M1698.98 654.375H1821.67M1698.98 654.375V777.07M1821.67 654.375H1944.37M1821.67 654.375V777.07M1944.37 654.375H2067.06M1944.37 654.375V777.07M2067.06 654.375V777.07M103.937 777.07H-18.7578M103.937 777.07H226.633M103.937 777.07V899.765M-18.7578 777.07V899.765M226.633 777.07H349.328M226.633 777.07V899.765M349.328 777.07H472.023M349.328 777.07V899.765M472.023 777.07H594.718M472.023 777.07V899.765M594.718 777.07H717.414M594.718 777.07V899.765M717.414 777.07H840.109M717.414 777.07V899.765M840.109 777.07H962.804M840.109 777.07V899.765M962.804 777.07H1085.5M962.804 777.07V899.765M1085.5 777.07H1208.19M1085.5 777.07V899.765M1208.19 777.07H1330.89M1208.19 777.07V899.765M1330.89 777.07H1453.59M1330.89 777.07V899.765M1453.59 777.07H1576.28M1453.59 777.07V899.765M1576.28 777.07H1698.98M1576.28 777.07V899.765M1698.98 777.07H1821.67M1698.98 777.07V899.765M1821.67 777.07H1944.37M1821.67 777.07V899.765M1944.37 777.07H2067.06M1944.37 777.07V899.765M2067.06 777.07V899.765M103.937 899.765H-18.7578M103.937 899.765H226.633M103.937 899.765V1022.46M-18.7578 899.765V1022.46M226.633 899.765H349.328M226.633 899.765V1022.46M349.328 899.765H472.023M349.328 899.765V1022.46M472.023 899.765H594.718M472.023 899.765V1022.46M594.718 899.765H717.414M594.718 899.765V1022.46M717.414 899.765H840.109M717.414 899.765V1022.46M840.109 899.765H962.804M840.109 899.765V1022.46M962.804 899.765H1085.5M962.804 899.765V1022.46M1085.5 899.765H1208.19M1085.5 899.765V1022.46M1208.19 899.765H1330.89M1208.19 899.765V1022.46M1330.89 899.765H1453.59M1330.89 899.765V1022.46M1453.59 899.765H1576.28M1453.59 899.765V1022.46M1576.28 899.765H1698.98M1576.28 899.765V1022.46M1698.98 899.765H1821.67M1698.98 899.765V1022.46M1821.67 899.765H1944.37M1821.67 899.765V1022.46M1944.37 899.765H2067.06M1944.37 899.765V1022.46M2067.06 899.765V1022.46M103.937 1022.46H-18.7578M103.937 1022.46H226.633M103.937 1022.46V1145.16M-18.7578 1022.46V1145.16M226.633 1022.46H349.328M226.633 1022.46V1145.16M349.328 1022.46H472.023M349.328 1022.46V1145.16M472.023 1022.46H594.718M472.023 1022.46V1145.16M594.718 1022.46H717.414M594.718 1022.46V1145.16M717.414 1022.46H840.109M717.414 1022.46V1145.16M840.109 1022.46H962.804M840.109 1022.46V1145.16M962.804 1022.46H1085.5M962.804 1022.46V1145.16M1085.5 1022.46H1208.19M1085.5 1022.46V1145.16M1208.19 1022.46H1330.89M1208.19 1022.46V1145.16M1330.89 1022.46H1453.59M1330.89 1022.46V1145.16M1453.59 1022.46H1576.28M1453.59 1022.46V1145.16M1576.28 1022.46H1698.98M1576.28 1022.46V1145.16M1698.98 1022.46H1821.67M1698.98 1022.46V1145.16M1821.67 1022.46H1944.37M1821.67 1022.46V1145.16M1944.37 1022.46H2067.06M1944.37 1022.46V1145.16M2067.06 1022.46V1145.16M103.937 1145.16H-18.7578M103.937 1145.16H226.633M103.937 1145.16V1267.85M-18.7578 1145.16V1267.85H103.937M226.633 1145.16H349.328M226.633 1145.16V1267.85M349.328 1145.16H472.023M349.328 1145.16V1267.85M472.023 1145.16H594.718M472.023 1145.16V1267.85M594.718 1145.16H717.414M594.718 1145.16V1267.85M717.414 1145.16H840.109M717.414 1145.16V1267.85M840.109 1145.16H962.804M840.109 1145.16V1267.85M962.804 1145.16H1085.5M962.804 1145.16V1267.85M1085.5 1145.16H1208.19M1085.5 1145.16V1267.85M1208.19 1145.16H1330.89M1208.19 1145.16V1267.85M1330.89 1145.16H1453.59M1330.89 1145.16V1267.85M1453.59 1145.16H1576.28M1453.59 1145.16V1267.85M1576.28 1145.16H1698.98M1576.28 1145.16V1267.85M1698.98 1145.16H1821.67M1698.98 1145.16V1267.85M1821.67 1145.16H1944.37M1821.67 1145.16V1267.85M1944.37 1145.16H2067.06M1944.37 1145.16V1267.85M2067.06 1145.16V1267.85H1944.37M103.937 1267.85H226.633M226.633 1267.85H349.328M349.328 1267.85H472.023M472.023 1267.85H594.718M594.718 1267.85H717.414M717.414 1267.85H840.109M840.109 1267.85H962.804M962.804 1267.85H1085.5M1085.5 1267.85H1208.19M1208.19 1267.85H1330.89M1330.89 1267.85H1453.59M1453.59 1267.85H1576.28M1576.28 1267.85H1698.98M1698.98 1267.85H1821.67M1821.67 1267.85H1944.37" stroke="url(#paint4_radial_19827_11392)" stroke-opacity="0.08" stroke-width="3.14603"/>
<g opacity="0.2" filter="url(#filter0_f_19827_11392)">
<path d="M5202.26 -3800.41L5329.06 -3673.61L3104.48 -1449.02L1552.52 28.3143L2977.68 -1575.83L5202.26 -3800.41Z" fill="url(#paint5_linear_19827_11392)"/>
</g>
<g opacity="0.32" filter="url(#filter1_f_19827_11392)">
<path d="M4145.19 -3746.92L4271.99 -3620.12L2047.41 -1395.54L495.458 81.7987L1920.61 -1522.34L4145.19 -3746.92Z" fill="url(#paint6_linear_19827_11392)"/>
</g>
<g opacity="0.2" filter="url(#filter2_f_19827_11392)">
<path d="M-3494.16 4941.97L-3620.97 4815.17L-1396.38 2590.59L155.569 1113.25L-1269.58 2717.39L-3494.16 4941.97Z" fill="url(#paint7_linear_19827_11392)"/>
</g>
<g opacity="0.32" filter="url(#filter3_f_19827_11392)">
<path d="M-2437.1 4888.48L-2563.9 4761.68L-339.318 2537.1L1212.64 1059.76L-212.517 2663.9L-2437.1 4888.48Z" fill="url(#paint8_linear_19827_11392)"/>
</g>
<path opacity="0.32" d="M-2031.26 5432.75L-2158.06 5305.95L66.5214 3081.37L1618.48 1604.03L193.323 3208.17L-2031.26 5432.75Z" fill="url(#paint9_linear_19827_11392)"/>
</g>
<defs>
<filter id="filter0_f_19827_11392" x="1175" y="-4177.93" width="4531.58" height="4583.77" filterUnits="userSpaceOnUse" color-interpolation-filters="sRGB">
<feFlood flood-opacity="0" result="BackgroundImageFix"/>
<feBlend mode="normal" in="SourceGraphic" in2="BackgroundImageFix" result="shape"/>
<feGaussianBlur stdDeviation="188.762" result="effect1_foregroundBlur_19827_11392"/>
</filter>
<filter id="filter1_f_19827_11392" x="117.934" y="-4124.45" width="4531.58" height="4583.77" filterUnits="userSpaceOnUse" color-interpolation-filters="sRGB">
<feFlood flood-opacity="0" result="BackgroundImageFix"/>
<feBlend mode="normal" in="SourceGraphic" in2="BackgroundImageFix" result="shape"/>
<feGaussianBlur stdDeviation="188.762" result="effect1_foregroundBlur_19827_11392"/>
</filter>
<filter id="filter2_f_19827_11392" x="-3998.49" y="735.726" width="4531.58" height="4583.77" filterUnits="userSpaceOnUse" color-interpolation-filters="sRGB">
<feFlood flood-opacity="0" result="BackgroundImageFix"/>
<feBlend mode="normal" in="SourceGraphic" in2="BackgroundImageFix" result="shape"/>
<feGaussianBlur stdDeviation="188.762" result="effect1_foregroundBlur_19827_11392"/>
</filter>
<filter id="filter3_f_19827_11392" x="-2941.42" y="682.242" width="4531.58" height="4583.77" filterUnits="userSpaceOnUse" color-interpolation-filters="sRGB">
<feFlood flood-opacity="0" result="BackgroundImageFix"/>
<feBlend mode="normal" in="SourceGraphic" in2="BackgroundImageFix" result="shape"/>
<feGaussianBlur stdDeviation="188.762" result="effect1_foregroundBlur_19827_11392"/>
</filter>
<radialGradient id="paint0_radial_19827_11392" cx="0" cy="0" r="1" gradientUnits="userSpaceOnUse" gradientTransform="translate(970.5) rotate(90) scale(952.772 1241.16)">
<stop stop-color="white"/>
<stop offset="1" stop-color="white" stop-opacity="0"/>
</radialGradient>
<linearGradient id="paint1_linear_19827_11392" x1="533.374" y1="39.3242" x2="533.374" y2="165.165" gradientUnits="userSpaceOnUse">
<stop stop-color="white" stop-opacity="0"/>
<stop offset="1" stop-color="white"/>
</linearGradient>
<linearGradient id="paint2_linear_19827_11392" x1="410.678" y1="775.496" x2="410.678" y2="901.337" gradientUnits="userSpaceOnUse">
<stop stop-color="white" stop-opacity="0"/>
<stop offset="1" stop-color="white"/>
</linearGradient>
<linearGradient id="paint3_linear_19827_11392" x1="1637.63" y1="162.02" x2="1637.63" y2="287.861" gradientUnits="userSpaceOnUse">
<stop stop-color="white" stop-opacity="0"/>
<stop offset="1" stop-color="white"/>
</linearGradient>
<radialGradient id="paint4_radial_19827_11392" cx="0" cy="0" r="1" gradientUnits="userSpaceOnUse" gradientTransform="translate(1024.15 571.005) rotate(90) scale(695.273 1044.48)">
<stop stop-color="white"/>
<stop offset="1" stop-color="white" stop-opacity="0"/>
</radialGradient>
<linearGradient id="paint5_linear_19827_11392" x1="5265.66" y1="-3737.01" x2="3041.08" y2="-1512.43" gradientUnits="userSpaceOnUse">
<stop stop-color="white"/>
<stop offset="1" stop-color="#D3D8DF"/>
</linearGradient>
<linearGradient id="paint6_linear_19827_11392" x1="4208.59" y1="-3683.52" x2="1984.01" y2="-1458.94" gradientUnits="userSpaceOnUse">
<stop stop-color="white"/>
<stop offset="1" stop-color="#D3D8DF"/>
</linearGradient>
<linearGradient id="paint7_linear_19827_11392" x1="-3557.56" y1="4878.57" x2="-1332.98" y2="2653.99" gradientUnits="userSpaceOnUse">
<stop stop-color="white"/>
<stop offset="1" stop-color="#D3D8DF"/>
</linearGradient>
<linearGradient id="paint8_linear_19827_11392" x1="-2500.5" y1="4825.08" x2="-275.918" y2="2600.5" gradientUnits="userSpaceOnUse">
<stop stop-color="white"/>
<stop offset="1" stop-color="#D3D8DF"/>
</linearGradient>
<linearGradient id="paint9_linear_19827_11392" x1="-2094.66" y1="5369.35" x2="129.922" y2="3144.77" gradientUnits="userSpaceOnUse">
<stop stop-color="white"/>
<stop offset="1" stop-color="#D3D8DF"/>
</linearGradient>
<clipPath id="clip0_19827_11392">
<rect width="1941" height="1490" fill="white"/>
</clipPath>
</defs>
</svg>
