
<svg width="213" height="44" viewBox="0 0 213 44" fill="none" xmlns="http://www.w3.org/2000/svg">
<path d="M29.2528 17.6071C30.5075 7.9847 24.2339 4.8918 21.2227 4.68561L11.9019 3.60456C12.8818 2.68816 15.7879 -0.208063 21.581 0.0118768C27.3742 0.231817 31.5471 5.60201 32.5508 8.05344C35.4189 14.8578 33.698 19.1879 33.0528 20.9749C32.8935 21.4159 32.4793 21.7309 32.0491 21.6622C31.4755 21.4561 29.2528 19.8753 29.0376 19.4628C28.7475 18.9064 29.1318 18.5356 29.2528 17.6071Z" fill="url(#paint0_linear_19827_11632)"/>
<path d="M14.9132 36.4163C14.9132 35.0626 13.8218 33.9652 12.4754 33.9652C11.1291 33.9652 10.0377 35.0626 10.0377 36.4163V41.5489C10.0377 42.9026 11.1291 44 12.4754 44C13.8218 44 14.9132 42.9026 14.9132 41.5489V36.4163Z" fill="url(#paint1_linear_19827_11632)"/>
<path d="M14.9132 16.759C14.9132 15.4053 13.8218 14.308 12.4754 14.308C11.1291 14.308 10.0377 15.4053 10.0377 16.759V28.3524C10.0377 29.706 11.1291 30.8034 12.4754 30.8034C13.8218 30.8034 14.9132 29.706 14.9132 28.3524V16.759Z" fill="url(#paint2_linear_19827_11632)"/>
<path d="M2.32415 39.3261C1.04056 39.3261 0 40.3723 0 41.6629C0 42.9535 1.04056 43.9998 2.32415 43.9998H12.589C13.8726 43.9998 14.9132 42.9535 14.9132 41.6629C14.9132 40.3723 13.8726 39.3261 12.589 39.3261H2.32415Z" fill="url(#paint3_linear_19827_11632)"/>
<path d="M12.3618 26.1298C11.0782 26.1298 10.0377 27.1761 10.0377 28.4667C10.0377 29.7573 11.0782 30.8036 12.3618 30.8036H22.6267C23.9103 30.8036 24.9509 29.7573 24.9509 28.4667C24.9509 27.1761 23.9103 26.1298 22.6267 26.1298H12.3618Z" fill="url(#paint4_linear_19827_11632)"/>
<path d="M23.4034 39.3261C22.1198 39.3261 21.0792 40.3723 21.0792 41.6629C21.0792 42.9535 22.1198 43.9998 23.4034 43.9998H35.6758C36.9594 43.9998 38 42.9535 38 41.6629C38 40.3723 36.9594 39.3261 35.6758 39.3261H23.4034Z" fill="url(#paint5_linear_19827_11632)"/>
<path d="M2.32415 0.0118893C1.04056 0.0118893 3.66172e-08 1.05814 3.66172e-08 2.34875C3.66172e-08 3.63936 1.04056 4.68561 2.32415 4.68561H21.3362C22.6198 4.68561 23.6603 3.63936 23.6603 2.34875C23.6603 1.05814 22.6198 0.0118893 21.3362 0.0118893H2.32415Z" fill="url(#paint6_linear_19827_11632)"/>
<path d="M1.62021e-05 41.1365C1.62021e-05 42.4902 1.09142 43.5876 2.43775 43.5876C3.78407 43.5876 4.87547 42.4902 4.87547 41.1365V2.46309C4.87547 1.1094 3.78407 0.012021 2.43775 0.012021C1.09142 0.012021 1.62021e-05 1.1094 1.62021e-05 2.46309V41.1365Z" fill="url(#paint7_linear_19827_11632)"/>
<path d="M37.9235 40.9898C38.0816 42.3606 37.068 43.5678 35.7037 43.7174C34.2843 43.8728 33.0195 42.8274 32.8212 41.4058C31.0269 28.5389 25.5902 23.5277 12.3808 18.9797C11.1318 18.5497 10.4262 17.2029 10.8187 15.9355C11.1884 14.7417 12.4099 14.024 13.6149 14.3334C29.2173 18.3391 36.3615 27.4459 37.9235 40.9898Z" fill="url(#paint8_linear_19827_11632)"/>
<path d="M59.4 35.8H55V7.08H65.72C72.32 7.08 76.28 10.32 76.28 16.04C76.28 20.16 73.68 23.32 69.32 24.36L77.12 35.8H71.84L64.68 25H59.4V35.8ZM59.4 10.76V21.32H65.44C69.52 21.32 71.84 19.52 71.84 16.04C71.84 12.6 69.52 10.76 65.44 10.76H59.4Z" fill="#FDF3EF"/>
<path d="M85.1672 9.68C85.1672 11.2 83.9672 12.36 82.2472 12.36C80.5272 12.36 79.2872 11.2 79.2872 9.68C79.2872 8.12 80.5272 7 82.2472 7C83.9672 7 85.1672 8.12 85.1672 9.68ZM84.2872 35.8H80.2472V14.6H84.2872V35.8Z" fill="#FDF3EF"/>
<path d="M101.056 31.88V35.44C99.8156 36 98.7356 36.2 97.4556 36.2C93.5356 36.2 90.8156 34.08 90.8156 29.4V18.04H86.1356V14.6H90.8156V8.32H94.8556V14.6H101.256V18.04H94.8556V28.48C94.8556 31.4 96.2556 32.44 98.4156 32.44C99.3756 32.44 100.216 32.28 101.056 31.88Z" fill="#FDF3EF"/>
<path d="M117.151 35.8V32.52C115.831 34.88 113.471 36.2 110.351 36.2C105.951 36.2 103.071 33.68 103.071 29.8C103.071 25.64 106.391 23.48 112.711 23.48C113.951 23.48 114.951 23.52 116.671 23.72V22.16C116.671 19.12 115.031 17.4 112.231 17.4C109.271 17.4 107.471 19.16 107.351 22.12H103.671C103.871 17.36 107.271 14.2 112.231 14.2C117.471 14.2 120.511 17.16 120.511 22.2V35.8H117.151ZM106.911 29.68C106.911 31.88 108.551 33.32 111.151 33.32C114.551 33.32 116.671 31.2 116.671 27.96V26.24C115.111 26.04 113.991 26 112.951 26C108.911 26 106.911 27.2 106.911 29.68Z" fill="#FDF3EF"/>
<path d="M142.072 35.8H132.992V7.08H142.072C151.232 7.08 156.512 12.92 156.512 21.32C156.512 29.6 151.032 35.8 142.072 35.8ZM137.392 10.88V32H141.872C148.472 32 152.032 27.92 152.032 21.32C152.032 14.84 148.512 10.88 141.872 10.88H137.392Z" fill="#FDF3EF"/>
<path d="M172.837 35.8V32.52C171.517 34.88 169.157 36.2 166.037 36.2C161.637 36.2 158.757 33.68 158.757 29.8C158.757 25.64 162.077 23.48 168.397 23.48C169.637 23.48 170.637 23.52 172.357 23.72V22.16C172.357 19.12 170.717 17.4 167.917 17.4C164.957 17.4 163.157 19.16 163.037 22.12H159.357C159.557 17.36 162.957 14.2 167.917 14.2C173.157 14.2 176.197 17.16 176.197 22.2V35.8H172.837ZM162.597 29.68C162.597 31.88 164.237 33.32 166.837 33.32C170.237 33.32 172.357 31.2 172.357 27.96V26.24C170.797 26.04 169.677 26 168.637 26C164.597 26 162.597 27.2 162.597 29.68Z" fill="#FDF3EF"/>
<path d="M192.563 31.88V35.44C191.323 36 190.243 36.2 188.963 36.2C185.043 36.2 182.323 34.08 182.323 29.4V18.04H177.643V14.6H182.323V8.32H186.363V14.6H192.763V18.04H186.363V28.48C186.363 31.4 187.763 32.44 189.923 32.44C190.883 32.44 191.723 32.28 192.563 31.88Z" fill="#FDF3EF"/>
<path d="M208.659 35.8V32.52C207.339 34.88 204.979 36.2 201.859 36.2C197.459 36.2 194.579 33.68 194.579 29.8C194.579 25.64 197.899 23.48 204.219 23.48C205.459 23.48 206.459 23.52 208.179 23.72V22.16C208.179 19.12 206.539 17.4 203.739 17.4C200.779 17.4 198.979 19.16 198.859 22.12H195.179C195.379 17.36 198.779 14.2 203.739 14.2C208.979 14.2 212.019 17.16 212.019 22.2V35.8H208.659ZM198.419 29.68C198.419 31.88 200.059 33.32 202.659 33.32C206.059 33.32 208.179 31.2 208.179 27.96V26.24C206.619 26.04 205.499 26 204.459 26C200.419 26 198.419 27.2 198.419 29.68Z" fill="#FDF3EF"/>
<defs>
<linearGradient id="paint0_linear_19827_11632" x1="-4.75" y1="2.97299" x2="263.646" y2="48.0374" gradientUnits="userSpaceOnUse">
<stop stop-color="#915EFF"/>
<stop offset="0.168619" stop-color="#FED5C5"/>
<stop offset="0.445538" stop-color="#FED5C5"/>
<stop offset="0.540076" stop-color="#FED5C5"/>
<stop offset="1" stop-color="#FED5C5"/>
</linearGradient>
<linearGradient id="paint1_linear_19827_11632" x1="-4.75" y1="2.97299" x2="263.646" y2="48.0374" gradientUnits="userSpaceOnUse">
<stop stop-color="#915EFF"/>
<stop offset="0.168619" stop-color="#FED5C5"/>
<stop offset="0.445538" stop-color="#FED5C5"/>
<stop offset="0.540076" stop-color="#FED5C5"/>
<stop offset="1" stop-color="#FED5C5"/>
</linearGradient>
<linearGradient id="paint2_linear_19827_11632" x1="-4.75" y1="2.97299" x2="263.646" y2="48.0374" gradientUnits="userSpaceOnUse">
<stop stop-color="#915EFF"/>
<stop offset="0.168619" stop-color="#FED5C5"/>
<stop offset="0.445538" stop-color="#FED5C5"/>
<stop offset="0.540076" stop-color="#FED5C5"/>
<stop offset="1" stop-color="#FED5C5"/>
</linearGradient>
<linearGradient id="paint3_linear_19827_11632" x1="-4.75" y1="2.97299" x2="263.646" y2="48.0374" gradientUnits="userSpaceOnUse">
<stop stop-color="#915EFF"/>
<stop offset="0.168619" stop-color="#FED5C5"/>
<stop offset="0.445538" stop-color="#FED5C5"/>
<stop offset="0.540076" stop-color="#FED5C5"/>
<stop offset="1" stop-color="#FED5C5"/>
</linearGradient>
<linearGradient id="paint4_linear_19827_11632" x1="-4.75" y1="2.97299" x2="263.646" y2="48.0374" gradientUnits="userSpaceOnUse">
<stop stop-color="#915EFF"/>
<stop offset="0.168619" stop-color="#FED5C5"/>
<stop offset="0.445538" stop-color="#FED5C5"/>
<stop offset="0.540076" stop-color="#FED5C5"/>
<stop offset="1" stop-color="#FED5C5"/>
</linearGradient>
<linearGradient id="paint5_linear_19827_11632" x1="-4.75" y1="2.97299" x2="263.646" y2="48.0374" gradientUnits="userSpaceOnUse">
<stop stop-color="#915EFF"/>
<stop offset="0.168619" stop-color="#FED5C5"/>
<stop offset="0.445538" stop-color="#FED5C5"/>
<stop offset="0.540076" stop-color="#FED5C5"/>
<stop offset="1" stop-color="#FED5C5"/>
</linearGradient>
<linearGradient id="paint6_linear_19827_11632" x1="-4.75" y1="2.97299" x2="263.646" y2="48.0374" gradientUnits="userSpaceOnUse">
<stop stop-color="#915EFF"/>
<stop offset="0.168619" stop-color="#FED5C5"/>
<stop offset="0.445538" stop-color="#FED5C5"/>
<stop offset="0.540076" stop-color="#FED5C5"/>
<stop offset="1" stop-color="#FED5C5"/>
</linearGradient>
<linearGradient id="paint7_linear_19827_11632" x1="-4.75" y1="2.97299" x2="263.646" y2="48.0374" gradientUnits="userSpaceOnUse">
<stop stop-color="#915EFF"/>
<stop offset="0.168619" stop-color="#FED5C5"/>
<stop offset="0.445538" stop-color="#FED5C5"/>
<stop offset="0.540076" stop-color="#FED5C5"/>
<stop offset="1" stop-color="#FED5C5"/>
</linearGradient>
<linearGradient id="paint8_linear_19827_11632" x1="-4.75" y1="2.97299" x2="263.646" y2="48.0374" gradientUnits="userSpaceOnUse">
<stop stop-color="#915EFF"/>
<stop offset="0.168619" stop-color="#FED5C5"/>
<stop offset="0.445538" stop-color="#FED5C5"/>
<stop offset="0.540076" stop-color="#FED5C5"/>
<stop offset="1" stop-color="#FED5C5"/>
</linearGradient>
</defs>
</svg>
