<svg width="24" height="24" viewBox="0 0 24 24" fill="none" xmlns="http://www.w3.org/2000/svg">
<g clip-path="url(#clip0_19827_11451)">
<path d="M20.2346 5.68463C20.6666 4.48963 19.5086 3.33163 18.3136 3.76463L3.70855 9.04663C2.50955 9.48063 2.36455 11.1166 3.46755 11.7556L8.12955 14.4546L12.2926 10.2916C12.4812 10.1095 12.7338 10.0087 12.996 10.011C13.2582 10.0132 13.509 10.1184 13.6944 10.3038C13.8798 10.4892 13.9849 10.74 13.9872 11.0022C13.9895 11.2644 13.8887 11.517 13.7066 11.7056L9.54355 15.8686L12.2436 20.5306C12.8816 21.6336 14.5176 21.4876 14.9516 20.2896L20.2346 5.68463Z" fill="black"/>
</g>
<defs>
<clipPath id="clip0_19827_11451">
<rect width="24" height="24" fill="white"/>
</clipPath>
</defs>
</svg>
