<svg width="22" height="22" viewBox="0 0 22 22" fill="none" xmlns="http://www.w3.org/2000/svg">
<path opacity="0.5" d="M14.2083 10.0833C14.573 10.0833 14.9227 9.93847 15.1806 9.68061C15.4385 9.42274 15.5833 9.07301 15.5833 8.70833C15.5833 8.34366 15.4385 7.99392 15.1806 7.73606C14.9227 7.4782 14.573 7.33333 14.2083 7.33333C13.8437 7.33333 13.4939 7.4782 13.2361 7.73606C12.9782 7.99392 12.8333 8.34366 12.8333 8.70833C12.8333 9.07301 12.9782 9.42274 13.2361 9.68061C13.4939 9.93847 13.8437 10.0833 14.2083 10.0833ZM9.16667 8.70833C9.16667 9.07301 9.0218 9.42274 8.76394 9.68061C8.50608 9.93847 8.15634 10.0833 7.79167 10.0833C7.42699 10.0833 7.07726 9.93847 6.81939 9.68061C6.56153 9.42274 6.41667 9.07301 6.41667 8.70833C6.41667 8.34366 6.56153 7.99392 6.81939 7.73606C7.07726 7.4782 7.42699 7.33333 7.79167 7.33333C8.15634 7.33333 8.50608 7.4782 8.76394 7.73606C9.0218 7.99392 9.16667 8.34366 9.16667 8.70833ZM5.80067 13.8692C5.95093 13.7669 6.13557 13.7283 6.31423 13.7618C6.49288 13.7953 6.651 13.8981 6.754 14.0479L6.76225 14.0589L6.80258 14.113C6.84108 14.1625 6.90342 14.2377 6.98867 14.3312C7.16008 14.5173 7.42133 14.7712 7.77517 15.0251C8.47917 15.532 9.54433 16.0417 11 16.0417C12.4557 16.0417 13.5208 15.532 14.2248 15.0251C14.5787 14.7712 14.8408 14.5173 15.0113 14.3312C15.0914 14.2441 15.1673 14.1532 15.2387 14.0589L15.2451 14.0498C15.3478 13.899 15.5062 13.7953 15.6854 13.7613C15.8646 13.7274 16.05 13.766 16.2007 13.8687C16.3514 13.9714 16.4552 14.1298 16.4891 14.309C16.5231 14.4882 16.4845 14.6736 16.3818 14.8243L16.3799 14.8253V14.8271L16.3772 14.8298L16.3708 14.839L16.3506 14.8674C16.2488 15.0036 16.1402 15.1345 16.0252 15.2597C15.7236 15.5868 15.3894 15.8823 15.0278 16.1416C14.1387 16.7805 12.7985 17.4167 11 17.4167C9.2015 17.4167 7.86133 16.7805 6.97217 16.1416C6.6106 15.8823 6.27643 15.5868 5.97483 15.2597C5.85249 15.1261 5.73744 14.9859 5.63017 14.8399L5.62283 14.8308L5.621 14.8271L5.62008 14.8253L5.61917 14.8243C5.51657 14.6736 5.47806 14.4883 5.5121 14.3092C5.54614 14.13 5.64994 13.9718 5.80067 13.8692ZM11 0C4.92525 0 0 4.92525 0 11C0 17.0748 4.92525 22 11 22C17.0748 22 22 17.0748 22 11C22 4.92525 17.0748 0 11 0ZM1.375 11C1.375 5.68425 5.68425 1.375 11 1.375C16.3158 1.375 20.625 5.68425 20.625 11C20.625 16.3158 16.3158 20.625 11 20.625C5.68425 20.625 1.375 16.3158 1.375 11Z" fill="white"/>
</svg>