<svg width="22" height="23" viewBox="0 0 22 23" fill="none" xmlns="http://www.w3.org/2000/svg">
<path fill-rule="evenodd" clip-rule="evenodd" d="M11.0013 3.42074C6.44495 3.42074 2.7513 7.11439 2.7513 11.6707C2.7513 16.2271 6.44495 19.9207 11.0013 19.9207C15.5577 19.9207 19.2513 16.2271 19.2513 11.6707C19.2513 7.11439 15.5577 3.42074 11.0013 3.42074ZM0.917969 11.6707C0.917969 6.10187 5.43243 1.5874 11.0013 1.5874C16.5701 1.5874 21.0846 6.10187 21.0846 11.6707C21.0846 17.2396 16.5701 21.7541 11.0013 21.7541C5.43243 21.7541 0.917969 17.2396 0.917969 11.6707Z" fill="#A097A3"/>
<path fill-rule="evenodd" clip-rule="evenodd" d="M12.6576 7.2104C13.0961 6.95724 13.6567 7.10741 13.9098 7.54582L19.1715 16.6575C19.4247 17.0959 19.2745 17.6566 18.8361 17.9097C18.3977 18.1628 17.8371 18.0127 17.5839 17.5743L12.3222 8.46263C12.0691 8.02421 12.2192 7.46358 12.6576 7.2104Z" fill="#A097A3"/>
<path fill-rule="evenodd" clip-rule="evenodd" d="M7.96875 8.00407C7.96875 7.49781 8.37915 7.0874 8.88542 7.0874H19.4087C19.915 7.0874 20.3254 7.49781 20.3254 8.00407C20.3254 8.51033 19.915 8.92074 19.4087 8.92074H8.88542C8.37915 8.92074 7.96875 8.51033 7.96875 8.00407Z" fill="#A097A3"/>
<path fill-rule="evenodd" clip-rule="evenodd" d="M12.4845 1.76509C12.9229 2.01826 13.0731 2.5789 12.82 3.01731L7.5583 12.129C7.30512 12.5674 6.74449 12.7176 6.30607 12.4644C5.86766 12.2112 5.71749 11.6506 5.97066 11.2122L11.2323 2.10051C11.4855 1.66209 12.0461 1.51193 12.4845 1.76509Z" fill="#A097A3"/>
<path fill-rule="evenodd" clip-rule="evenodd" d="M3.16154 5.43111C3.59996 5.17794 4.16059 5.32811 4.41377 5.76652L9.67546 14.8782C9.92864 15.3166 9.7784 15.8772 9.34005 16.1304C8.9016 16.3836 8.34097 16.2334 8.08779 15.795L2.82613 6.68333C2.57296 6.24491 2.72313 5.68428 3.16154 5.43111Z" fill="#A097A3"/>
<path fill-rule="evenodd" clip-rule="evenodd" d="M1.67578 15.3371C1.67578 14.8308 2.08619 14.4204 2.59245 14.4204H13.1158C13.622 14.4204 14.0324 14.8308 14.0324 15.3371C14.0324 15.8434 13.622 16.2537 13.1158 16.2537H2.59245C2.08619 16.2537 1.67578 15.8434 1.67578 15.3371Z" fill="#A097A3"/>
<path fill-rule="evenodd" clip-rule="evenodd" d="M15.6915 10.8764C16.13 11.1296 16.2801 11.6903 16.027 12.1286L10.7654 21.2403C10.5122 21.6787 9.95154 21.8289 9.5131 21.5757C9.07469 21.3226 8.92452 20.762 9.17769 20.3235L14.4394 11.2118C14.6925 10.7734 15.2532 10.6233 15.6915 10.8764Z" fill="#A097A3"/>
</svg>
