<svg width="24" height="24" viewBox="0 0 24 24" fill="none" xmlns="http://www.w3.org/2000/svg">
<g clip-path="url(#clip0_346_2424)">
<path d="M14.8289 6.34313L16.2431 4.92892L12.0005 0.686279L7.75781 4.92892L9.17202 6.34313L12.0005 3.51471L14.8289 6.34313Z" fill="#503658"/>
<path d="M4.93014 16.2426L6.34435 14.8284L3.51593 12L6.34435 9.17153L4.93014 7.75732L0.6875 12L4.93014 16.2426Z" fill="#503658"/>
<path d="M7.75781 19.071L12.0005 23.3136L16.2431 19.071L14.8289 17.6567L12.0005 20.4852L9.17202 17.6567L7.75781 19.071Z" fill="#503658"/>
<path d="M17.6562 9.17153L20.4848 12L17.6562 14.8284L19.0706 16.2426L23.3132 12L19.0706 7.75732L17.6562 9.17153Z" fill="#503658"/>
<path fill-rule="evenodd" clip-rule="evenodd" d="M12 8C14.2091 8 16 9.79086 16 12C16 14.2091 14.2091 16 12 16C9.79086 16 8 14.2091 8 12C8 9.79086 9.79086 8 12 8ZM12 10C13.1046 10 14 10.8954 14 12C14 13.1046 13.1046 14 12 14C10.8954 14 10 13.1046 10 12C10 10.8954 10.8954 10 12 10Z" fill="#503658"/>
</g>
<defs>
<clipPath id="clip0_346_2424">
<rect width="24" height="24" fill="white"/>
</clipPath>
</defs>
</svg>
