<svg width="24" height="25" viewBox="0 0 24 25" fill="none" xmlns="http://www.w3.org/2000/svg">
<path d="M7.58151 20.6785H4.26429V9.99609H7.58151V20.6785ZM5.92111 8.53891C4.86038 8.53891 4 7.66032 4 6.59958C4 5.53858 4.86011 4.67847 5.92111 4.67847C6.98212 4.67847 7.84223 5.53858 7.84223 6.59958C7.84223 7.66032 6.98149 8.53891 5.92111 8.53891ZM19.9968 20.6785H16.6867V15.4784C16.6867 14.239 16.6617 12.6497 14.962 12.6497C13.2373 12.6497 12.9731 13.9962 12.9731 15.3891V20.6785H9.65941V9.99609H12.8409V11.4533H12.8873C13.3302 10.614 14.412 9.72822 16.026 9.72822C19.3832 9.72822 20.0004 11.939 20.0004 14.8105V20.6785H19.9968Z" fill="#FFEBE0"/>
</svg>
