<svg width="41" height="40" viewBox="0 0 41 40" fill="none" xmlns="http://www.w3.org/2000/svg">
<g clip-path="url(#clip0_8204_49881)">
<path fill-rule="evenodd" clip-rule="evenodd" d="M0.91449 40H40.9145V0H0.91449V40Z" fill="#18457C"/>
<path fill-rule="evenodd" clip-rule="evenodd" d="M8.24591 3.99913H7.13673L7.15322 11.5944C7.15322 12.888 7.25134 12.888 8.24591 12.888C9.92609 12.888 11.2144 11.6698 11.1331 8.19538C11.0513 4.84136 9.63235 3.99913 8.24591 3.99913ZM8.23746 13.7769H3.58118V13.3844C4.0357 13.3844 4.28665 13.3089 4.4119 13.1882C4.66316 12.9465 4.69394 12.7956 4.69394 8.67328C4.69394 4.55123 4.66316 4.38526 4.4119 4.14357C4.28665 4.02266 4.0357 3.96234 3.58118 3.96234V3.55469H8.23746C11.9535 3.55469 13.8034 5.35143 13.8034 8.32608C13.8034 11.8895 11.6868 13.7769 8.23746 13.7769Z" fill="#B0CFE7"/>
<path fill-rule="evenodd" clip-rule="evenodd" d="M20.4701 11.6177L20.3937 13.7769H13.3589V13.3844C13.8038 13.3844 14.0488 13.3089 14.1716 13.1882C14.4166 12.9465 14.4475 12.7956 14.4475 8.67328C14.4475 4.55123 14.4166 4.38526 14.1716 4.14357C14.0488 4.02266 13.8038 3.96234 13.3589 3.96234V3.55469H20.3937L20.4701 5.71374H20.0253L20.0103 5.50257C19.9489 4.71734 19.4433 4.219 18.5389 4.219H16.8839V8.14486H18.0029C19.1676 8.14486 19.4896 7.87308 19.5815 6.93685H20.0253V10.0021H19.5815C19.4896 9.06612 19.1676 8.7942 18.0029 8.7942H16.8839V11.7838C16.8839 13.0824 16.9759 13.1277 17.9107 13.1277H18.5543C19.3512 13.1277 19.9339 12.584 19.9952 11.829L20.0103 11.6177H20.4701Z" fill="#B0CFE7"/>
<path fill-rule="evenodd" clip-rule="evenodd" d="M12.0256 16.3819H11.6111L11.5954 16.095C11.5188 15.5818 11.2118 14.887 10.1215 14.887H9.01648V21.5309C9.01648 23.8714 9.26194 24.0676 10.398 24.0676V24.4449H5.20862V24.0676C6.34486 24.0676 6.59061 23.8714 6.59061 21.5309V14.887H5.48481C4.39527 14.887 4.08805 15.5818 4.01105 16.095L3.99539 16.3819H3.58118L3.61191 14.2227H11.9949L12.0256 16.3819Z" fill="white"/>
<path fill-rule="evenodd" clip-rule="evenodd" d="M16.47 24.4449H12.0256V24.0523C12.4552 24.0523 12.6923 23.9769 12.8108 23.856C13.0477 23.6144 13.0775 23.4639 13.0775 19.3415C13.0775 15.2194 13.0477 15.0531 12.8108 14.8116C12.6923 14.6906 12.4552 14.6302 12.0256 14.6302V14.2227H16.47V14.6302C16.0401 14.6302 15.803 14.6906 15.6846 14.8116C15.4472 15.0531 15.4178 15.2042 15.4178 19.3261C15.4178 23.4485 15.4472 23.6144 15.6846 23.856C15.803 23.9769 16.0401 24.0523 16.47 24.0523V24.4449Z" fill="white"/>
<path fill-rule="evenodd" clip-rule="evenodd" d="M21.8034 14.6408C21.3446 14.6408 21.091 14.7028 20.9646 14.8269C20.7113 15.0747 20.6796 15.2298 20.6796 19.459V24.3859C20.6796 27.6086 19.1444 28.4449 17.2299 28.4449H16.47V28.0264C17.9574 28.0264 18.1318 26.9112 18.1479 24.603C18.1479 24.603 18.1632 24.014 18.1632 21.6127V19.4748C18.1632 15.2453 18.1479 15.0747 17.8943 14.8269C17.7676 14.7028 17.5146 14.6408 17.0558 14.6408V14.2227H21.8034V14.6408Z" fill="white"/>
<path fill-rule="evenodd" clip-rule="evenodd" d="M26.4677 14.6671H25.359L25.375 22.2626C25.375 23.556 25.4728 23.556 26.4677 23.556C28.148 23.556 29.4366 22.3377 29.3553 18.8633C29.2738 15.5093 27.8548 14.6671 26.4677 14.6671ZM26.4598 24.4449H21.8034V24.0523C22.2585 24.0523 22.509 23.9769 22.6345 23.856C22.8856 23.6144 22.917 23.4639 22.917 19.3415C22.917 15.2194 22.8856 15.0531 22.6345 14.8116C22.509 14.6906 22.2585 14.6302 21.8034 14.6302V14.2227H26.4598C30.1755 14.2227 32.0256 16.0193 32.0256 18.9941C32.0256 22.5574 29.9091 24.4449 26.4598 24.4449Z" fill="white"/>
</g>
<defs>
<clipPath id="clip0_8204_49881">
<rect width="40" height="40" fill="white" transform="translate(0.91449)"/>
</clipPath>
</defs>
</svg>
