<svg width="202" height="40" viewBox="0 0 202 40" fill="none" xmlns="http://www.w3.org/2000/svg">
<g clip-path="url(#clip0_8204_49866)">
<path d="M7.94979 29.2424V0H6.55197L0.390381 2.92983V3.80207L1.94476 5.33408V29.2424C1.94476 30.6178 1.8553 31.1993 0.390381 31.3111V32.7761H9.44825V31.3111C8.03925 31.1993 7.94979 30.6178 7.94979 29.2424Z" fill="#2F3C44"/>
<path d="M25.3722 28.5717V17.8924C25.3722 13.3075 22.6548 11.0039 17.4214 11.0039C13.3286 11.0039 10.5665 13.0839 10.5665 15.9466C10.5513 16.3455 10.6173 16.7433 10.7602 17.116C10.9032 17.4887 11.1203 17.8285 11.3983 18.1149C11.6764 18.4013 12.0096 18.6283 12.3779 18.7823C12.7462 18.9363 13.1419 19.0139 13.541 19.0106C13.8821 19.0446 14.2265 19.0048 14.5509 18.8941C14.8754 18.7834 15.1722 18.6043 15.4214 18.3689C15.6705 18.1335 15.8662 17.8473 15.9952 17.5297C16.1242 17.2122 16.1834 16.8706 16.1689 16.5281C16.1689 14.7724 14.6034 14.2916 14.6034 13.7548C14.6034 13.2181 15.375 12.8378 16.3702 12.8378C18.4837 12.8378 19.3224 13.8443 19.3224 16.3603V19.3796L15.7105 21.0682C11.6959 22.891 9.99617 24.6019 9.99617 27.9567C9.94802 28.6573 10.0508 29.3601 10.2975 30.0177C10.5441 30.6752 10.9291 31.2722 11.4262 31.7682C11.9233 32.2643 12.5211 32.6479 13.1792 32.8932C13.8372 33.1385 14.5403 33.2397 15.2408 33.1901C16.1611 33.1596 17.0576 32.8899 17.8419 32.4075C18.6262 31.9251 19.2714 31.2467 19.7138 30.4392C19.8797 31.2557 20.336 31.9844 20.9981 32.4902C21.6602 32.996 22.4832 33.2447 23.3146 33.1901C24.0334 33.2115 24.7481 33.0754 25.4088 32.7915C26.0694 32.5075 26.66 32.0825 27.139 31.5463V30.0813C26.8874 30.2507 26.5924 30.3439 26.2892 30.3497C25.6853 30.3497 25.3722 29.813 25.3722 28.5717ZM19.3224 27.6771C19.3224 29.019 18.5732 30.0813 17.4102 30.0813C16.2472 30.0813 15.6322 29.0861 15.6322 26.939C15.6322 24.4342 16.3479 23.3383 17.7345 22.343L19.3224 21.2248V27.6771Z" fill="#2F3C44"/>
<path d="M55.6993 25.0821C54.8606 19.4908 52.9819 17.4779 48.9227 16.6392C53.9436 15.6328 56.2025 12.9937 56.2025 9.21401C56.2025 4.08121 52.6912 0.927734 45.6014 0.927734H34.8885V2.39265C37.0691 2.57157 37.2928 3.27607 37.2928 5.36721V28.3138C37.2928 30.3602 36.756 31.1094 34.8885 31.2884V32.7533H46.5296V31.3107C44.6174 31.1318 44.1253 30.3826 44.1253 28.3362V17.3773H44.7963C45.4611 17.2915 46.1351 17.4399 46.7024 17.7971C47.2697 18.1542 47.6949 18.6977 47.905 19.3342C48.5201 21.5707 48.5425 26.3345 49.4147 29.3985C50.2869 32.4625 52.2998 33.0105 55.006 33.0105C56.4346 33.0564 57.8478 32.7041 59.0876 31.9929L59.0093 30.528C57.1977 30.9305 56.4709 30.1925 55.6993 25.0821ZM44.5167 15.4874H44.1142V2.85113H44.6621C48.3188 2.85113 49.2246 4.78572 49.2246 9.47121C49.2246 14.1567 48.3076 15.4874 44.5279 15.4874H44.5167Z" fill="#2F3C44"/>
<path d="M68.9394 29.2762C66.2109 29.2762 64.3322 26.4135 64.1086 20.3302H73.7927V19.6592C73.7927 14.1574 70.7846 11.0039 66.7141 11.0039C61.928 11.0039 58.193 15.3539 58.193 22.466C58.193 29.1756 61.749 33.246 66.5799 33.246C70.1807 33.246 72.4955 31.3897 73.9492 27.733L72.6632 26.7825C71.6232 28.4263 70.6504 29.2762 68.9394 29.2762ZM66.3674 12.849C67.4857 12.849 68.2685 14.2245 68.2685 17.7917V18.4403H64.1309C64.1868 14.0791 65.1709 12.849 66.3674 12.849Z" fill="#2F3C44"/>
<path d="M86.9546 11.0256C85.9634 11.0177 84.9874 11.2683 84.1226 11.7527C83.2578 12.237 82.5342 12.9384 82.0231 13.7877V11.0256H80.6812L74.5196 13.5305V14.4027L76.074 15.9235V36.4882C76.074 37.8637 75.9845 38.4452 74.4749 38.5347V39.9996H83.7228V38.5347C82.1573 38.4452 82.0678 37.8637 82.0678 36.4882V32.7533C82.9549 33.0836 83.8945 33.2503 84.8411 33.2453C89.918 33.2453 93.0938 28.6381 93.0938 21.0451C93.0938 14.2797 90.5666 11.0256 86.9546 11.0256ZM84.2596 31.3107C82.7164 31.3107 82.0231 30.1925 82.0231 28.0678V17.2766C82.0231 15.5433 82.9624 14.3021 84.2596 14.3021C86.0153 14.3021 86.6303 17.0194 86.6303 23.55C86.6974 28.7723 86.3731 31.3107 84.2596 31.3107Z" fill="#2F3C44"/>
<path d="M110.952 27.8216V11.0478H109.577L103.617 12.4568V13.698C104.824 14.1901 104.958 15.1853 104.958 16.9074V27.1283C104.996 27.4563 104.967 27.7885 104.874 28.1053C104.781 28.4221 104.626 28.7172 104.418 28.9734C104.21 29.2296 103.952 29.4416 103.661 29.5971C103.37 29.7527 103.051 29.8486 102.722 29.8792C101.481 29.8792 100.989 29.0405 100.989 27.6427V11.0254H99.5796L93.3733 12.4344V13.6757C94.704 13.8993 94.95 14.9281 94.95 16.885V26.2001C94.95 31.0981 97.0747 33.2899 100.183 33.2899C101.165 33.2669 102.122 32.9861 102.96 32.4757C103.799 31.9654 104.488 31.2434 104.958 30.3824V32.9656H106.188L112.361 32.0486V30.5725C111.098 30.3041 110.952 29.9239 110.952 27.8216Z" fill="#2F3C44"/>
<path d="M124.629 11.026C123.652 11.038 122.694 11.2978 121.846 11.7809C120.997 12.2639 120.284 12.9546 119.775 13.7881V0H118.378L112.216 2.92983V3.80207L113.759 5.33408V30.1929C116.051 32.2667 119.07 33.3483 122.157 33.201C127.592 33.201 130.779 28.5938 130.779 21.0008C130.801 14.2801 128.274 11.026 124.629 11.026ZM121.922 31.3112C120.424 31.3112 119.775 30.2935 119.775 28.5602V17.277C119.775 15.5438 120.715 14.3025 122.012 14.3025C123.768 14.3025 124.383 17.0198 124.383 23.5505C124.405 28.7727 124.081 31.3112 121.922 31.3112Z" fill="#2F3C44"/>
<path d="M143.091 11.026C142.116 11.0389 141.16 11.2991 140.313 11.7822C139.467 12.2653 138.756 12.9555 138.249 13.7881V0H136.818L130.667 2.92983V3.80207L132.221 5.33408V30.1929C134.513 32.2667 137.533 33.3483 140.62 33.201C146.054 33.201 149.241 28.5938 149.241 21.0008C149.275 14.2801 146.748 11.026 143.091 11.026ZM140.396 31.3112C138.897 31.3112 138.249 30.2935 138.249 28.5602V17.277C138.249 15.5438 139.188 14.3025 140.485 14.3025C142.252 14.3025 142.867 17.0198 142.867 23.5505C142.878 28.7727 142.554 31.3112 140.396 31.3112Z" fill="#2F3C44"/>
<path d="M157.449 29.2424V0H156.052L149.901 2.92983V3.80207L151.455 5.33408V29.2424C151.455 30.6178 151.366 31.1993 149.923 31.2888V32.7537H158.981V31.3112C157.539 31.1993 157.449 30.6178 157.449 29.2424Z" fill="#2F3C44"/>
<path d="M164.338 8.0511C164.786 8.07725 165.236 8.01147 165.658 7.85779C166.08 7.70411 166.467 7.46577 166.794 7.1574C167.12 6.84902 167.381 6.47711 167.559 6.06449C167.737 5.65186 167.829 5.20722 167.829 4.75784C167.829 4.30846 167.737 3.86382 167.559 3.45119C167.381 3.03856 167.12 2.66665 166.794 2.35828C166.467 2.0499 166.08 1.81157 165.658 1.65789C165.236 1.5042 164.786 1.43842 164.338 1.46458C163.448 1.46458 162.595 1.81802 161.966 2.44716C161.336 3.07631 160.983 3.9296 160.983 4.81934C161.015 5.68759 161.382 6.50962 162.008 7.11239C162.634 7.71517 163.469 8.05168 164.338 8.0511Z" fill="#2F3C44"/>
<path d="M167.279 29.2418V11.0254H165.892L159.731 13.5303V14.4025L161.285 15.9233V29.2418C161.285 30.6172 161.195 31.1987 159.753 31.2882V32.7531H168.811V31.3105C167.368 31.1987 167.279 30.6172 167.279 29.2418Z" fill="#2F3C44"/>
<path d="M178.473 16.527C178.454 16.8627 178.507 17.1985 178.629 17.5118C178.751 17.8252 178.938 18.1089 179.179 18.344C179.419 18.5791 179.707 18.7601 180.023 18.8748C180.339 18.9896 180.676 19.0355 181.011 19.0095C181.419 19.0048 181.823 18.916 182.195 18.7486C182.568 18.5813 182.902 18.339 183.177 18.0368C183.452 17.7347 183.661 17.3792 183.793 16.9924C183.924 16.6057 183.975 16.196 183.941 15.789C183.941 12.8927 181.525 10.9805 178.092 10.9805C173.116 10.9805 169.012 14.8384 169.012 22.8004C169.012 29.0179 172.367 33.2449 177.254 33.2449C180.81 33.2449 182.509 30.8407 183.672 27.8661L181.66 26.8373C180.754 28.9732 179.971 30.1921 178.361 30.1921C175.856 30.1921 174.838 26.8932 174.838 20.0048C174.838 14.2234 176.214 12.8815 178.193 12.8815C179.177 12.8815 179.893 13.2393 179.893 13.7985C179.893 14.3576 178.473 14.7378 178.473 16.527Z" fill="#2F3C44"/>
<path d="M200.827 30.3497C200.211 30.3497 199.898 29.813 199.898 28.5717V17.8924C199.898 13.3075 197.192 11.0039 191.948 11.0039C187.855 11.0039 185.093 13.0839 185.093 15.9466C185.077 16.3464 185.144 16.7452 185.287 17.1186C185.431 17.4921 185.649 17.8324 185.928 18.119C186.208 18.4055 186.542 18.6323 186.912 18.7856C187.281 18.9389 187.678 19.0154 188.078 19.0106C188.419 19.0447 188.763 19.0051 189.087 18.8943C189.411 18.7835 189.707 18.6042 189.955 18.3686C190.204 18.133 190.398 17.8466 190.526 17.529C190.654 17.2114 190.711 16.87 190.695 16.5281C190.695 14.7724 189.13 14.2916 189.13 13.7548C189.13 13.2181 189.912 12.8378 190.908 12.8378C193.01 12.8378 193.849 13.8443 193.849 16.3603V19.3796L190.248 21.0235C186.222 22.8462 184.522 24.5907 184.522 27.9231C184.474 28.6238 184.577 29.3266 184.824 29.9841C185.07 30.6417 185.455 31.2386 185.952 31.7347C186.449 32.2307 187.047 32.6144 187.705 32.8597C188.363 33.105 189.066 33.2062 189.767 33.1565C190.687 33.126 191.584 32.8563 192.368 32.3739C193.152 31.8916 193.798 31.2132 194.24 30.4056C194.406 31.2221 194.862 31.9508 195.524 32.4566C196.186 32.9624 197.009 33.2111 197.841 33.1565C198.558 33.1852 199.273 33.0569 199.935 32.7807C200.598 32.5045 201.192 32.0871 201.676 31.5574V30.0813C201.425 30.2507 201.13 30.3439 200.827 30.3497ZM193.849 27.6771C193.849 29.019 193.099 30.0813 191.948 30.0813C190.796 30.0813 190.17 29.0861 190.17 26.939C190.17 24.4342 190.874 23.3383 192.261 22.343L193.849 21.2471V27.6771Z" fill="#2F3C44"/>
</g>
<defs>
<clipPath id="clip0_8204_49866">
<rect width="201.286" height="40" fill="white" transform="translate(0.390381)"/>
</clipPath>
</defs>
</svg>
