<svg width="65" height="65" viewBox="0 0 65 65" fill="none" xmlns="http://www.w3.org/2000/svg">
<path fill-rule="evenodd" clip-rule="evenodd" d="M31.7304 3.2694C32.3341 3.04301 32.9994 3.04301 33.6031 3.2694L54.9364 11.2694C55.9772 11.6597 56.6667 12.6547 56.6667 13.7663V32.4329C56.6667 41.6234 50.5821 48.9671 45.0894 53.7731C42.2871 56.2252 39.4973 58.1418 37.4134 59.4443C36.3687 60.0972 35.4943 60.6002 34.8749 60.9431C34.5651 61.1146 34.3186 61.2463 34.1459 61.337C34.0595 61.3823 33.9916 61.4174 33.9434 61.4421L33.8861 61.4713L33.8688 61.48L33.8631 61.4829C33.8622 61.4833 33.8593 61.4847 32.6667 59.0996C31.4742 61.4847 31.4734 61.4844 31.4725 61.4839L31.4647 61.48L31.4474 61.4713L31.3901 61.4421C31.3419 61.4174 31.274 61.3823 31.1876 61.337C31.0149 61.2463 30.7684 61.1146 30.4586 60.9431C29.8392 60.6002 28.9648 60.0972 27.9201 59.4443C25.8362 58.1418 23.0464 56.2252 20.2441 53.7731C14.7514 48.9671 8.66675 41.6234 8.66675 32.4329V13.7663C8.66675 12.6547 9.35628 11.6597 10.3971 11.2694L31.7304 3.2694ZM32.6667 59.0996L31.4725 61.4839C32.2233 61.8593 33.1086 61.8601 33.8593 61.4847L32.6667 59.0996ZM32.6667 56.067C33.1778 55.7773 33.8313 55.3938 34.5868 54.9216C36.5029 53.724 39.0464 51.974 41.5774 49.7594C46.7514 45.2321 51.3334 39.2424 51.3334 32.4329V15.6143L32.6667 8.61428L14.0001 15.6143V32.4329C14.0001 39.2424 18.5821 45.2321 23.7561 49.7594C26.2871 51.974 28.8306 53.724 30.7467 54.9216C31.5022 55.3938 32.1557 55.7773 32.6667 56.067Z" fill="#037B55"/>
</svg>
