<svg width="32" height="32" viewBox="0 0 32 32" fill="none" xmlns="http://www.w3.org/2000/svg">
<path fill-rule="evenodd" clip-rule="evenodd" d="M11.8887 3.23984C12.1833 3.91476 11.8749 4.70065 11.2 4.99517C9.40343 5.77915 7.82629 6.99128 6.60643 8.5256C5.38657 10.0599 4.56114 11.8697 4.20229 13.7967C3.84345 15.7238 3.96212 17.7093 4.54794 19.5799C5.13375 21.4505 6.16887 23.1491 7.5628 24.5272C8.95673 25.9053 10.667 26.9209 12.5442 27.4853C14.4213 28.0497 16.4081 28.1457 18.3309 27.7649C20.2537 27.3841 22.0539 26.538 23.5742 25.3007C25.0945 24.0634 26.2886 22.4725 27.052 20.6672C27.3388 19.9889 28.1211 19.6716 28.7993 19.9584C29.4776 20.2452 29.7949 21.0275 29.5081 21.7057C28.575 23.9123 27.1156 25.8567 25.2575 27.369C23.3994 28.8812 21.1991 29.9153 18.849 30.3808C16.4989 30.8462 14.0706 30.7289 11.7763 30.039C9.48203 29.3492 7.39167 28.1079 5.68798 26.4235C3.98429 24.7392 2.71914 22.6631 2.00315 20.3769C1.28715 18.0906 1.14211 15.6638 1.58069 13.3085C2.01928 10.9533 3.02814 8.74133 4.51908 6.86606C6.01002 4.99078 7.93764 3.50928 10.1334 2.55108C10.8083 2.25656 11.5942 2.56493 11.8887 3.23984Z" fill="#FFD5C3"/>
<path fill-rule="evenodd" clip-rule="evenodd" d="M15.0572 1.72451C15.3073 1.47446 15.6464 1.33398 16 1.33398C17.9261 1.33398 19.8333 1.71335 21.6127 2.45042C23.3922 3.18749 25.009 4.26783 26.3709 5.62975C27.7328 6.99168 28.8132 8.60852 29.5503 10.388C30.2873 12.1674 30.6667 14.0746 30.6667 16.0007C30.6667 16.737 30.0697 17.334 29.3334 17.334H16C15.2636 17.334 14.6667 16.737 14.6667 16.0007V2.66732C14.6667 2.3137 14.8072 1.97456 15.0572 1.72451ZM17.3334 4.07495V14.6673H27.9257C27.8007 13.5492 27.5188 12.452 27.0866 11.4084C26.4835 9.95254 25.5996 8.62967 24.4853 7.51537C23.371 6.40107 22.0481 5.51715 20.5922 4.9141C19.5487 4.48185 18.4515 4.19996 17.3334 4.07495Z" fill="#FFD5C3"/>
</svg>
