<svg width="24" height="24" viewBox="0 0 24 24" fill="none" xmlns="http://www.w3.org/2000/svg">
<path fill-rule="evenodd" clip-rule="evenodd" d="M1 12.0002C1 10.3434 2.34315 9.00024 4 9.00024H8C9.65685 9.00024 11 10.3434 11 12.0002V17.0002C11 17.5525 10.5523 18.0002 10 18.0002H2C1.44772 18.0002 1 17.5525 1 17.0002V12.0002ZM4 11.0002C3.44772 11.0002 3 11.448 3 12.0002V16.0002H9V12.0002C9 11.448 8.55228 11.0002 8 11.0002H4Z" fill="#503658"/>
<path fill-rule="evenodd" clip-rule="evenodd" d="M13.7647 11.576C13.9759 10.098 15.2416 9.00024 16.7346 9.00024H19.2654C20.7584 9.00024 22.0241 10.098 22.2353 11.576L22.99 16.8588C23.031 17.1458 22.9454 17.4364 22.7555 17.6554C22.5655 17.8744 22.2899 18.0002 22 18.0002H14C13.7101 18.0002 13.4345 17.8744 13.2446 17.6554C13.0546 17.4364 12.9691 17.1458 13.0101 16.8588L13.7647 11.576ZM16.7346 11.0002C16.2369 11.0002 15.815 11.3662 15.7446 11.8588L15.153 16.0002H20.847L20.2554 11.8588C20.185 11.3662 19.7631 11.0002 19.2654 11.0002H16.7346Z" fill="#503658"/>
<path fill-rule="evenodd" clip-rule="evenodd" d="M4 17.0002C4.55228 17.0002 5 17.448 5 18.0002L5 22.0002C5 22.5525 4.55228 23.0002 4 23.0002C3.44772 23.0002 3 22.5525 3 22.0002L3 18.0002C3 17.448 3.44772 17.0002 4 17.0002Z" fill="#503658"/>
<path fill-rule="evenodd" clip-rule="evenodd" d="M16 17.0002C16.5523 17.0002 17 17.448 17 18.0002L17 22.0002C17 22.5525 16.5523 23.0002 16 23.0002C15.4477 23.0002 15 22.5525 15 22.0002L15 18.0002C15 17.448 15.4477 17.0002 16 17.0002Z" fill="#503658"/>
<path fill-rule="evenodd" clip-rule="evenodd" d="M8 17.0002C8.55228 17.0002 9 17.448 9 18.0002L9 22.0002C9 22.5525 8.55228 23.0002 8 23.0002C7.44772 23.0002 7 22.5525 7 22.0002L7 18.0002C7 17.448 7.44772 17.0002 8 17.0002Z" fill="#503658"/>
<path fill-rule="evenodd" clip-rule="evenodd" d="M20 17.0002C20.5523 17.0002 21 17.448 21 18.0002L21 22.0002C21 22.5525 20.5523 23.0002 20 23.0002C19.4477 23.0002 19 22.5525 19 22.0002L19 18.0002C19 17.448 19.4477 17.0002 20 17.0002Z" fill="#503658"/>
<path fill-rule="evenodd" clip-rule="evenodd" d="M6 4.00024C5.44772 4.00024 5 4.44796 5 5.00024C5 5.55253 5.44772 6.00024 6 6.00024C6.55228 6.00024 7 5.55253 7 5.00024C7 4.44796 6.55228 4.00024 6 4.00024ZM3 5.00024C3 3.34339 4.34315 2.00024 6 2.00024C7.65685 2.00024 9 3.34339 9 5.00024C9 6.6571 7.65685 8.00024 6 8.00024C4.34315 8.00024 3 6.6571 3 5.00024Z" fill="#503658"/>
<path fill-rule="evenodd" clip-rule="evenodd" d="M18 4.00024C17.4477 4.00024 17 4.44796 17 5.00024C17 5.55253 17.4477 6.00024 18 6.00024C18.5523 6.00024 19 5.55253 19 5.00024C19 4.44796 18.5523 4.00024 18 4.00024ZM15 5.00024C15 3.34339 16.3431 2.00024 18 2.00024C19.6569 2.00024 21 3.34339 21 5.00024C21 6.6571 19.6569 8.00024 18 8.00024C16.3431 8.00024 15 6.6571 15 5.00024Z" fill="#503658"/>
</svg>
