<svg width="32" height="32" viewBox="0 0 32 32" fill="none" xmlns="http://www.w3.org/2000/svg">
<path d="M24 28.0002C26.2091 28.0002 28 26.2094 28 24.0002C28 21.7911 26.2091 20.0002 24 20.0002C21.7909 20.0002 20 21.7911 20 24.0002C20 26.2094 21.7909 28.0002 24 28.0002Z" stroke="#FF6322" stroke-width="2" stroke-linecap="round" stroke-linejoin="round"/>
<path d="M8 12.0002C10.2091 12.0002 12 10.2094 12 8.00024C12 5.79111 10.2091 4.00024 8 4.00024C5.79086 4.00024 4 5.79111 4 8.00024C4 10.2094 5.79086 12.0002 8 12.0002Z" stroke="#FF6322" stroke-width="2" stroke-linecap="round" stroke-linejoin="round"/>
<path d="M17.3333 8.00024H21.3333C22.0406 8.00024 22.7189 8.2812 23.219 8.78129C23.7191 9.28139 24 9.95967 24 10.6669V20.0002" stroke="#FF6322" stroke-width="2" stroke-linecap="round" stroke-linejoin="round"/>
<path d="M8 12.0002V28.0002" stroke="#FF6322" stroke-width="2" stroke-linecap="round" stroke-linejoin="round"/>
</svg>
