<svg width="55" height="54" viewBox="0 0 55 54" fill="none" xmlns="http://www.w3.org/2000/svg">
<path d="M14.7715 7.89551H38.2715V11.8122" stroke="#E8E1E7" stroke-width="2" stroke-linecap="round" stroke-linejoin="round"/>
<path d="M42.1888 11.8128V3.97949H14.7721C13.7334 3.97949 12.7372 4.39214 12.0026 5.12666C11.2681 5.86117 10.8555 6.85739 10.8555 7.89616M10.8555 7.89616C10.8555 8.93492 11.2681 9.93114 12.0026 10.6657C12.7372 11.4002 13.7334 11.8128 14.7721 11.8128H44.1471V49.0212H14.7721C13.7334 49.0212 12.7372 48.6085 12.0026 47.874C11.2681 47.1395 10.8555 46.1433 10.8555 45.1045V7.89616Z" stroke="#E8E1E7" stroke-width="2" stroke-linecap="round" stroke-linejoin="round"/>
<path fill-rule="evenodd" clip-rule="evenodd" d="M27.502 18.6426L30.4395 27.4796H39.252L32.3978 32.3754L35.3353 41.1879L27.502 36.2921L19.6686 41.1879L22.6061 32.3754L15.752 27.4796H24.5645L27.502 18.6426Z" stroke="#503658" stroke-width="2" stroke-linecap="round" stroke-linejoin="round"/>
</svg>
