<svg width="33" height="38" viewBox="0 0 33 38" fill="none" xmlns="http://www.w3.org/2000/svg">
<g clip-path="url(#clip0_346_2759)" filter="url(#filter0_ddd_346_2759)">
<path d="M24.9775 15.0207C26.0058 7.17818 20.8637 4.65738 18.3956 4.48933L10.7559 3.60824C11.559 2.86134 13.941 0.500833 18.6893 0.68009C23.4377 0.859348 26.858 5.23622 27.6807 7.23421C30.0315 12.78 28.6209 16.3091 28.0921 17.7656C27.9616 18.125 27.622 18.3817 27.2694 18.3258C26.7993 18.1578 24.9775 16.8694 24.8011 16.5332C24.5633 16.0797 24.8783 15.7774 24.9775 15.0207Z" fill="#FEFBF5"/>
<path d="M13.2227 30.3507C13.2227 29.2474 12.3282 28.353 11.2246 28.353C10.1211 28.353 9.22656 29.2474 9.22656 30.3507V34.534C9.22656 35.6373 10.1211 36.5317 11.2246 36.5317C12.3282 36.5317 13.2227 35.6373 13.2227 34.534V30.3507Z" fill="#FEFBF5"/>
<path d="M13.2227 14.3292C13.2227 13.2259 12.3282 12.3315 11.2246 12.3315C10.1211 12.3315 9.22656 13.2259 9.22656 14.3292V23.7782C9.22656 24.8815 10.1211 25.7759 11.2246 25.7759C12.3282 25.7759 13.2227 24.8815 13.2227 23.7782V14.3292Z" fill="#FEFBF5"/>
<path d="M2.90498 32.7225C1.85289 32.7225 1 33.5752 1 34.6271C1 35.679 1.85289 36.5317 2.90498 36.5317H11.3185C12.3706 36.5317 13.2235 35.679 13.2235 34.6271C13.2235 33.5752 12.3706 32.7225 11.3185 32.7225H2.90498Z" fill="#FEFBF5"/>
<path d="M11.1315 21.9666C10.0795 21.9666 9.22656 22.8194 9.22656 23.8712C9.22656 24.9231 10.0795 25.7759 11.1315 25.7759H19.5451C20.5972 25.7759 21.4501 24.9231 21.4501 23.8712C21.4501 22.8194 20.5972 21.9666 19.5451 21.9666H11.1315Z" fill="#FEFBF5"/>
<path d="M20.1823 32.7225C19.1302 32.7225 18.2773 33.5752 18.2773 34.6271C18.2773 35.679 19.1302 36.5317 20.1823 36.5317H30.2414C31.2935 36.5317 32.1464 35.679 32.1464 34.6271C32.1464 33.5752 31.2935 32.7225 30.2414 32.7225H20.1823Z" fill="#FEFBF5"/>
<path d="M2.90498 0.679546C1.85289 0.679546 1 1.53227 1 2.58416C1 3.63605 1.85289 4.48877 2.90498 4.48877L18.4881 4.48877C19.5402 4.48877 20.3931 3.63605 20.3931 2.58416C20.3931 1.53227 19.5402 0.679546 18.4881 0.679546L2.90498 0.679546Z" fill="#FEFBF5"/>
<path d="M0.999948 34.1981C0.999948 35.3014 1.89452 36.1958 2.99802 36.1958C4.10153 36.1958 4.99609 35.3014 4.99609 34.1981L4.99609 2.67809C4.99609 1.57479 4.10153 0.680386 2.99802 0.680386C1.89452 0.680386 0.999948 1.57479 0.999948 2.67809L0.999948 34.1981Z" fill="#FEFBF5"/>
<path d="M32.0847 34.0779C32.2142 35.1951 31.3835 36.179 30.2653 36.3009C29.1019 36.4275 28.0651 35.5756 27.9026 34.4169C26.4319 23.93 21.9757 19.8457 11.1487 16.1389C10.125 15.7885 9.54662 14.6908 9.86833 13.6579C10.1714 12.6848 11.1726 12.0999 12.1602 12.3521C24.9487 15.6168 26.5171 23.1346 32.0847 34.0779Z" fill="#FEFBF5"/>
</g>
<defs>
<filter id="filter0_ddd_346_2759" x="0.640996" y="0.490908" width="31.718" height="36.7261" filterUnits="userSpaceOnUse" color-interpolation-filters="sRGB">
<feFlood flood-opacity="0" result="BackgroundImageFix"/>
<feColorMatrix in="SourceAlpha" type="matrix" values="0 0 0 0 0 0 0 0 0 0 0 0 0 0 0 0 0 0 127 0" result="hardAlpha"/>
<feOffset/>
<feGaussianBlur stdDeviation="0.0089751"/>
<feColorMatrix type="matrix" values="0 0 0 0 0 0 0 0 0 0 0 0 0 0 0 0 0 0 0.04 0"/>
<feBlend mode="normal" in2="BackgroundImageFix" result="effect1_dropShadow_346_2759"/>
<feColorMatrix in="SourceAlpha" type="matrix" values="0 0 0 0 0 0 0 0 0 0 0 0 0 0 0 0 0 0 127 0" result="hardAlpha"/>
<feOffset dy="0.0359004"/>
<feGaussianBlur stdDeviation="0.0538506"/>
<feColorMatrix type="matrix" values="0 0 0 0 0 0 0 0 0 0 0 0 0 0 0 0 0 0 0.04 0"/>
<feBlend mode="normal" in2="effect1_dropShadow_346_2759" result="effect2_dropShadow_346_2759"/>
<feColorMatrix in="SourceAlpha" type="matrix" values="0 0 0 0 0 0 0 0 0 0 0 0 0 0 0 0 0 0 127 0" result="hardAlpha"/>
<feOffset dy="0.179502"/>
<feGaussianBlur stdDeviation="0.179502"/>
<feColorMatrix type="matrix" values="0 0 0 0 0 0 0 0 0 0 0 0 0 0 0 0 0 0 0.04 0"/>
<feBlend mode="normal" in2="effect2_dropShadow_346_2759" result="effect3_dropShadow_346_2759"/>
<feBlend mode="normal" in="SourceGraphic" in2="effect3_dropShadow_346_2759" result="shape"/>
</filter>
<clipPath id="clip0_346_2759">
<rect width="31" height="36.0081" fill="white" transform="translate(1 0.67041)"/>
</clipPath>
</defs>
</svg>
