<svg width="24" height="24" viewBox="0 0 24 24" fill="none" xmlns="http://www.w3.org/2000/svg">
<path fill-rule="evenodd" clip-rule="evenodd" d="M11.6489 1.06391C11.8753 0.979021 12.1247 0.979021 12.3511 1.06391L20.3511 4.06392C20.7414 4.21028 21 4.5834 21 5.00024V12.0002C21 15.4467 18.7183 18.2005 16.6585 20.0028C15.6076 20.9223 14.5615 21.6411 13.78 22.1295C13.3882 22.3743 13.0603 22.563 12.8281 22.6915C12.7119 22.7559 12.6194 22.8053 12.5547 22.8393C12.5223 22.8563 12.4968 22.8694 12.4788 22.8787L12.4573 22.8896L12.4508 22.8929L12.4486 22.894C12.4483 22.8941 12.4472 22.8947 12 22.0002C11.5528 22.8947 11.5525 22.8945 11.5522 22.8944L11.5492 22.8929L11.5427 22.8896L11.5212 22.8787C11.5032 22.8694 11.4777 22.8563 11.4453 22.8393C11.3806 22.8053 11.2881 22.7559 11.1719 22.6915C10.9397 22.563 10.6118 22.3743 10.22 22.1295C9.43854 21.6411 8.39238 20.9223 7.3415 20.0028C5.28175 18.2005 3 15.4467 3 12.0002V5.00024C3 4.5834 3.25857 4.21028 3.64888 4.06392L11.6489 1.06391ZM12 22.0002L11.5522 22.8944C11.8337 23.0351 12.1657 23.0354 12.4472 22.8947L12 22.0002ZM12 20.863C12.1916 20.7544 12.4367 20.6106 12.72 20.4335C13.4385 19.9844 14.3924 19.3281 15.3415 18.4977C17.2817 16.7999 19 14.5538 19 12.0002V5.69324L12 3.06824L5 5.69324V12.0002C5 14.5538 6.71825 16.7999 8.6585 18.4977C9.60762 19.3281 10.5615 19.9844 11.28 20.4335C11.5633 20.6106 11.8084 20.7544 12 20.863Z" fill="#503658"/>
</svg>
