<svg width="124" height="23" viewBox="0 0 124 23" fill="none" xmlns="http://www.w3.org/2000/svg">
<path d="M10.5097 16.8242C10.8275 16.6324 11.2254 16.6324 11.5432 16.8242L14.6279 18.6861C15.3853 19.1431 16.3195 18.4642 16.1185 17.6027L15.2999 14.0936C15.2156 13.7321 15.3384 13.3537 15.619 13.1106L18.3458 10.7483C19.0144 10.1691 18.657 9.07083 17.7756 8.99605L14.1875 8.69164C13.8179 8.66028 13.496 8.42694 13.3513 8.08544L11.9472 4.77259C11.6026 3.95956 10.4503 3.95956 10.1058 4.77259L8.70167 8.08544C8.55693 8.42694 8.23506 8.66028 7.86549 8.69164L4.27734 8.99605C3.39591 9.07083 3.03851 10.1691 3.7071 10.7483L6.43398 13.1106C6.71455 13.3537 6.8374 13.7321 6.75306 14.0936L5.93444 17.6027C5.73348 18.4642 6.66771 19.1431 7.42502 18.6861L10.5097 16.8242Z" fill="#503658"/>
<path d="M36.0199 16.8242C36.3377 16.6324 36.7356 16.6324 37.0533 16.8242L40.1381 18.6861C40.8954 19.1431 41.8296 18.4642 41.6286 17.6027L40.81 14.0936C40.7257 13.7321 40.8485 13.3537 41.1291 13.1106L43.856 10.7483C44.5246 10.1691 44.1672 9.07083 43.2857 8.99605L39.6976 8.69164C39.328 8.66028 39.0062 8.42694 38.8614 8.08544L37.4573 4.77259C37.1127 3.95956 35.9605 3.95956 35.6159 4.77259L34.2118 8.08544C34.0671 8.42694 33.7452 8.66028 33.3756 8.69164L29.7875 8.99605C28.906 9.07083 28.5486 10.1691 29.2172 10.7483L31.9441 13.1106C32.2247 13.3537 32.3475 13.7321 32.2632 14.0936L31.4446 17.6027C31.2436 18.4642 32.1778 19.1431 32.9352 18.6861L36.0199 16.8242Z" fill="#503658"/>
<path d="M61.5301 16.8242C61.8479 16.6324 62.2457 16.6324 62.5635 16.8242L65.6483 18.6861C66.4056 19.1431 67.3398 18.4642 67.1388 17.6027L66.3202 14.0936C66.2359 13.7321 66.3587 13.3537 66.6393 13.1106L69.3662 10.7483C70.0348 10.1691 69.6774 9.07083 68.7959 8.99605L65.2078 8.69164C64.8382 8.66028 64.5163 8.42694 64.3716 8.08544L62.9675 4.77259C62.6229 3.95956 61.4707 3.95956 61.1261 4.77259L59.722 8.08544C59.5773 8.42694 59.2554 8.66028 58.8858 8.69164L55.2977 8.99605C54.4162 9.07083 54.0588 10.1691 54.7274 10.7483L57.4543 13.1106C57.7349 13.3537 57.8577 13.7321 57.7734 14.0936L56.9548 17.6027C56.7538 18.4642 57.688 19.1431 58.4453 18.6861L61.5301 16.8242Z" fill="#503658"/>
<path d="M87.0402 16.8242C87.358 16.6324 87.7559 16.6324 88.0737 16.8242L91.1584 18.6861C91.9157 19.1431 92.8499 18.4642 92.649 17.6027L91.8303 14.0936C91.746 13.7321 91.8689 13.3537 92.1494 13.1106L94.8763 10.7483C95.5449 10.1691 95.1875 9.07083 94.3061 8.99605L90.7179 8.69164C90.3483 8.66028 90.0265 8.42694 89.8817 8.08544L88.4777 4.77259C88.1331 3.95956 86.9808 3.95956 86.6362 4.77259L85.2321 8.08544C85.0874 8.42694 84.7655 8.66028 84.3959 8.69164L80.8078 8.99605C79.9264 9.07083 79.569 10.1691 80.2376 10.7483L82.9644 13.1106C83.245 13.3537 83.3679 13.7321 83.2835 14.0936L82.4649 17.6027C82.2639 18.4642 83.1982 19.1431 83.9555 18.6861L87.0402 16.8242Z" fill="#503658"/>
<path d="M120.394 10.745C121.061 10.1659 120.704 9.06934 119.824 8.99344L116.227 8.68324C115.858 8.65144 115.537 8.41845 115.392 8.07767L113.988 4.77045C113.643 3.95785 112.492 3.95816 112.147 4.77095L110.742 8.08544C110.598 8.42694 110.276 8.66028 109.906 8.69164L106.318 8.99605C105.437 9.07083 105.079 10.1691 105.748 10.7483L108.475 13.1106C108.755 13.3537 108.878 13.7321 108.794 14.0936L107.975 17.6027C107.774 18.4642 108.708 19.1431 109.466 18.6861L112.55 16.8242C112.868 16.6324 113.266 16.6324 113.584 16.8242L116.672 18.6884C117.429 19.1451 118.363 18.4674 118.163 17.6063L117.348 14.0923C117.265 13.7315 117.387 13.354 117.667 13.1112L120.394 10.745ZM113.584 15.1213C113.266 14.9291 112.868 14.9289 112.55 15.1209L111.672 15.6511C110.914 16.1084 109.98 15.4291 110.181 14.5675L110.415 13.5649C110.5 13.2036 110.377 12.8252 110.097 12.582L109.312 11.901C108.644 11.3222 109 10.2257 109.881 10.1494L110.918 10.0594C111.287 10.0273 111.608 9.79347 111.753 9.4518L112.147 8.51614C112.491 7.70157 113.645 7.70087 113.99 8.51502L114.39 9.46195C114.535 9.80305 114.856 10.0364 115.225 10.0684L116.263 10.1585C117.143 10.2348 117.499 11.3313 116.832 11.9101L116.047 12.5911C115.766 12.8343 115.644 13.2127 115.728 13.574L115.962 14.5742C116.163 15.4361 115.228 16.1154 114.47 15.6574L113.584 15.1213Z" fill="#503658"/>
</svg>
