<svg width="40" height="40" viewBox="0 0 40 40" fill="none" xmlns="http://www.w3.org/2000/svg">
<path fill-rule="evenodd" clip-rule="evenodd" d="M2.56844 5.18597C3.25519 4.83123 4.09573 4.99522 4.59877 5.5821L13.0596 15.4531L18.5529 5.83985C18.8497 5.32056 19.4019 5.00008 20 5.00008C20.5981 5.00008 21.1503 5.32056 21.4471 5.83985L26.9404 15.4531L35.4012 5.5821C35.9043 4.99522 36.7448 4.83123 37.4316 5.18597C38.1183 5.54072 38.471 6.32109 38.2836 7.07098L33.2836 27.071C33.0981 27.8129 32.4315 28.3334 31.6667 28.3334H8.33334C7.56856 28.3334 6.90192 27.8129 6.71643 27.071L1.71643 7.07098C1.52896 6.32109 1.88169 5.54072 2.56844 5.18597ZM6.66257 13.1118L9.63463 25.0001H30.3654L33.3374 13.1118L27.9321 19.4181C27.5794 19.8296 27.0486 20.0439 26.509 19.9926C25.9694 19.9413 25.4885 19.6309 25.2196 19.1603L20 10.026L14.7804 19.1603C14.5115 19.6309 14.0306 19.9413 13.491 19.9926C12.9514 20.0439 12.4206 19.8296 12.0679 19.4181L6.66257 13.1118ZM6.66667 33.3334C6.66667 32.4129 7.41286 31.6668 8.33334 31.6668H31.6667C32.5871 31.6668 33.3333 32.4129 33.3333 33.3334C33.3333 34.2539 32.5871 35.0001 31.6667 35.0001H8.33334C7.41286 35.0001 6.66667 34.2539 6.66667 33.3334Z" fill="#FFD5C3"/>
</svg>
