<svg width="24" height="18" viewBox="0 0 24 18" fill="none" xmlns="http://www.w3.org/2000/svg">
<path d="M20.3303 1.4618C18.7767 0.778901 17.1155 0.282577 15.3789 0C15.1656 0.362278 14.9164 0.849541 14.7447 1.23718C12.8985 0.976341 11.0693 0.976341 9.25715 1.23718C9.08539 0.849541 8.83051 0.362278 8.61537 0C6.8768 0.282577 5.21375 0.780712 3.66019 1.46542C0.526644 5.9142 -0.322811 10.2525 0.101917 14.5292C2.18025 15.9874 4.1944 16.8731 6.17458 17.4527C6.66349 16.8206 7.09954 16.1486 7.47519 15.4403C6.75976 15.1849 6.07454 14.8697 5.42705 14.5038C5.59883 14.3843 5.76684 14.2593 5.92918 14.1307C9.87824 15.866 14.1689 15.866 18.0708 14.1307C18.2349 14.2593 18.403 14.3843 18.5729 14.5038C17.9235 14.8715 17.2364 15.1867 16.5209 15.4421C16.8966 16.1486 17.3308 16.8224 17.8215 17.4546C19.8036 16.8749 21.8196 15.9892 23.898 14.5292C24.3964 9.57142 23.0466 5.27296 20.3303 1.4618ZM8.01318 11.8991C6.82772 11.8991 5.85556 10.8593 5.85556 9.59316C5.85556 8.32698 6.80695 7.28545 8.01318 7.28545C9.21942 7.28545 10.1915 8.32516 10.1708 9.59316C10.1727 10.8593 9.21942 11.8991 8.01318 11.8991ZM15.9868 11.8991C14.8013 11.8991 13.8291 10.8593 13.8291 9.59316C13.8291 8.32698 14.7805 7.28545 15.9868 7.28545C17.1929 7.28545 18.1651 8.32516 18.1444 9.59316C18.1444 10.8593 17.1929 11.8991 15.9868 11.8991Z" fill="white"/>
</svg>
