<svg width="32" height="32" viewBox="0 0 32 32" fill="none" xmlns="http://www.w3.org/2000/svg">
<path fill-rule="evenodd" clip-rule="evenodd" d="M5.17157 2.50556C5.92172 1.75541 6.93913 1.33398 8 1.33398H19.3333C19.687 1.33398 20.0261 1.47446 20.2761 1.72451L27.6095 9.05784C27.8595 9.30789 28 9.64703 28 10.0007V26.6673C28 27.7282 27.5786 28.7456 26.8284 29.4957C26.0783 30.2459 25.0609 30.6673 24 30.6673H5.33333C4.59695 30.6673 4 30.0704 4 29.334C4 28.5976 4.59695 28.0006 5.33333 28.0006H24C24.3536 28.0006 24.6928 27.8602 24.9428 27.6101C25.1929 27.3601 25.3333 27.0209 25.3333 26.6673V10.5529L18.781 4.00065H8C7.64638 4.00065 7.30724 4.14113 7.05719 4.39118C6.80714 4.64122 6.66667 4.98036 6.66667 5.33398V9.33398C6.66667 10.0704 6.06971 10.6673 5.33333 10.6673C4.59695 10.6673 4 10.0704 4 9.33398V5.33398C4 4.27312 4.42143 3.2557 5.17157 2.50556Z" fill="#FFD5C3"/>
<path fill-rule="evenodd" clip-rule="evenodd" d="M18.6667 1.33398C19.403 1.33398 20 1.93094 20 2.66732V9.33398H26.6667C27.403 9.33398 28 9.93094 28 10.6673C28 11.4037 27.403 12.0007 26.6667 12.0007H18.6667C17.9303 12.0007 17.3333 11.4037 17.3333 10.6673V2.66732C17.3333 1.93094 17.9303 1.33398 18.6667 1.33398Z" fill="#FFD5C3"/>
<path fill-rule="evenodd" clip-rule="evenodd" d="M2.89543 14.8961C3.89563 13.8959 5.25218 13.334 6.66667 13.334C7.36705 13.334 8.06058 13.4719 8.70765 13.74C9.35472 14.008 9.94266 14.4008 10.4379 14.8961C10.9332 15.3913 11.326 15.9793 11.594 16.6263C11.8621 17.2734 12 17.9669 12 18.6673C12 19.3677 11.8621 20.0612 11.594 20.7083C11.326 21.3554 10.9332 21.9433 10.4379 22.4386C9.94266 22.9338 9.35472 23.3267 8.70765 23.5947C8.06058 23.8627 7.36705 24.0007 6.66667 24.0007C5.25218 24.0007 3.89563 23.4387 2.89543 22.4386C1.89524 21.4384 1.33334 20.0818 1.33334 18.6673C1.33334 17.2528 1.89524 15.8963 2.89543 14.8961ZM6.66667 16.0007C5.95942 16.0007 5.28115 16.2816 4.78105 16.7817C4.28095 17.2818 4 17.9601 4 18.6673C4 19.3746 4.28095 20.0528 4.78105 20.5529C5.28115 21.053 5.95942 21.334 6.66667 21.334C7.01686 21.334 7.36362 21.265 7.68716 21.131C8.01069 20.997 8.30466 20.8006 8.55229 20.5529C8.79991 20.3053 8.99634 20.0113 9.13035 19.6878C9.26436 19.3643 9.33334 19.0175 9.33334 18.6673C9.33334 18.3171 9.26436 17.9704 9.13035 17.6468C8.99634 17.3233 8.79991 17.0293 8.55229 16.7817C8.30466 16.5341 8.01069 16.3377 7.68716 16.2036C7.36362 16.0696 7.01686 16.0007 6.66667 16.0007Z" fill="#FFD5C3"/>
<path fill-rule="evenodd" clip-rule="evenodd" d="M9.05719 21.0565C9.57789 20.5358 10.4221 20.5358 10.9428 21.0565L12.9428 23.0565C13.4635 23.5772 13.4635 24.4215 12.9428 24.9422C12.4221 25.4629 11.5779 25.4629 11.0572 24.9422L9.05719 22.9422C8.53649 22.4215 8.53649 21.5772 9.05719 21.0565Z" fill="#FFD5C3"/>
</svg>
