<svg width="40" height="41" viewBox="0 0 40 41" fill="none" xmlns="http://www.w3.org/2000/svg">
<path d="M23.6377 11.4277H16.3623C13.4055 11.4277 11 13.8332 11 16.79V24.0654C11 27.0222 13.4055 29.4277 16.3623 29.4277H23.6377C26.5945 29.4277 29 27.0222 29 24.0654V16.79C29 13.8332 26.5945 11.4277 23.6377 11.4277ZM27.1892 24.0654C27.1892 26.0269 25.5991 27.6169 23.6377 27.6169H16.3623C14.4009 27.6169 12.8108 26.0269 12.8108 24.0654V16.79C12.8108 14.8286 14.4009 13.2385 16.3623 13.2385H23.6377C25.5991 13.2385 27.1892 14.8286 27.1892 16.79V24.0654Z" fill="white"/>
<path d="M19.9999 15.7715C17.4329 15.7715 15.3445 17.8599 15.3445 20.4269C15.3445 22.9939 17.4329 25.0823 19.9999 25.0823C22.5669 25.0823 24.6554 22.9939 24.6554 20.4269C24.6554 17.8599 22.5669 15.7715 19.9999 15.7715ZM19.9999 23.2716C18.4289 23.2716 17.1553 21.998 17.1553 20.4269C17.1553 18.8559 18.4289 17.5823 19.9999 17.5823C21.571 17.5823 22.8446 18.8559 22.8446 20.4269C22.8446 21.998 21.571 23.2716 19.9999 23.2716Z" fill="white"/>
<path d="M24.6644 16.9225C25.2805 16.9225 25.7799 16.423 25.7799 15.8069C25.7799 15.1909 25.2805 14.6914 24.6644 14.6914C24.0483 14.6914 23.5488 15.1909 23.5488 15.8069C23.5488 16.423 24.0483 16.9225 24.6644 16.9225Z" fill="white"/>
<rect x="0.5" y="0.927734" width="39" height="39" rx="19.5" stroke="white"/>
</svg>
